<?xml version="1.0" encoding="UTF-8" standalone="no"?>
<!DOCTYPE svg PUBLIC "-//W3C//DTD SVG 1.1//EN"
 "http://www.w3.org/Graphics/SVG/1.1/DTD/svg11.dtd">
<!-- Generated by graphviz version 8.0.4 (20230422.2207)
 -->
<!-- Pages: 1 -->
<svg width="613pt" height="152pt"
 viewBox="0.00 0.00 613.00 152.40" xmlns="http://www.w3.org/2000/svg" xmlns:xlink="http://www.w3.org/1999/xlink">
<g id="graph0" class="graph" transform="scale(1 1) rotate(0) translate(4 148.4)">
<polygon fill="white" stroke="none" points="-4,4 -4,-148.4 609,-148.4 609,4 -4,4"/>
<!-- customers -->
<g id="node1" class="node">
<title>customers</title>
<polygon fill="#f37843" stroke="none" points="8,-4 8,-140.4 147,-140.4 147,-4 8,-4"/>
<polygon fill="none" stroke="#ffffff" points="8,-111.2 8,-140.4 147,-140.4 147,-111.2 8,-111.2"/>
<text text-anchor="start" x="41" y="-121.2" font-family="Helvetica,sans-Serif" font-weight="bold" font-size="16.00" fill="#ffffff">customers</text>
<polygon fill="#f9d6cd" stroke="none" points="8,-84.4 8,-111.2 147,-111.2 147,-84.4 8,-84.4"/>
<polygon fill="none" stroke="#ffffff" points="8,-84.4 8,-111.2 147,-111.2 147,-84.4 8,-84.4"/>
<text text-anchor="start" x="13" y="-93.9" font-family="Helvetica,sans-Serif" text-decoration="underline" font-size="14.00" fill="#000000">id &#160;</text>
<text text-anchor="start" x="31" y="-93.9" font-family="Helvetica,sans-Serif" font-size="14.00" fill="#000000"> [int]</text>
<polygon fill="#fcece8" stroke="none" points="8,-57.6 8,-84.4 147,-84.4 147,-57.6 8,-57.6"/>
<polygon fill="none" stroke="#ffffff" points="8,-57.6 8,-84.4 147,-84.4 147,-57.6 8,-57.6"/>
<text text-anchor="start" x="13" y="-67.1" font-family="Helvetica,sans-Serif" font-size="14.00" fill="#868686">first_name &#160;</text>
<text text-anchor="start" x="85" y="-67.1" font-family="Helvetica,sans-Serif" font-size="14.00" fill="#868686"> [varchar]</text>
<polygon fill="#fcece8" stroke="none" points="8,-30.8 8,-57.6 147,-57.6 147,-30.8 8,-30.8"/>
<polygon fill="none" stroke="#ffffff" points="8,-30.8 8,-57.6 147,-57.6 147,-30.8 8,-30.8"/>
<text text-anchor="start" x="13" y="-40.3" font-family="Helvetica,sans-Serif" font-size="14.00" fill="#868686">last_name &#160;</text>
<text text-anchor="start" x="84" y="-40.3" font-family="Helvetica,sans-Serif" font-size="14.00" fill="#868686"> [varchar]</text>
<polygon fill="#fcece8" stroke="none" points="8,-4 8,-30.8 147,-30.8 147,-4 8,-4"/>
<polygon fill="none" stroke="#ffffff" points="8,-4 8,-30.8 147,-30.8 147,-4 8,-4"/>
<text text-anchor="start" x="13" y="-13.5" font-family="Helvetica,sans-Serif" font-size="14.00" fill="#868686">email &#160;</text>
<text text-anchor="start" x="54" y="-13.5" font-family="Helvetica,sans-Serif" font-size="14.00" fill="#868686"> [varchar]</text>
</g>
<!-- orders -->
<g id="node2" class="node">
<title>orders</title>
<polygon fill="#f37843" stroke="none" points="236,-4 236,-140.4 358,-140.4 358,-4 236,-4"/>
<polygon fill="none" stroke="#ffffff" points="236,-111.2 236,-140.4 358,-140.4 358,-111.2 236,-111.2"/>
<text text-anchor="start" x="274.5" y="-121.2" font-family="Helvetica,sans-Serif" font-weight="bold" font-size="16.00" fill="#ffffff">orders</text>
<polygon fill="#f9d6cd" stroke="none" points="236,-84.4 236,-111.2 358,-111.2 358,-84.4 236,-84.4"/>
<polygon fill="none" stroke="#ffffff" points="236,-84.4 236,-111.2 358,-111.2 358,-84.4 236,-84.4"/>
<text text-anchor="start" x="241" y="-93.9" font-family="Helvetica,sans-Serif" text-decoration="underline" font-size="14.00" fill="#000000">id &#160;</text>
<text text-anchor="start" x="259" y="-93.9" font-family="Helvetica,sans-Serif" font-size="14.00" fill="#000000"> [int]</text>
<polygon fill="#fcece8" stroke="none" points="236,-57.6 236,-84.4 358,-84.4 358,-57.6 236,-57.6"/>
<polygon fill="none" stroke="#ffffff" points="236,-57.6 236,-84.4 358,-84.4 358,-57.6 236,-57.6"/>
<text text-anchor="start" x="241" y="-67.1" font-family="Helvetica,sans-Serif" font-style="italic" font-size="14.00" fill="#868686">user_id &#160;</text>
<text text-anchor="start" x="294" y="-67.1" font-family="Helvetica,sans-Serif" font-size="14.00" fill="#868686"> [int]</text>
<polygon fill="#fcece8" stroke="none" points="236,-30.8 236,-57.6 358,-57.6 358,-30.8 236,-30.8"/>
<polygon fill="none" stroke="#ffffff" points="236,-30.8 236,-57.6 358,-57.6 358,-30.8 236,-30.8"/>
<text text-anchor="start" x="241" y="-40.3" font-family="Helvetica,sans-Serif" font-size="14.00" fill="#868686">order_date &#160;</text>
<text text-anchor="start" x="315" y="-40.3" font-family="Helvetica,sans-Serif" font-size="14.00" fill="#868686"> [date]</text>
<polygon fill="#fcece8" stroke="none" points="236,-4 236,-30.8 358,-30.8 358,-4 236,-4"/>
<polygon fill="none" stroke="#ffffff" points="236,-4 236,-30.8 358,-30.8 358,-4 236,-4"/>
<text text-anchor="start" x="241" y="-13.5" font-family="Helvetica,sans-Serif" font-size="14.00" fill="#868686">status &#160;</text>
<text text-anchor="start" x="285" y="-13.5" font-family="Helvetica,sans-Serif" font-size="14.00" fill="#868686"> [varchar]</text>
</g>
<!-- customers&#45;&#45;orders -->
<g id="edge1" class="edge">
<title>customers&#45;&#45;orders</title>
<path fill="none" stroke="#7f7f7f" stroke-dasharray="5,2" d="M154.88,-72.2C178.75,-72.2 204.9,-72.2 228.14,-72.2"/>
<text text-anchor="start" x="204.14" y="-58.9" font-family="Times,serif" font-size="14.00">0..N</text>
<text text-anchor="start" x="154.88" y="-58.9" font-family="Times,serif" font-size="14.00">1</text>
</g>
<!-- payments -->
<g id="node3" class="node">
<title>payments</title>
<polygon fill="#f37843" stroke="none" points="447,-4 447,-140.4 597,-140.4 597,-4 447,-4"/>
<polygon fill="none" stroke="#ffffff" points="447,-111.2 447,-140.4 597,-140.4 597,-111.2 447,-111.2"/>
<text text-anchor="start" x="488" y="-121.2" font-family="Helvetica,sans-Serif" font-weight="bold" font-size="16.00" fill="#ffffff">payments</text>
<polygon fill="#f9d6cd" stroke="none" points="447,-84.4 447,-111.2 597,-111.2 597,-84.4 447,-84.4"/>
<polygon fill="none" stroke="#ffffff" points="447,-84.4 447,-111.2 597,-111.2 597,-84.4 447,-84.4"/>
<text text-anchor="start" x="452" y="-93.9" font-family="Helvetica,sans-Serif" text-decoration="underline" font-size="14.00" fill="#000000">id &#160;</text>
<text text-anchor="start" x="470" y="-93.9" font-family="Helvetica,sans-Serif" font-size="14.00" fill="#000000"> [int]</text>
<polygon fill="#fcece8" stroke="none" points="447,-57.6 447,-84.4 597,-84.4 597,-57.6 447,-57.6"/>
<polygon fill="none" stroke="#ffffff" points="447,-57.6 447,-84.4 597,-84.4 597,-57.6 447,-57.6"/>
<text text-anchor="start" x="452" y="-67.1" font-family="Helvetica,sans-Serif" font-style="italic" font-size="14.00" fill="#868686">order_id &#160;</text>
<text text-anchor="start" x="510" y="-67.1" font-family="Helvetica,sans-Serif" font-size="14.00" fill="#868686"> [int]</text>
<polygon fill="#fcece8" stroke="none" points="447,-30.8 447,-57.6 597,-57.6 597,-30.8 447,-30.8"/>
<polygon fill="none" stroke="#ffffff" points="447,-30.8 447,-57.6 597,-57.6 597,-30.8 447,-30.8"/>
<text text-anchor="start" x="452" y="-40.3" font-family="Helvetica,sans-Serif" font-size="14.00" fill="#868686">payment_method &#160;</text>
<text text-anchor="start" x="566" y="-40.3" font-family="Helvetica,sans-Serif" font-size="14.00" fill="#868686"> [int]</text>
<polygon fill="#fcece8" stroke="none" points="447,-4 447,-30.8 597,-30.8 597,-4 447,-4"/>
<polygon fill="none" stroke="#ffffff" points="447,-4 447,-30.8 597,-30.8 597,-4 447,-4"/>
<text text-anchor="start" x="452" y="-13.5" font-family="Helvetica,sans-Serif" font-size="14.00" fill="#868686">amount &#160;</text>
<text text-anchor="start" x="506" y="-13.5" font-family="Helvetica,sans-Serif" font-size="14.00" fill="#868686"> [int]</text>
</g>
<!-- orders&#45;&#45;payments -->
<g id="edge2" class="edge">
<title>orders&#45;&#45;payments</title>
<path fill="none" stroke="#7f7f7f" stroke-dasharray="5,2" d="M365.82,-72.2C389.01,-72.2 415.2,-72.2 439.37,-72.2"/>
<text text-anchor="start" x="415.37" y="-58.9" font-family="Times,serif" font-size="14.00">0..N</text>
<text text-anchor="start" x="365.82" y="-58.9" font-family="Times,serif" font-size="14.00">1</text>
</g>
</g>
</svg>
