<?xml version="1.0" encoding="UTF-8" standalone="no"?>
<!DOCTYPE svg PUBLIC "-//W3C//DTD SVG 1.1//EN"
 "http://www.w3.org/Graphics/SVG/1.1/DTD/svg11.dtd">
<!-- Generated by graphviz version 8.0.4 (20230422.2207)
 -->
<!-- Pages: 1 -->
<svg width="435pt" height="450pt"
 viewBox="0.00 0.00 435.00 450.40" xmlns="http://www.w3.org/2000/svg" xmlns:xlink="http://www.w3.org/1999/xlink">
<g id="graph0" class="graph" transform="scale(1 1) rotate(0) translate(4 446.4)">
<polygon fill="white" stroke="none" points="-4,4 -4,-446.4 431,-446.4 431,4 -4,4"/>
<!-- dim_customers -->
<g id="node1" class="node">
<title>dim_customers</title>
<polygon fill="#f37843" stroke="none" points="29,-302 29,-438.4 168,-438.4 168,-302 29,-302"/>
<polygon fill="none" stroke="#ffffff" points="29,-409.2 29,-438.4 168,-438.4 168,-409.2 29,-409.2"/>
<text text-anchor="start" x="44.5" y="-419.2" font-family="Helvetica,sans-Serif" font-weight="bold" font-size="16.00" fill="#ffffff">dim_customers</text>
<polygon fill="#fcece8" stroke="none" points="29,-382.4 29,-409.2 168,-409.2 168,-382.4 29,-382.4"/>
<polygon fill="none" stroke="#ffffff" points="29,-382.4 29,-409.2 168,-409.2 168,-382.4 29,-382.4"/>
<text text-anchor="start" x="34" y="-391.9" font-family="Helvetica,sans-Serif" text-decoration="underline" font-size="14.00" fill="#868686">customer_id &#160;</text>
<text text-anchor="start" x="117" y="-391.9" font-family="Helvetica,sans-Serif" font-size="14.00" fill="#868686"> [int]</text>
<polygon fill="#fcece8" stroke="none" points="29,-355.6 29,-382.4 168,-382.4 168,-355.6 29,-355.6"/>
<polygon fill="none" stroke="#ffffff" points="29,-355.6 29,-382.4 168,-382.4 168,-355.6 29,-355.6"/>
<text text-anchor="start" x="34" y="-365.1" font-family="Helvetica,sans-Serif" font-size="14.00" fill="#868686">first_name &#160;</text>
<text text-anchor="start" x="106" y="-365.1" font-family="Helvetica,sans-Serif" font-size="14.00" fill="#868686"> [varchar]</text>
<polygon fill="#fcece8" stroke="none" points="29,-328.8 29,-355.6 168,-355.6 168,-328.8 29,-328.8"/>
<polygon fill="none" stroke="#ffffff" points="29,-328.8 29,-355.6 168,-355.6 168,-328.8 29,-328.8"/>
<text text-anchor="start" x="34" y="-338.3" font-family="Helvetica,sans-Serif" font-size="14.00" fill="#868686">last_name &#160;</text>
<text text-anchor="start" x="105" y="-338.3" font-family="Helvetica,sans-Serif" font-size="14.00" fill="#868686"> [varchar]</text>
<polygon fill="#fcece8" stroke="none" points="29,-302 29,-328.8 168,-328.8 168,-302 29,-302"/>
<polygon fill="none" stroke="#ffffff" points="29,-302 29,-328.8 168,-328.8 168,-302 29,-302"/>
<text text-anchor="start" x="34" y="-311.5" font-family="Helvetica,sans-Serif" font-size="14.00" fill="#868686">email &#160;</text>
<text text-anchor="start" x="75" y="-311.5" font-family="Helvetica,sans-Serif" font-size="14.00" fill="#868686"> [varchar]</text>
</g>
<!-- fct_order_details -->
<g id="node4" class="node">
<title>fct_order_details</title>
<polygon fill="#f37843" stroke="none" points="278,-112.8 278,-329.6 419,-329.6 419,-112.8 278,-112.8"/>
<polygon fill="none" stroke="#ffffff" points="278,-300.4 278,-329.6 419,-329.6 419,-300.4 278,-300.4"/>
<text text-anchor="start" x="289.5" y="-310.4" font-family="Helvetica,sans-Serif" font-weight="bold" font-size="16.00" fill="#ffffff">fct_order_details</text>
<polygon fill="#fcece8" stroke="none" points="278,-273.6 278,-300.4 419,-300.4 419,-273.6 278,-273.6"/>
<polygon fill="none" stroke="#ffffff" points="278,-273.6 278,-300.4 419,-300.4 419,-273.6 278,-273.6"/>
<text text-anchor="start" x="283" y="-283.1" font-family="Helvetica,sans-Serif" font-size="14.00" fill="#868686">order_id &#160;</text>
<text text-anchor="start" x="341" y="-283.1" font-family="Helvetica,sans-Serif" font-size="14.00" fill="#868686"> [int]</text>
<polygon fill="#fcece8" stroke="none" points="278,-246.8 278,-273.6 419,-273.6 419,-246.8 278,-246.8"/>
<polygon fill="none" stroke="#ffffff" points="278,-246.8 278,-273.6 419,-273.6 419,-246.8 278,-246.8"/>
<text text-anchor="start" x="283" y="-256.3" font-family="Helvetica,sans-Serif" font-size="14.00" fill="#868686">product_id &#160;</text>
<text text-anchor="start" x="355" y="-256.3" font-family="Helvetica,sans-Serif" font-size="14.00" fill="#868686"> [int]</text>
<polygon fill="#fcece8" stroke="none" points="278,-220 278,-246.8 419,-246.8 419,-220 278,-220"/>
<polygon fill="none" stroke="#ffffff" points="278,-220 278,-246.8 419,-246.8 419,-220 278,-220"/>
<text text-anchor="start" x="283" y="-229.5" font-family="Helvetica,sans-Serif" font-size="14.00" fill="#868686">customer_id &#160;</text>
<text text-anchor="start" x="366" y="-229.5" font-family="Helvetica,sans-Serif" font-size="14.00" fill="#868686"> [int]</text>
<polygon fill="#fcece8" stroke="none" points="278,-193.2 278,-220 419,-220 419,-193.2 278,-193.2"/>
<polygon fill="none" stroke="#ffffff" points="278,-193.2 278,-220 419,-220 419,-193.2 278,-193.2"/>
<text text-anchor="start" x="283" y="-202.7" font-family="Helvetica,sans-Serif" font-size="14.00" fill="#868686">order_date &#160;</text>
<text text-anchor="start" x="357" y="-202.7" font-family="Helvetica,sans-Serif" font-size="14.00" fill="#868686"> [varchar]</text>
<polygon fill="#fcece8" stroke="none" points="278,-166.4 278,-193.2 419,-193.2 419,-166.4 278,-166.4"/>
<polygon fill="none" stroke="#ffffff" points="278,-166.4 278,-193.2 419,-193.2 419,-166.4 278,-166.4"/>
<text text-anchor="start" x="283" y="-175.9" font-family="Helvetica,sans-Serif" font-size="14.00" fill="#868686">unit_price &#160;</text>
<text text-anchor="start" x="350" y="-175.9" font-family="Helvetica,sans-Serif" font-size="14.00" fill="#868686"> [varchar]</text>
<polygon fill="#fcece8" stroke="none" points="278,-139.6 278,-166.4 419,-166.4 419,-139.6 278,-139.6"/>
<polygon fill="none" stroke="#ffffff" points="278,-139.6 278,-166.4 419,-166.4 419,-139.6 278,-139.6"/>
<text text-anchor="start" x="283" y="-149.1" font-family="Helvetica,sans-Serif" font-size="14.00" fill="#868686">quantity &#160;</text>
<text text-anchor="start" x="339" y="-149.1" font-family="Helvetica,sans-Serif" font-size="14.00" fill="#868686"> [int]</text>
<polygon fill="#fcece8" stroke="none" points="278,-112.8 278,-139.6 419,-139.6 419,-112.8 278,-112.8"/>
<polygon fill="none" stroke="#ffffff" points="278,-112.8 278,-139.6 419,-139.6 419,-112.8 278,-112.8"/>
<text text-anchor="start" x="283" y="-122.3" font-family="Helvetica,sans-Serif" font-size="14.00" fill="#868686">amount &#160;</text>
<text text-anchor="start" x="337" y="-122.3" font-family="Helvetica,sans-Serif" font-size="14.00" fill="#868686"> [varchar]</text>
</g>
<!-- dim_customers&#45;&#45;fct_order_details -->
<g id="edge1" class="edge">
<title>dim_customers&#45;&#45;fct_order_details</title>
<path fill="none" stroke="#7f7f7f" stroke-dasharray="5,2" d="M175.93,-324.28C205.82,-306.32 240.05,-285.76 270.04,-267.74"/>
<text text-anchor="start" x="246.04" y="-254.44" font-family="Times,serif" font-size="14.00">0..N</text>
<text text-anchor="start" x="175.93" y="-310.98" font-family="Times,serif" font-size="14.00">1</text>
</g>
<!-- dim_orders -->
<g id="node2" class="node">
<title>dim_orders</title>
<polygon fill="#f37843" stroke="none" points="23,-166.4 23,-276 174,-276 174,-166.4 23,-166.4"/>
<polygon fill="none" stroke="#ffffff" points="23,-246.8 23,-276 174,-276 174,-246.8 23,-246.8"/>
<text text-anchor="start" x="59" y="-256.8" font-family="Helvetica,sans-Serif" font-weight="bold" font-size="16.00" fill="#ffffff">dim_orders</text>
<polygon fill="#fcece8" stroke="none" points="23,-220 23,-246.8 174,-246.8 174,-220 23,-220"/>
<polygon fill="none" stroke="#ffffff" points="23,-220 23,-246.8 174,-246.8 174,-220 23,-220"/>
<text text-anchor="start" x="28" y="-229.5" font-family="Helvetica,sans-Serif" text-decoration="underline" font-size="14.00" fill="#868686">order_id &#160;</text>
<text text-anchor="start" x="86" y="-229.5" font-family="Helvetica,sans-Serif" font-size="14.00" fill="#868686"> [int]</text>
<polygon fill="#fcece8" stroke="none" points="23,-193.2 23,-220 174,-220 174,-193.2 23,-193.2"/>
<polygon fill="none" stroke="#ffffff" points="23,-193.2 23,-220 174,-220 174,-193.2 23,-193.2"/>
<text text-anchor="start" x="28" y="-202.7" font-family="Helvetica,sans-Serif" font-size="14.00" fill="#868686">order_date &#160;</text>
<text text-anchor="start" x="102" y="-202.7" font-family="Helvetica,sans-Serif" font-size="14.00" fill="#868686"> [varchar]</text>
<polygon fill="#fcece8" stroke="none" points="23,-166.4 23,-193.2 174,-193.2 174,-166.4 23,-166.4"/>
<polygon fill="none" stroke="#ffffff" points="23,-166.4 23,-193.2 174,-193.2 174,-166.4 23,-166.4"/>
<text text-anchor="start" x="28" y="-175.9" font-family="Helvetica,sans-Serif" font-size="14.00" fill="#868686">order_status &#160;</text>
<text text-anchor="start" x="112" y="-175.9" font-family="Helvetica,sans-Serif" font-size="14.00" fill="#868686"> [varchar]</text>
</g>
<!-- dim_orders&#45;&#45;fct_order_details -->
<g id="edge2" class="edge">
<title>dim_orders&#45;&#45;fct_order_details</title>
<path fill="none" stroke="#7f7f7f" stroke-dasharray="5,2" d="M181.74,-221.2C210.22,-221.2 242.03,-221.2 270.11,-221.2"/>
<text text-anchor="start" x="246.11" y="-224.7" font-family="Times,serif" font-size="14.00">0..N</text>
<text text-anchor="start" x="181.74" y="-207.9" font-family="Times,serif" font-size="14.00">1</text>
</g>
<!-- dim_products -->
<g id="node3" class="node">
<title>dim_products</title>
<polygon fill="#f37843" stroke="none" points="8,-4 8,-140.4 189,-140.4 189,-4 8,-4"/>
<polygon fill="none" stroke="#ffffff" points="8,-111.2 8,-140.4 189,-140.4 189,-111.2 8,-111.2"/>
<text text-anchor="start" x="50.5" y="-121.2" font-family="Helvetica,sans-Serif" font-weight="bold" font-size="16.00" fill="#ffffff">dim_products</text>
<polygon fill="#fcece8" stroke="none" points="8,-84.4 8,-111.2 189,-111.2 189,-84.4 8,-84.4"/>
<polygon fill="none" stroke="#ffffff" points="8,-84.4 8,-111.2 189,-111.2 189,-84.4 8,-84.4"/>
<text text-anchor="start" x="13" y="-93.9" font-family="Helvetica,sans-Serif" text-decoration="underline" font-size="14.00" fill="#868686">product_id &#160;</text>
<text text-anchor="start" x="85" y="-93.9" font-family="Helvetica,sans-Serif" font-size="14.00" fill="#868686"> [int]</text>
<polygon fill="#fcece8" stroke="none" points="8,-57.6 8,-84.4 189,-84.4 189,-57.6 8,-57.6"/>
<polygon fill="none" stroke="#ffffff" points="8,-57.6 8,-84.4 189,-84.4 189,-57.6 8,-57.6"/>
<text text-anchor="start" x="13" y="-67.1" font-family="Helvetica,sans-Serif" font-size="14.00" fill="#868686">product_name &#160;</text>
<text text-anchor="start" x="109" y="-67.1" font-family="Helvetica,sans-Serif" font-size="14.00" fill="#868686"> [varchar]</text>
<polygon fill="#fcece8" stroke="none" points="8,-30.8 8,-57.6 189,-57.6 189,-30.8 8,-30.8"/>
<polygon fill="none" stroke="#ffffff" points="8,-30.8 8,-57.6 189,-57.6 189,-30.8 8,-30.8"/>
<text text-anchor="start" x="13" y="-40.3" font-family="Helvetica,sans-Serif" font-size="14.00" fill="#868686">product_category &#160;</text>
<text text-anchor="start" x="127" y="-40.3" font-family="Helvetica,sans-Serif" font-size="14.00" fill="#868686"> [varchar]</text>
<polygon fill="#fcece8" stroke="none" points="8,-4 8,-30.8 189,-30.8 189,-4 8,-4"/>
<polygon fill="none" stroke="#ffffff" points="8,-4 8,-30.8 189,-30.8 189,-4 8,-4"/>
<text text-anchor="start" x="13" y="-13.5" font-family="Helvetica,sans-Serif" font-size="14.00" fill="#868686">price_dollars &#160;</text>
<text text-anchor="start" x="99" y="-13.5" font-family="Helvetica,sans-Serif" font-size="14.00" fill="#868686"> [varchar]</text>
</g>
<!-- dim_products&#45;&#45;fct_order_details -->
<g id="edge3" class="edge">
<title>dim_products&#45;&#45;fct_order_details</title>
<path fill="none" stroke="#7f7f7f" stroke-dasharray="5,2" d="M196.8,-130.66C221.09,-145.25 246.82,-160.71 270.01,-174.64"/>
<text text-anchor="start" x="246.01" y="-161.34" font-family="Times,serif" font-size="14.00">0..N</text>
<text text-anchor="start" x="196.8" y="-117.36" font-family="Times,serif" font-size="14.00">1</text>
</g>
</g>
</svg>
