<?xml version="1.0" encoding="UTF-8" standalone="no"?>
<!DOCTYPE svg PUBLIC "-//W3C//DTD SVG 1.1//EN"
 "http://www.w3.org/Graphics/SVG/1.1/DTD/svg11.dtd">
<!-- Generated by graphviz version 9.0.0 (20230911.1827)
 -->
<!-- Pages: 1 -->
<svg width="917pt" height="454pt"
 viewBox="0.00 0.00 916.75 454.25" xmlns="http://www.w3.org/2000/svg" xmlns:xlink="http://www.w3.org/1999/xlink">
<g id="graph0" class="graph" transform="scale(1 1) rotate(0) translate(4 450.25)">
<polygon fill="white" stroke="none" points="-4,4 -4,-450.25 912.75,-450.25 912.75,4 -4,4"/>
<!-- raw_customers -->
<g id="node1" class="node">
<title>raw_customers</title>
<polygon fill="#f37843" stroke="none" points="8,-4 8,-442.25 227.25,-442.25 227.25,-4 8,-4"/>
<polygon fill="none" stroke="#ffffff" points="8,-412.75 8,-442.25 227.25,-442.25 227.25,-412.75 8,-412.75"/>
<text text-anchor="start" x="49.38" y="-423.05" font-family="Helvetica,sans-Serif" font-weight="bold" font-size="16.00" fill="#ffffff">raw_customers</text>
<polygon fill="#f9d6cd" stroke="none" points="8,-385.5 8,-412.75 227.25,-412.75 227.25,-385.5 8,-385.5"/>
<polygon fill="none" stroke="#ffffff" points="8,-385.5 8,-412.75 227.25,-412.75 227.25,-385.5 8,-385.5"/>
<text text-anchor="start" x="13" y="-395.45" font-family="Helvetica,sans-Serif" text-decoration="underline" font-size="14.00" fill="#000000">cust_id &#160;</text>
<text text-anchor="start" x="70.75" y="-395.45" font-family="Helvetica,sans-Serif" font-size="14.00" fill="#000000"> [INTEGER]</text>
<polygon fill="#fcece8" stroke="none" points="8,-358.25 8,-385.5 227.25,-385.5 227.25,-358.25 8,-358.25"/>
<polygon fill="none" stroke="#ffffff" points="8,-358.25 8,-385.5 227.25,-385.5 227.25,-358.25 8,-358.25"/>
<text text-anchor="start" x="13" y="-368.2" font-family="Helvetica,sans-Serif" font-size="14.00" fill="#868686">income &#160;</text>
<text text-anchor="start" x="72.25" y="-368.2" font-family="Helvetica,sans-Serif" font-size="14.00" fill="#868686"> [DECIMAL(15, 1)]</text>
<polygon fill="#fcece8" stroke="none" points="8,-331 8,-358.25 227.25,-358.25 227.25,-331 8,-331"/>
<polygon fill="none" stroke="#ffffff" points="8,-331 8,-358.25 227.25,-358.25 227.25,-331 8,-331"/>
<text text-anchor="start" x="13" y="-340.95" font-family="Helvetica,sans-Serif" font-size="14.00" fill="#868686">age &#160;</text>
<text text-anchor="start" x="47.5" y="-340.95" font-family="Helvetica,sans-Serif" font-size="14.00" fill="#868686"> [INTEGER]</text>
<polygon fill="#fcece8" stroke="none" points="8,-303.75 8,-331 227.25,-331 227.25,-303.75 8,-303.75"/>
<polygon fill="none" stroke="#ffffff" points="8,-303.75 8,-331 227.25,-331 227.25,-303.75 8,-303.75"/>
<text text-anchor="start" x="13" y="-313.7" font-family="Helvetica,sans-Serif" font-size="14.00" fill="#868686">years_with_bank &#160;</text>
<text text-anchor="start" x="137.5" y="-313.7" font-family="Helvetica,sans-Serif" font-size="14.00" fill="#868686"> [INTEGER]</text>
<polygon fill="#fcece8" stroke="none" points="8,-276.5 8,-303.75 227.25,-303.75 227.25,-276.5 8,-276.5"/>
<polygon fill="none" stroke="#ffffff" points="8,-276.5 8,-303.75 227.25,-303.75 227.25,-276.5 8,-276.5"/>
<text text-anchor="start" x="13" y="-286.45" font-family="Helvetica,sans-Serif" font-size="14.00" fill="#868686">nbr_children &#160;</text>
<text text-anchor="start" x="108.25" y="-286.45" font-family="Helvetica,sans-Serif" font-size="14.00" fill="#868686"> [INTEGER]</text>
<polygon fill="#fcece8" stroke="none" points="8,-249.25 8,-276.5 227.25,-276.5 227.25,-249.25 8,-249.25"/>
<polygon fill="none" stroke="#ffffff" points="8,-249.25 8,-276.5 227.25,-276.5 227.25,-249.25 8,-249.25"/>
<text text-anchor="start" x="13" y="-259.2" font-family="Helvetica,sans-Serif" font-size="14.00" fill="#868686">gender &#160;</text>
<text text-anchor="start" x="71.5" y="-259.2" font-family="Helvetica,sans-Serif" font-size="14.00" fill="#868686"> [VARCHAR(1)]</text>
<polygon fill="#fcece8" stroke="none" points="8,-222 8,-249.25 227.25,-249.25 227.25,-222 8,-222"/>
<polygon fill="none" stroke="#ffffff" points="8,-222 8,-249.25 227.25,-249.25 227.25,-222 8,-222"/>
<text text-anchor="start" x="13" y="-231.95" font-family="Helvetica,sans-Serif" font-size="14.00" fill="#868686">marital_status &#160;</text>
<text text-anchor="start" x="120.25" y="-231.95" font-family="Helvetica,sans-Serif" font-size="14.00" fill="#868686"> [VARCHAR(1)]</text>
<polygon fill="#fcece8" stroke="none" points="8,-194.75 8,-222 227.25,-222 227.25,-194.75 8,-194.75"/>
<polygon fill="none" stroke="#ffffff" points="8,-194.75 8,-222 227.25,-222 227.25,-194.75 8,-194.75"/>
<text text-anchor="start" x="13" y="-204.7" font-family="Helvetica,sans-Serif" font-size="14.00" fill="#868686">name_prefix &#160;</text>
<text text-anchor="start" x="107.5" y="-204.7" font-family="Helvetica,sans-Serif" font-size="14.00" fill="#868686"> [VARCHAR(4)]</text>
<polygon fill="#fcece8" stroke="none" points="8,-167.5 8,-194.75 227.25,-194.75 227.25,-167.5 8,-167.5"/>
<polygon fill="none" stroke="#ffffff" points="8,-167.5 8,-194.75 227.25,-194.75 227.25,-167.5 8,-167.5"/>
<text text-anchor="start" x="13" y="-177.45" font-family="Helvetica,sans-Serif" font-size="14.00" fill="#868686">first_name &#160;</text>
<text text-anchor="start" x="95.5" y="-177.45" font-family="Helvetica,sans-Serif" font-size="14.00" fill="#868686"> [VARCHAR(12)]</text>
<polygon fill="#fcece8" stroke="none" points="8,-140.25 8,-167.5 227.25,-167.5 227.25,-140.25 8,-140.25"/>
<polygon fill="none" stroke="#ffffff" points="8,-140.25 8,-167.5 227.25,-167.5 227.25,-140.25 8,-140.25"/>
<text text-anchor="start" x="13" y="-150.2" font-family="Helvetica,sans-Serif" font-size="14.00" fill="#868686">last_name &#160;</text>
<text text-anchor="start" x="92.5" y="-150.2" font-family="Helvetica,sans-Serif" font-size="14.00" fill="#868686"> [VARCHAR(15)]</text>
<polygon fill="#fcece8" stroke="none" points="8,-113 8,-140.25 227.25,-140.25 227.25,-113 8,-113"/>
<polygon fill="none" stroke="#ffffff" points="8,-113 8,-140.25 227.25,-140.25 227.25,-113 8,-113"/>
<text text-anchor="start" x="13" y="-122.95" font-family="Helvetica,sans-Serif" font-size="14.00" fill="#868686">street_nbr &#160;</text>
<text text-anchor="start" x="92.5" y="-122.95" font-family="Helvetica,sans-Serif" font-size="14.00" fill="#868686"> [VARCHAR(8)]</text>
<polygon fill="#fcece8" stroke="none" points="8,-85.75 8,-113 227.25,-113 227.25,-85.75 8,-85.75"/>
<polygon fill="none" stroke="#ffffff" points="8,-85.75 8,-113 227.25,-113 227.25,-85.75 8,-85.75"/>
<text text-anchor="start" x="13" y="-95.7" font-family="Helvetica,sans-Serif" font-size="14.00" fill="#868686">street_name &#160;</text>
<text text-anchor="start" x="107.5" y="-95.7" font-family="Helvetica,sans-Serif" font-size="14.00" fill="#868686"> [VARCHAR(15)]</text>
<polygon fill="#fcece8" stroke="none" points="8,-58.5 8,-85.75 227.25,-85.75 227.25,-58.5 8,-58.5"/>
<polygon fill="none" stroke="#ffffff" points="8,-58.5 8,-85.75 227.25,-85.75 227.25,-58.5 8,-58.5"/>
<text text-anchor="start" x="13" y="-68.45" font-family="Helvetica,sans-Serif" font-size="14.00" fill="#868686">postal_code &#160;</text>
<text text-anchor="start" x="103.75" y="-68.45" font-family="Helvetica,sans-Serif" font-size="14.00" fill="#868686"> [VARCHAR(5)]</text>
<polygon fill="#fcece8" stroke="none" points="8,-31.25 8,-58.5 227.25,-58.5 227.25,-31.25 8,-31.25"/>
<polygon fill="none" stroke="#ffffff" points="8,-31.25 8,-58.5 227.25,-58.5 227.25,-31.25 8,-31.25"/>
<text text-anchor="start" x="13" y="-41.2" font-family="Helvetica,sans-Serif" font-size="14.00" fill="#868686">city_name &#160;</text>
<text text-anchor="start" x="92.5" y="-41.2" font-family="Helvetica,sans-Serif" font-size="14.00" fill="#868686"> [VARCHAR(16)]</text>
<polygon fill="#fcece8" stroke="none" points="8,-4 8,-31.25 227.25,-31.25 227.25,-4 8,-4"/>
<polygon fill="none" stroke="#ffffff" points="8,-4 8,-31.25 227.25,-31.25 227.25,-4 8,-4"/>
<text text-anchor="start" x="13" y="-13.95" font-family="Helvetica,sans-Serif" font-size="14.00" fill="#868686">state_code &#160;</text>
<text text-anchor="start" x="96.25" y="-13.95" font-family="Helvetica,sans-Serif" font-size="14.00" fill="#868686"> [VARCHAR(2)]</text>
</g>
<!-- raw_accounts -->
<g id="node2" class="node">
<title>raw_accounts</title>
<polygon fill="#f37843" stroke="none" points="316.25,-99.38 316.25,-346.88 574.5,-346.88 574.5,-99.38 316.25,-99.38"/>
<polygon fill="none" stroke="#ffffff" points="316.25,-317.38 316.25,-346.88 574.5,-346.88 574.5,-317.38 316.25,-317.38"/>
<text text-anchor="start" x="383.88" y="-327.68" font-family="Helvetica,sans-Serif" font-weight="bold" font-size="16.00" fill="#ffffff">raw_accounts</text>
<polygon fill="#f9d6cd" stroke="none" points="316.25,-290.12 316.25,-317.38 574.5,-317.38 574.5,-290.12 316.25,-290.12"/>
<polygon fill="none" stroke="#ffffff" points="316.25,-290.12 316.25,-317.38 574.5,-317.38 574.5,-290.12 316.25,-290.12"/>
<text text-anchor="start" x="321.25" y="-300.07" font-family="Helvetica,sans-Serif" text-decoration="underline" font-size="14.00" fill="#000000">acct_nbr &#160;</text>
<text text-anchor="start" x="389.5" y="-300.07" font-family="Helvetica,sans-Serif" font-size="14.00" fill="#000000"> [VARCHAR(18)]</text>
<polygon fill="#fcece8" stroke="none" points="316.25,-262.88 316.25,-290.12 574.5,-290.12 574.5,-262.88 316.25,-262.88"/>
<polygon fill="none" stroke="#ffffff" points="316.25,-262.88 316.25,-290.12 574.5,-290.12 574.5,-262.88 316.25,-262.88"/>
<text text-anchor="start" x="321.25" y="-272.82" font-family="Helvetica,sans-Serif" font-style="italic" font-size="14.00" fill="#868686">cust_id &#160;</text>
<text text-anchor="start" x="379" y="-272.82" font-family="Helvetica,sans-Serif" font-size="14.00" fill="#868686"> [INTEGER]</text>
<polygon fill="#fcece8" stroke="none" points="316.25,-235.62 316.25,-262.88 574.5,-262.88 574.5,-235.62 316.25,-235.62"/>
<polygon fill="none" stroke="#ffffff" points="316.25,-235.62 316.25,-262.88 574.5,-262.88 574.5,-235.62 316.25,-235.62"/>
<text text-anchor="start" x="321.25" y="-245.57" font-family="Helvetica,sans-Serif" font-size="14.00" fill="#868686">acct_type &#160;</text>
<text text-anchor="start" x="396.25" y="-245.57" font-family="Helvetica,sans-Serif" font-size="14.00" fill="#868686"> [VARCHAR(2)]</text>
<polygon fill="#fcece8" stroke="none" points="316.25,-208.38 316.25,-235.62 574.5,-235.62 574.5,-208.38 316.25,-208.38"/>
<polygon fill="none" stroke="#ffffff" points="316.25,-208.38 316.25,-235.62 574.5,-235.62 574.5,-208.38 316.25,-208.38"/>
<text text-anchor="start" x="321.25" y="-218.32" font-family="Helvetica,sans-Serif" font-size="14.00" fill="#868686">account_active &#160;</text>
<text text-anchor="start" x="433" y="-218.32" font-family="Helvetica,sans-Serif" font-size="14.00" fill="#868686"> [VARCHAR(1)]</text>
<polygon fill="#fcece8" stroke="none" points="316.25,-181.12 316.25,-208.38 574.5,-208.38 574.5,-181.12 316.25,-181.12"/>
<polygon fill="none" stroke="#ffffff" points="316.25,-181.12 316.25,-208.38 574.5,-208.38 574.5,-181.12 316.25,-181.12"/>
<text text-anchor="start" x="321.25" y="-191.07" font-family="Helvetica,sans-Serif" font-size="14.00" fill="#868686">acct_start_date &#160;</text>
<text text-anchor="start" x="435.25" y="-191.07" font-family="Helvetica,sans-Serif" font-size="14.00" fill="#868686"> [DATE]</text>
<polygon fill="#fcece8" stroke="none" points="316.25,-153.88 316.25,-181.12 574.5,-181.12 574.5,-153.88 316.25,-153.88"/>
<polygon fill="none" stroke="#ffffff" points="316.25,-153.88 316.25,-181.12 574.5,-181.12 574.5,-153.88 316.25,-153.88"/>
<text text-anchor="start" x="321.25" y="-163.82" font-family="Helvetica,sans-Serif" font-size="14.00" fill="#868686">acct_end_date &#160;</text>
<text text-anchor="start" x="429.25" y="-163.82" font-family="Helvetica,sans-Serif" font-size="14.00" fill="#868686"> [DATE]</text>
<polygon fill="#fcece8" stroke="none" points="316.25,-126.62 316.25,-153.88 574.5,-153.88 574.5,-126.62 316.25,-126.62"/>
<polygon fill="none" stroke="#ffffff" points="316.25,-126.62 316.25,-153.88 574.5,-153.88 574.5,-126.62 316.25,-126.62"/>
<text text-anchor="start" x="321.25" y="-136.57" font-family="Helvetica,sans-Serif" font-size="14.00" fill="#868686">starting_balance &#160;</text>
<text text-anchor="start" x="445" y="-136.57" font-family="Helvetica,sans-Serif" font-size="14.00" fill="#868686"> [DECIMAL(11, 3)]</text>
<polygon fill="#fcece8" stroke="none" points="316.25,-99.38 316.25,-126.62 574.5,-126.62 574.5,-99.38 316.25,-99.38"/>
<polygon fill="none" stroke="#ffffff" points="316.25,-99.38 316.25,-126.62 574.5,-126.62 574.5,-99.38 316.25,-99.38"/>
<text text-anchor="start" x="321.25" y="-109.33" font-family="Helvetica,sans-Serif" font-size="14.00" fill="#868686">ending_balance &#160;</text>
<text text-anchor="start" x="439" y="-109.33" font-family="Helvetica,sans-Serif" font-size="14.00" fill="#868686"> [DECIMAL(11, 3)]</text>
</g>
<!-- raw_customers&#45;&#45;raw_accounts -->
<g id="edge1" class="edge">
<title>raw_customers&#45;&#45;raw_accounts</title>
<path fill="none" stroke="#7f7f7f" stroke-dasharray="5,2" d="M234.85,-223.12C258.69,-223.12 283.99,-223.12 308.46,-223.12"/>
<text text-anchor="start" x="278.46" y="-209.82" font-family="Times,serif" font-size="14.00">0..N</text>
<text text-anchor="start" x="234.85" y="-209.82" font-family="Times,serif" font-size="14.00">1</text>
</g>
<!-- raw_transactions -->
<g id="node3" class="node">
<title>raw_transactions</title>
<polygon fill="#f37843" stroke="none" points="663.5,-72.12 663.5,-374.12 900.75,-374.12 900.75,-72.12 663.5,-72.12"/>
<polygon fill="none" stroke="#ffffff" points="663.5,-344.62 663.5,-374.12 900.75,-374.12 900.75,-344.62 663.5,-344.62"/>
<text text-anchor="start" x="704.88" y="-354.93" font-family="Helvetica,sans-Serif" font-weight="bold" font-size="16.00" fill="#ffffff">raw_transactions</text>
<polygon fill="#f9d6cd" stroke="none" points="663.5,-317.38 663.5,-344.62 900.75,-344.62 900.75,-317.38 663.5,-317.38"/>
<polygon fill="none" stroke="#ffffff" points="663.5,-317.38 663.5,-344.62 900.75,-344.62 900.75,-317.38 663.5,-317.38"/>
<text text-anchor="start" x="668.5" y="-327.32" font-family="Helvetica,sans-Serif" text-decoration="underline" font-size="14.00" fill="#000000">tran_id &#160;</text>
<text text-anchor="start" x="725.5" y="-327.32" font-family="Helvetica,sans-Serif" font-size="14.00" fill="#000000"> [INTEGER]</text>
<polygon fill="#fcece8" stroke="none" points="663.5,-290.12 663.5,-317.38 900.75,-317.38 900.75,-290.12 663.5,-290.12"/>
<polygon fill="none" stroke="#ffffff" points="663.5,-290.12 663.5,-317.38 900.75,-317.38 900.75,-290.12 663.5,-290.12"/>
<text text-anchor="start" x="668.5" y="-300.07" font-family="Helvetica,sans-Serif" font-style="italic" font-size="14.00" fill="#868686">acct_nbr &#160;</text>
<text text-anchor="start" x="736.75" y="-300.07" font-family="Helvetica,sans-Serif" font-size="14.00" fill="#868686"> [VARCHAR(18)]</text>
<polygon fill="#fcece8" stroke="none" points="663.5,-262.88 663.5,-290.12 900.75,-290.12 900.75,-262.88 663.5,-262.88"/>
<polygon fill="none" stroke="#ffffff" points="663.5,-262.88 663.5,-290.12 900.75,-290.12 900.75,-262.88 663.5,-262.88"/>
<text text-anchor="start" x="668.5" y="-272.82" font-family="Helvetica,sans-Serif" font-size="14.00" fill="#868686">tran_amt &#160;</text>
<text text-anchor="start" x="739.75" y="-272.82" font-family="Helvetica,sans-Serif" font-size="14.00" fill="#868686"> [DECIMAL(9, 2)]</text>
<polygon fill="#fcece8" stroke="none" points="663.5,-235.62 663.5,-262.88 900.75,-262.88 900.75,-235.62 663.5,-235.62"/>
<polygon fill="none" stroke="#ffffff" points="663.5,-235.62 663.5,-262.88 900.75,-262.88 900.75,-235.62 663.5,-235.62"/>
<text text-anchor="start" x="668.5" y="-245.57" font-family="Helvetica,sans-Serif" font-size="14.00" fill="#868686">principal_amt &#160;</text>
<text text-anchor="start" x="771.25" y="-245.57" font-family="Helvetica,sans-Serif" font-size="14.00" fill="#868686"> [DECIMAL(15, 2)]</text>
<polygon fill="#fcece8" stroke="none" points="663.5,-208.38 663.5,-235.62 900.75,-235.62 900.75,-208.38 663.5,-208.38"/>
<polygon fill="none" stroke="#ffffff" points="663.5,-208.38 663.5,-235.62 900.75,-235.62 900.75,-208.38 663.5,-208.38"/>
<text text-anchor="start" x="668.5" y="-218.32" font-family="Helvetica,sans-Serif" font-size="14.00" fill="#868686">interest_amt &#160;</text>
<text text-anchor="start" x="763.75" y="-218.32" font-family="Helvetica,sans-Serif" font-size="14.00" fill="#868686"> [DECIMAL(11, 3)]</text>
<polygon fill="#fcece8" stroke="none" points="663.5,-181.12 663.5,-208.38 900.75,-208.38 900.75,-181.12 663.5,-181.12"/>
<polygon fill="none" stroke="#ffffff" points="663.5,-181.12 663.5,-208.38 900.75,-208.38 900.75,-181.12 663.5,-181.12"/>
<text text-anchor="start" x="668.5" y="-191.07" font-family="Helvetica,sans-Serif" font-size="14.00" fill="#868686">new_balance &#160;</text>
<text text-anchor="start" x="766.75" y="-191.07" font-family="Helvetica,sans-Serif" font-size="14.00" fill="#868686"> [DECIMAL(9, 2)]</text>
<polygon fill="#fcece8" stroke="none" points="663.5,-153.88 663.5,-181.12 900.75,-181.12 900.75,-153.88 663.5,-153.88"/>
<polygon fill="none" stroke="#ffffff" points="663.5,-153.88 663.5,-181.12 900.75,-181.12 900.75,-153.88 663.5,-153.88"/>
<text text-anchor="start" x="668.5" y="-163.82" font-family="Helvetica,sans-Serif" font-size="14.00" fill="#868686">tran_date &#160;</text>
<text text-anchor="start" x="743.5" y="-163.82" font-family="Helvetica,sans-Serif" font-size="14.00" fill="#868686"> [DATE]</text>
<polygon fill="#fcece8" stroke="none" points="663.5,-126.62 663.5,-153.88 900.75,-153.88 900.75,-126.62 663.5,-126.62"/>
<polygon fill="none" stroke="#ffffff" points="663.5,-126.62 663.5,-153.88 900.75,-153.88 900.75,-126.62 663.5,-126.62"/>
<text text-anchor="start" x="668.5" y="-136.57" font-family="Helvetica,sans-Serif" font-size="14.00" fill="#868686">tran_time &#160;</text>
<text text-anchor="start" x="743.5" y="-136.57" font-family="Helvetica,sans-Serif" font-size="14.00" fill="#868686"> [INTEGER]</text>
<polygon fill="#fcece8" stroke="none" points="663.5,-99.38 663.5,-126.62 900.75,-126.62 900.75,-99.38 663.5,-99.38"/>
<polygon fill="none" stroke="#ffffff" points="663.5,-99.38 663.5,-126.62 900.75,-126.62 900.75,-99.38 663.5,-99.38"/>
<text text-anchor="start" x="668.5" y="-109.33" font-family="Helvetica,sans-Serif" font-size="14.00" fill="#868686">channel &#160;</text>
<text text-anchor="start" x="732.25" y="-109.33" font-family="Helvetica,sans-Serif" font-size="14.00" fill="#868686"> [VARCHAR(1)]</text>
<polygon fill="#fcece8" stroke="none" points="663.5,-72.12 663.5,-99.38 900.75,-99.38 900.75,-72.12 663.5,-72.12"/>
<polygon fill="none" stroke="#ffffff" points="663.5,-72.12 663.5,-99.38 900.75,-99.38 900.75,-72.12 663.5,-72.12"/>
<text text-anchor="start" x="668.5" y="-82.08" font-family="Helvetica,sans-Serif" font-size="14.00" fill="#868686">tran_code &#160;</text>
<text text-anchor="start" x="745.75" y="-82.08" font-family="Helvetica,sans-Serif" font-size="14.00" fill="#868686"> [VARCHAR(2)]</text>
</g>
<!-- raw_accounts&#45;&#45;raw_transactions -->
<g id="edge2" class="edge">
<title>raw_accounts&#45;&#45;raw_transactions</title>
<path fill="none" stroke="#7f7f7f" stroke-dasharray="5,2" d="M582.05,-223.12C606.33,-223.12 631.54,-223.12 655.53,-223.12"/>
<text text-anchor="start" x="625.53" y="-209.82" font-family="Times,serif" font-size="14.00">0..N</text>
<text text-anchor="start" x="582.05" y="-209.82" font-family="Times,serif" font-size="14.00">1</text>
</g>
</g>
</svg>
