<?xml version="1.0" encoding="UTF-8" standalone="no"?>
<!DOCTYPE svg PUBLIC "-//W3C//DTD SVG 1.1//EN"
 "http://www.w3.org/Graphics/SVG/1.1/DTD/svg11.dtd">
<!-- Generated by graphviz version 8.0.4 (20230422.2207)
 -->
<!-- Pages: 1 -->
<svg width="465pt" height="286pt"
 viewBox="0.00 0.00 465.00 286.40" xmlns="http://www.w3.org/2000/svg" xmlns:xlink="http://www.w3.org/1999/xlink">
<g id="graph0" class="graph" transform="scale(1 1) rotate(0) translate(4 282.4)">
<polygon fill="white" stroke="none" points="-4,4 -4,-282.4 461,-282.4 461,4 -4,4"/>
<!-- dimension: customers -->
<g id="node1" class="node">
<title>dimension: customers</title>
<polygon fill="#f37843" stroke="none" points="8,-17.4 8,-261 179,-261 179,-17.4 8,-17.4"/>
<polygon fill="none" stroke="#ffffff" points="8,-231.8 8,-261 179,-261 179,-231.8 8,-231.8"/>
<text text-anchor="start" x="16" y="-241.8" font-family="Helvetica,sans-Serif" font-weight="bold" font-size="16.00" fill="#ffffff">dimension: customers</text>
<polygon fill="#f9d6cd" stroke="none" points="8,-205 8,-231.8 179,-231.8 179,-205 8,-205"/>
<polygon fill="none" stroke="#ffffff" points="8,-205 8,-231.8 179,-231.8 179,-205 8,-205"/>
<text text-anchor="start" x="13" y="-214.5" font-family="Helvetica,sans-Serif" text-decoration="underline" font-size="14.00" fill="#000000">customer_id &#160;</text>
<text text-anchor="start" x="96" y="-214.5" font-family="Helvetica,sans-Serif" font-size="14.00" fill="#000000"> [int]</text>
<polygon fill="#fcece8" stroke="none" points="8,-178.2 8,-205 179,-205 179,-178.2 8,-178.2"/>
<polygon fill="none" stroke="#ffffff" points="8,-178.2 8,-205 179,-205 179,-178.2 8,-178.2"/>
<text text-anchor="start" x="13" y="-187.7" font-family="Helvetica,sans-Serif" font-size="14.00" fill="#868686">first_name &#160;</text>
<text text-anchor="start" x="85" y="-187.7" font-family="Helvetica,sans-Serif" font-size="14.00" fill="#868686"> [varchar]</text>
<polygon fill="#fcece8" stroke="none" points="8,-151.4 8,-178.2 179,-178.2 179,-151.4 8,-151.4"/>
<polygon fill="none" stroke="#ffffff" points="8,-151.4 8,-178.2 179,-178.2 179,-151.4 8,-151.4"/>
<text text-anchor="start" x="13" y="-160.9" font-family="Helvetica,sans-Serif" font-size="14.00" fill="#868686">last_name &#160;</text>
<text text-anchor="start" x="84" y="-160.9" font-family="Helvetica,sans-Serif" font-size="14.00" fill="#868686"> [varchar]</text>
<polygon fill="#fcece8" stroke="none" points="8,-124.6 8,-151.4 179,-151.4 179,-124.6 8,-124.6"/>
<polygon fill="none" stroke="#ffffff" points="8,-124.6 8,-151.4 179,-151.4 179,-124.6 8,-124.6"/>
<text text-anchor="start" x="13" y="-134.1" font-family="Helvetica,sans-Serif" font-size="14.00" fill="#868686">email &#160;</text>
<text text-anchor="start" x="54" y="-134.1" font-family="Helvetica,sans-Serif" font-size="14.00" fill="#868686"> [varchar]</text>
<polygon fill="#fcece8" stroke="none" points="8,-97.8 8,-124.6 179,-124.6 179,-97.8 8,-97.8"/>
<polygon fill="none" stroke="#ffffff" points="8,-97.8 8,-124.6 179,-124.6 179,-97.8 8,-97.8"/>
<text text-anchor="start" x="13" y="-107.3" font-family="Helvetica,sans-Serif" font-size="14.00" fill="#868686">first_order &#160;</text>
<text text-anchor="start" x="82" y="-107.3" font-family="Helvetica,sans-Serif" font-size="14.00" fill="#868686"> [date]</text>
<polygon fill="#fcece8" stroke="none" points="8,-71 8,-97.8 179,-97.8 179,-71 8,-71"/>
<polygon fill="none" stroke="#ffffff" points="8,-71 8,-97.8 179,-97.8 179,-71 8,-71"/>
<text text-anchor="start" x="13" y="-80.5" font-family="Helvetica,sans-Serif" font-size="14.00" fill="#868686">most_recent_order &#160;</text>
<text text-anchor="start" x="136" y="-80.5" font-family="Helvetica,sans-Serif" font-size="14.00" fill="#868686"> [date]</text>
<polygon fill="#fcece8" stroke="none" points="8,-44.2 8,-71 179,-71 179,-44.2 8,-44.2"/>
<polygon fill="none" stroke="#ffffff" points="8,-44.2 8,-71 179,-71 179,-44.2 8,-44.2"/>
<text text-anchor="start" x="13" y="-53.7" font-family="Helvetica,sans-Serif" font-size="14.00" fill="#868686">number_of_orders &#160;</text>
<text text-anchor="start" x="133" y="-53.7" font-family="Helvetica,sans-Serif" font-size="14.00" fill="#868686"> [int]</text>
<polygon fill="#fcece8" stroke="none" points="8,-17.4 8,-44.2 179,-44.2 179,-17.4 8,-17.4"/>
<polygon fill="none" stroke="#ffffff" points="8,-17.4 8,-44.2 179,-44.2 179,-17.4 8,-17.4"/>
<text text-anchor="start" x="13" y="-26.9" font-family="Helvetica,sans-Serif" font-size="14.00" fill="#868686">total_order_amount &#160;</text>
<text text-anchor="start" x="140" y="-26.9" font-family="Helvetica,sans-Serif" font-size="14.00" fill="#868686"> [int]</text>
</g>
<!-- fact: orders -->
<g id="node2" class="node">
<title>fact: orders</title>
<polygon fill="#f37843" stroke="none" points="268,-4 268,-274.4 449,-274.4 449,-4 268,-4"/>
<polygon fill="none" stroke="#ffffff" points="268,-245.2 268,-274.4 449,-274.4 449,-245.2 268,-245.2"/>
<text text-anchor="start" x="319" y="-255.2" font-family="Helvetica,sans-Serif" font-weight="bold" font-size="16.00" fill="#ffffff">fact: orders</text>
<polygon fill="#f9d6cd" stroke="none" points="268,-218.4 268,-245.2 449,-245.2 449,-218.4 268,-218.4"/>
<polygon fill="none" stroke="#ffffff" points="268,-218.4 268,-245.2 449,-245.2 449,-218.4 268,-218.4"/>
<text text-anchor="start" x="273" y="-227.9" font-family="Helvetica,sans-Serif" text-decoration="underline" font-size="14.00" fill="#000000">order_id &#160;</text>
<text text-anchor="start" x="331" y="-227.9" font-family="Helvetica,sans-Serif" font-size="14.00" fill="#000000"> [int]</text>
<polygon fill="#fcece8" stroke="none" points="268,-191.6 268,-218.4 449,-218.4 449,-191.6 268,-191.6"/>
<polygon fill="none" stroke="#ffffff" points="268,-191.6 268,-218.4 449,-218.4 449,-191.6 268,-191.6"/>
<text text-anchor="start" x="273" y="-201.1" font-family="Helvetica,sans-Serif" font-style="italic" font-size="14.00" fill="#868686">customer_id &#160;</text>
<text text-anchor="start" x="356" y="-201.1" font-family="Helvetica,sans-Serif" font-size="14.00" fill="#868686"> [int]</text>
<polygon fill="#fcece8" stroke="none" points="268,-164.8 268,-191.6 449,-191.6 449,-164.8 268,-164.8"/>
<polygon fill="none" stroke="#ffffff" points="268,-164.8 268,-191.6 449,-191.6 449,-164.8 268,-164.8"/>
<text text-anchor="start" x="273" y="-174.3" font-family="Helvetica,sans-Serif" font-size="14.00" fill="#868686">order_date &#160;</text>
<text text-anchor="start" x="347" y="-174.3" font-family="Helvetica,sans-Serif" font-size="14.00" fill="#868686"> [date]</text>
<polygon fill="#fcece8" stroke="none" points="268,-138 268,-164.8 449,-164.8 449,-138 268,-138"/>
<polygon fill="none" stroke="#ffffff" points="268,-138 268,-164.8 449,-164.8 449,-138 268,-138"/>
<text text-anchor="start" x="273" y="-147.5" font-family="Helvetica,sans-Serif" font-size="14.00" fill="#868686">status &#160;</text>
<text text-anchor="start" x="317" y="-147.5" font-family="Helvetica,sans-Serif" font-size="14.00" fill="#868686"> [varchar]</text>
<polygon fill="#fcece8" stroke="none" points="268,-111.2 268,-138 449,-138 449,-111.2 268,-111.2"/>
<polygon fill="none" stroke="#ffffff" points="268,-111.2 268,-138 449,-138 449,-111.2 268,-111.2"/>
<text text-anchor="start" x="273" y="-120.7" font-family="Helvetica,sans-Serif" font-size="14.00" fill="#868686">amount &#160;</text>
<text text-anchor="start" x="327" y="-120.7" font-family="Helvetica,sans-Serif" font-size="14.00" fill="#868686"> [int]</text>
<polygon fill="#fcece8" stroke="none" points="268,-84.4 268,-111.2 449,-111.2 449,-84.4 268,-84.4"/>
<polygon fill="none" stroke="#ffffff" points="268,-84.4 268,-111.2 449,-111.2 449,-84.4 268,-84.4"/>
<text text-anchor="start" x="273" y="-93.9" font-family="Helvetica,sans-Serif" font-size="14.00" fill="#868686">credit_card_amount &#160;</text>
<text text-anchor="start" x="402" y="-93.9" font-family="Helvetica,sans-Serif" font-size="14.00" fill="#868686"> [int]</text>
<polygon fill="#fcece8" stroke="none" points="268,-57.6 268,-84.4 449,-84.4 449,-57.6 268,-57.6"/>
<polygon fill="none" stroke="#ffffff" points="268,-57.6 268,-84.4 449,-84.4 449,-57.6 268,-57.6"/>
<text text-anchor="start" x="273" y="-67.1" font-family="Helvetica,sans-Serif" font-size="14.00" fill="#868686">coupon_amount &#160;</text>
<text text-anchor="start" x="380" y="-67.1" font-family="Helvetica,sans-Serif" font-size="14.00" fill="#868686"> [int]</text>
<polygon fill="#fcece8" stroke="none" points="268,-30.8 268,-57.6 449,-57.6 449,-30.8 268,-30.8"/>
<polygon fill="none" stroke="#ffffff" points="268,-30.8 268,-57.6 449,-57.6 449,-30.8 268,-30.8"/>
<text text-anchor="start" x="273" y="-40.3" font-family="Helvetica,sans-Serif" font-size="14.00" fill="#868686">bank_transfer_amount &#160;</text>
<text text-anchor="start" x="418" y="-40.3" font-family="Helvetica,sans-Serif" font-size="14.00" fill="#868686"> [int]</text>
<polygon fill="#fcece8" stroke="none" points="268,-4 268,-30.8 449,-30.8 449,-4 268,-4"/>
<polygon fill="none" stroke="#ffffff" points="268,-4 268,-30.8 449,-30.8 449,-4 268,-4"/>
<text text-anchor="start" x="273" y="-13.5" font-family="Helvetica,sans-Serif" font-size="14.00" fill="#868686">gift_card_amount &#160;</text>
<text text-anchor="start" x="387" y="-13.5" font-family="Helvetica,sans-Serif" font-size="14.00" fill="#868686"> [int]</text>
</g>
<!-- dimension: customers&#45;&#45;fact: orders -->
<g id="edge1" class="edge">
<title>dimension: customers&#45;&#45;fact: orders</title>
<path fill="none" stroke="#7f7f7f" stroke-dasharray="5,2" d="M186.85,-139.2C210.54,-139.2 236.08,-139.2 260.01,-139.2"/>
<text text-anchor="start" x="236.01" y="-125.9" font-family="Times,serif" font-size="14.00">0..N</text>
<text text-anchor="start" x="186.85" y="-125.9" font-family="Times,serif" font-size="14.00">1</text>
</g>
</g>
</svg>
