<?xml version="1.0" encoding="UTF-8" standalone="no"?>
<!DOCTYPE svg PUBLIC "-//W3C//DTD SVG 1.1//EN"
 "http://www.w3.org/Graphics/SVG/1.1/DTD/svg11.dtd">
<!-- Generated by graphviz version 8.0.4 (20230422.2207)
 -->
<!-- Pages: 1 -->
<svg width="842pt" height="447pt"
 viewBox="0.00 0.00 842.00 447.20" xmlns="http://www.w3.org/2000/svg" xmlns:xlink="http://www.w3.org/1999/xlink">
<g id="graph0" class="graph" transform="scale(1 1) rotate(0) translate(4 443.2)">
<polygon fill="white" stroke="none" points="-4,4 -4,-443.2 838,-443.2 838,4 -4,4"/>
<!-- raw_customers -->
<g id="node1" class="node">
<title>raw_customers</title>
<polygon fill="#f37843" stroke="none" points="8,-4 8,-435.2 207,-435.2 207,-4 8,-4"/>
<polygon fill="none" stroke="#ffffff" points="8,-406 8,-435.2 207,-435.2 207,-406 8,-406"/>
<text text-anchor="start" x="54" y="-416" font-family="Helvetica,sans-Serif" font-weight="bold" font-size="16.00" fill="#ffffff">raw_customers</text>
<polygon fill="#f9d6cd" stroke="none" points="8,-379.2 8,-406 207,-406 207,-379.2 8,-379.2"/>
<polygon fill="none" stroke="#ffffff" points="8,-379.2 8,-406 207,-406 207,-379.2 8,-379.2"/>
<text text-anchor="start" x="13" y="-388.7" font-family="Helvetica,sans-Serif" text-decoration="underline" font-size="14.00" fill="#000000">cust_id &#160;</text>
<text text-anchor="start" x="64" y="-388.7" font-family="Helvetica,sans-Serif" font-size="14.00" fill="#000000"> [INTEGER]</text>
<polygon fill="#fcece8" stroke="none" points="8,-352.4 8,-379.2 207,-379.2 207,-352.4 8,-352.4"/>
<polygon fill="none" stroke="#ffffff" points="8,-352.4 8,-379.2 207,-379.2 207,-352.4 8,-352.4"/>
<text text-anchor="start" x="13" y="-361.9" font-family="Helvetica,sans-Serif" font-size="14.00" fill="#868686">income &#160;</text>
<text text-anchor="start" x="65" y="-361.9" font-family="Helvetica,sans-Serif" font-size="14.00" fill="#868686"> [DECIMAL(15, 1)]</text>
<polygon fill="#fcece8" stroke="none" points="8,-325.6 8,-352.4 207,-352.4 207,-325.6 8,-325.6"/>
<polygon fill="none" stroke="#ffffff" points="8,-325.6 8,-352.4 207,-352.4 207,-325.6 8,-325.6"/>
<text text-anchor="start" x="13" y="-335.1" font-family="Helvetica,sans-Serif" font-size="14.00" fill="#868686">age &#160;</text>
<text text-anchor="start" x="43" y="-335.1" font-family="Helvetica,sans-Serif" font-size="14.00" fill="#868686"> [INTEGER]</text>
<polygon fill="#fcece8" stroke="none" points="8,-298.8 8,-325.6 207,-325.6 207,-298.8 8,-298.8"/>
<polygon fill="none" stroke="#ffffff" points="8,-298.8 8,-325.6 207,-325.6 207,-298.8 8,-298.8"/>
<text text-anchor="start" x="13" y="-308.3" font-family="Helvetica,sans-Serif" font-size="14.00" fill="#868686">years_with_bank &#160;</text>
<text text-anchor="start" x="124" y="-308.3" font-family="Helvetica,sans-Serif" font-size="14.00" fill="#868686"> [INTEGER]</text>
<polygon fill="#fcece8" stroke="none" points="8,-272 8,-298.8 207,-298.8 207,-272 8,-272"/>
<polygon fill="none" stroke="#ffffff" points="8,-272 8,-298.8 207,-298.8 207,-272 8,-272"/>
<text text-anchor="start" x="13" y="-281.5" font-family="Helvetica,sans-Serif" font-size="14.00" fill="#868686">nbr_children &#160;</text>
<text text-anchor="start" x="96" y="-281.5" font-family="Helvetica,sans-Serif" font-size="14.00" fill="#868686"> [INTEGER]</text>
<polygon fill="#fcece8" stroke="none" points="8,-245.2 8,-272 207,-272 207,-245.2 8,-245.2"/>
<polygon fill="none" stroke="#ffffff" points="8,-245.2 8,-272 207,-272 207,-245.2 8,-245.2"/>
<text text-anchor="start" x="13" y="-254.7" font-family="Helvetica,sans-Serif" font-size="14.00" fill="#868686">gender &#160;</text>
<text text-anchor="start" x="63" y="-254.7" font-family="Helvetica,sans-Serif" font-size="14.00" fill="#868686"> [VARCHAR(1)]</text>
<polygon fill="#fcece8" stroke="none" points="8,-218.4 8,-245.2 207,-245.2 207,-218.4 8,-218.4"/>
<polygon fill="none" stroke="#ffffff" points="8,-218.4 8,-245.2 207,-245.2 207,-218.4 8,-218.4"/>
<text text-anchor="start" x="13" y="-227.9" font-family="Helvetica,sans-Serif" font-size="14.00" fill="#868686">marital_status &#160;</text>
<text text-anchor="start" x="107" y="-227.9" font-family="Helvetica,sans-Serif" font-size="14.00" fill="#868686"> [VARCHAR(1)]</text>
<polygon fill="#fcece8" stroke="none" points="8,-191.6 8,-218.4 207,-218.4 207,-191.6 8,-191.6"/>
<polygon fill="none" stroke="#ffffff" points="8,-191.6 8,-218.4 207,-218.4 207,-191.6 8,-191.6"/>
<text text-anchor="start" x="13" y="-201.1" font-family="Helvetica,sans-Serif" font-size="14.00" fill="#868686">name_prefix &#160;</text>
<text text-anchor="start" x="96" y="-201.1" font-family="Helvetica,sans-Serif" font-size="14.00" fill="#868686"> [VARCHAR(4)]</text>
<polygon fill="#fcece8" stroke="none" points="8,-164.8 8,-191.6 207,-191.6 207,-164.8 8,-164.8"/>
<polygon fill="none" stroke="#ffffff" points="8,-164.8 8,-191.6 207,-191.6 207,-164.8 8,-164.8"/>
<text text-anchor="start" x="13" y="-174.3" font-family="Helvetica,sans-Serif" font-size="14.00" fill="#868686">first_name &#160;</text>
<text text-anchor="start" x="85" y="-174.3" font-family="Helvetica,sans-Serif" font-size="14.00" fill="#868686"> [VARCHAR(12)]</text>
<polygon fill="#fcece8" stroke="none" points="8,-138 8,-164.8 207,-164.8 207,-138 8,-138"/>
<polygon fill="none" stroke="#ffffff" points="8,-138 8,-164.8 207,-164.8 207,-138 8,-138"/>
<text text-anchor="start" x="13" y="-147.5" font-family="Helvetica,sans-Serif" font-size="14.00" fill="#868686">last_name &#160;</text>
<text text-anchor="start" x="84" y="-147.5" font-family="Helvetica,sans-Serif" font-size="14.00" fill="#868686"> [VARCHAR(15)]</text>
<polygon fill="#fcece8" stroke="none" points="8,-111.2 8,-138 207,-138 207,-111.2 8,-111.2"/>
<polygon fill="none" stroke="#ffffff" points="8,-111.2 8,-138 207,-138 207,-111.2 8,-111.2"/>
<text text-anchor="start" x="13" y="-120.7" font-family="Helvetica,sans-Serif" font-size="14.00" fill="#868686">street_nbr &#160;</text>
<text text-anchor="start" x="82" y="-120.7" font-family="Helvetica,sans-Serif" font-size="14.00" fill="#868686"> [VARCHAR(8)]</text>
<polygon fill="#fcece8" stroke="none" points="8,-84.4 8,-111.2 207,-111.2 207,-84.4 8,-84.4"/>
<polygon fill="none" stroke="#ffffff" points="8,-84.4 8,-111.2 207,-111.2 207,-84.4 8,-84.4"/>
<text text-anchor="start" x="13" y="-93.9" font-family="Helvetica,sans-Serif" font-size="14.00" fill="#868686">street_name &#160;</text>
<text text-anchor="start" x="97" y="-93.9" font-family="Helvetica,sans-Serif" font-size="14.00" fill="#868686"> [VARCHAR(15)]</text>
<polygon fill="#fcece8" stroke="none" points="8,-57.6 8,-84.4 207,-84.4 207,-57.6 8,-57.6"/>
<polygon fill="none" stroke="#ffffff" points="8,-57.6 8,-84.4 207,-84.4 207,-57.6 8,-57.6"/>
<text text-anchor="start" x="13" y="-67.1" font-family="Helvetica,sans-Serif" font-size="14.00" fill="#868686">postal_code &#160;</text>
<text text-anchor="start" x="95" y="-67.1" font-family="Helvetica,sans-Serif" font-size="14.00" fill="#868686"> [VARCHAR(5)]</text>
<polygon fill="#fcece8" stroke="none" points="8,-30.8 8,-57.6 207,-57.6 207,-30.8 8,-30.8"/>
<polygon fill="none" stroke="#ffffff" points="8,-30.8 8,-57.6 207,-57.6 207,-30.8 8,-30.8"/>
<text text-anchor="start" x="13" y="-40.3" font-family="Helvetica,sans-Serif" font-size="14.00" fill="#868686">city_name &#160;</text>
<text text-anchor="start" x="84" y="-40.3" font-family="Helvetica,sans-Serif" font-size="14.00" fill="#868686"> [VARCHAR(16)]</text>
<polygon fill="#fcece8" stroke="none" points="8,-4 8,-30.8 207,-30.8 207,-4 8,-4"/>
<polygon fill="none" stroke="#ffffff" points="8,-4 8,-30.8 207,-30.8 207,-4 8,-4"/>
<text text-anchor="start" x="13" y="-13.5" font-family="Helvetica,sans-Serif" font-size="14.00" fill="#868686">state_code &#160;</text>
<text text-anchor="start" x="88" y="-13.5" font-family="Helvetica,sans-Serif" font-size="14.00" fill="#868686"> [VARCHAR(2)]</text>
</g>
<!-- raw_accounts -->
<g id="node2" class="node">
<title>raw_accounts</title>
<polygon fill="#f37843" stroke="none" points="296,-97.8 296,-341.4 525,-341.4 525,-97.8 296,-97.8"/>
<polygon fill="none" stroke="#ffffff" points="296,-312.2 296,-341.4 525,-341.4 525,-312.2 296,-312.2"/>
<text text-anchor="start" x="361.5" y="-322.2" font-family="Helvetica,sans-Serif" font-weight="bold" font-size="16.00" fill="#ffffff">raw_accounts</text>
<polygon fill="#f9d6cd" stroke="none" points="296,-285.4 296,-312.2 525,-312.2 525,-285.4 296,-285.4"/>
<polygon fill="none" stroke="#ffffff" points="296,-285.4 296,-312.2 525,-312.2 525,-285.4 296,-285.4"/>
<text text-anchor="start" x="301" y="-294.9" font-family="Helvetica,sans-Serif" text-decoration="underline" font-size="14.00" fill="#000000">acct_nbr &#160;</text>
<text text-anchor="start" x="361" y="-294.9" font-family="Helvetica,sans-Serif" font-size="14.00" fill="#000000"> [VARCHAR(18)]</text>
<polygon fill="#fcece8" stroke="none" points="296,-258.6 296,-285.4 525,-285.4 525,-258.6 296,-258.6"/>
<polygon fill="none" stroke="#ffffff" points="296,-258.6 296,-285.4 525,-285.4 525,-258.6 296,-258.6"/>
<text text-anchor="start" x="301" y="-268.1" font-family="Helvetica,sans-Serif" font-style="italic" font-size="14.00" fill="#868686">cust_id &#160;</text>
<text text-anchor="start" x="352" y="-268.1" font-family="Helvetica,sans-Serif" font-size="14.00" fill="#868686"> [INTEGER]</text>
<polygon fill="#fcece8" stroke="none" points="296,-231.8 296,-258.6 525,-258.6 525,-231.8 296,-231.8"/>
<polygon fill="none" stroke="#ffffff" points="296,-231.8 296,-258.6 525,-258.6 525,-231.8 296,-231.8"/>
<text text-anchor="start" x="301" y="-241.3" font-family="Helvetica,sans-Serif" font-size="14.00" fill="#868686">acct_type &#160;</text>
<text text-anchor="start" x="367" y="-241.3" font-family="Helvetica,sans-Serif" font-size="14.00" fill="#868686"> [VARCHAR(2)]</text>
<polygon fill="#fcece8" stroke="none" points="296,-205 296,-231.8 525,-231.8 525,-205 296,-205"/>
<polygon fill="none" stroke="#ffffff" points="296,-205 296,-231.8 525,-231.8 525,-205 296,-205"/>
<text text-anchor="start" x="301" y="-214.5" font-family="Helvetica,sans-Serif" font-size="14.00" fill="#868686">account_active &#160;</text>
<text text-anchor="start" x="400" y="-214.5" font-family="Helvetica,sans-Serif" font-size="14.00" fill="#868686"> [VARCHAR(1)]</text>
<polygon fill="#fcece8" stroke="none" points="296,-178.2 296,-205 525,-205 525,-178.2 296,-178.2"/>
<polygon fill="none" stroke="#ffffff" points="296,-178.2 296,-205 525,-205 525,-178.2 296,-178.2"/>
<text text-anchor="start" x="301" y="-187.7" font-family="Helvetica,sans-Serif" font-size="14.00" fill="#868686">acct_start_date &#160;</text>
<text text-anchor="start" x="403" y="-187.7" font-family="Helvetica,sans-Serif" font-size="14.00" fill="#868686"> [DATE]</text>
<polygon fill="#fcece8" stroke="none" points="296,-151.4 296,-178.2 525,-178.2 525,-151.4 296,-151.4"/>
<polygon fill="none" stroke="#ffffff" points="296,-151.4 296,-178.2 525,-178.2 525,-151.4 296,-151.4"/>
<text text-anchor="start" x="301" y="-160.9" font-family="Helvetica,sans-Serif" font-size="14.00" fill="#868686">acct_end_date &#160;</text>
<text text-anchor="start" x="399" y="-160.9" font-family="Helvetica,sans-Serif" font-size="14.00" fill="#868686"> [DATE]</text>
<polygon fill="#fcece8" stroke="none" points="296,-124.6 296,-151.4 525,-151.4 525,-124.6 296,-124.6"/>
<polygon fill="none" stroke="#ffffff" points="296,-124.6 296,-151.4 525,-151.4 525,-124.6 296,-124.6"/>
<text text-anchor="start" x="301" y="-134.1" font-family="Helvetica,sans-Serif" font-size="14.00" fill="#868686">starting_balance &#160;</text>
<text text-anchor="start" x="410" y="-134.1" font-family="Helvetica,sans-Serif" font-size="14.00" fill="#868686"> [DECIMAL(11, 3)]</text>
<polygon fill="#fcece8" stroke="none" points="296,-97.8 296,-124.6 525,-124.6 525,-97.8 296,-97.8"/>
<polygon fill="none" stroke="#ffffff" points="296,-97.8 296,-124.6 525,-124.6 525,-97.8 296,-97.8"/>
<text text-anchor="start" x="301" y="-107.3" font-family="Helvetica,sans-Serif" font-size="14.00" fill="#868686">ending_balance &#160;</text>
<text text-anchor="start" x="406" y="-107.3" font-family="Helvetica,sans-Serif" font-size="14.00" fill="#868686"> [DECIMAL(11, 3)]</text>
</g>
<!-- raw_customers&#45;&#45;raw_accounts -->
<g id="edge1" class="edge">
<title>raw_customers&#45;&#45;raw_accounts</title>
<path fill="none" stroke="#7f7f7f" stroke-dasharray="5,2" d="M214.62,-219.6C238.4,-219.6 263.81,-219.6 288.15,-219.6"/>
<text text-anchor="start" x="264.15" y="-206.3" font-family="Times,serif" font-size="14.00">0..N</text>
<text text-anchor="start" x="214.62" y="-206.3" font-family="Times,serif" font-size="14.00">1</text>
</g>
<!-- raw_transactions -->
<g id="node3" class="node">
<title>raw_transactions</title>
<polygon fill="#f37843" stroke="none" points="614,-71 614,-368.2 826,-368.2 826,-71 614,-71"/>
<polygon fill="none" stroke="#ffffff" points="614,-339 614,-368.2 826,-368.2 826,-339 614,-339"/>
<text text-anchor="start" x="660" y="-349" font-family="Helvetica,sans-Serif" font-weight="bold" font-size="16.00" fill="#ffffff">raw_transactions</text>
<polygon fill="#f9d6cd" stroke="none" points="614,-312.2 614,-339 826,-339 826,-312.2 614,-312.2"/>
<polygon fill="none" stroke="#ffffff" points="614,-312.2 614,-339 826,-339 826,-312.2 614,-312.2"/>
<text text-anchor="start" x="619" y="-321.7" font-family="Helvetica,sans-Serif" text-decoration="underline" font-size="14.00" fill="#000000">tran_id &#160;</text>
<text text-anchor="start" x="668" y="-321.7" font-family="Helvetica,sans-Serif" font-size="14.00" fill="#000000"> [INTEGER]</text>
<polygon fill="#fcece8" stroke="none" points="614,-285.4 614,-312.2 826,-312.2 826,-285.4 614,-285.4"/>
<polygon fill="none" stroke="#ffffff" points="614,-285.4 614,-312.2 826,-312.2 826,-285.4 614,-285.4"/>
<text text-anchor="start" x="619" y="-294.9" font-family="Helvetica,sans-Serif" font-style="italic" font-size="14.00" fill="#868686">acct_nbr &#160;</text>
<text text-anchor="start" x="679" y="-294.9" font-family="Helvetica,sans-Serif" font-size="14.00" fill="#868686"> [VARCHAR(18)]</text>
<polygon fill="#fcece8" stroke="none" points="614,-258.6 614,-285.4 826,-285.4 826,-258.6 614,-258.6"/>
<polygon fill="none" stroke="#ffffff" points="614,-258.6 614,-285.4 826,-285.4 826,-258.6 614,-258.6"/>
<text text-anchor="start" x="619" y="-268.1" font-family="Helvetica,sans-Serif" font-size="14.00" fill="#868686">tran_amt &#160;</text>
<text text-anchor="start" x="681" y="-268.1" font-family="Helvetica,sans-Serif" font-size="14.00" fill="#868686"> [DECIMAL(9, 2)]</text>
<polygon fill="#fcece8" stroke="none" points="614,-231.8 614,-258.6 826,-258.6 826,-231.8 614,-231.8"/>
<polygon fill="none" stroke="#ffffff" points="614,-231.8 614,-258.6 826,-258.6 826,-231.8 614,-231.8"/>
<text text-anchor="start" x="619" y="-241.3" font-family="Helvetica,sans-Serif" font-size="14.00" fill="#868686">principal_amt &#160;</text>
<text text-anchor="start" x="709" y="-241.3" font-family="Helvetica,sans-Serif" font-size="14.00" fill="#868686"> [DECIMAL(15, 2)]</text>
<polygon fill="#fcece8" stroke="none" points="614,-205 614,-231.8 826,-231.8 826,-205 614,-205"/>
<polygon fill="none" stroke="#ffffff" points="614,-205 614,-231.8 826,-231.8 826,-205 614,-205"/>
<text text-anchor="start" x="619" y="-214.5" font-family="Helvetica,sans-Serif" font-size="14.00" fill="#868686">interest_amt &#160;</text>
<text text-anchor="start" x="702" y="-214.5" font-family="Helvetica,sans-Serif" font-size="14.00" fill="#868686"> [DECIMAL(11, 3)]</text>
<polygon fill="#fcece8" stroke="none" points="614,-178.2 614,-205 826,-205 826,-178.2 614,-178.2"/>
<polygon fill="none" stroke="#ffffff" points="614,-178.2 614,-205 826,-205 826,-178.2 614,-178.2"/>
<text text-anchor="start" x="619" y="-187.7" font-family="Helvetica,sans-Serif" font-size="14.00" fill="#868686">new_balance &#160;</text>
<text text-anchor="start" x="708" y="-187.7" font-family="Helvetica,sans-Serif" font-size="14.00" fill="#868686"> [DECIMAL(9, 2)]</text>
<polygon fill="#fcece8" stroke="none" points="614,-151.4 614,-178.2 826,-178.2 826,-151.4 614,-151.4"/>
<polygon fill="none" stroke="#ffffff" points="614,-151.4 614,-178.2 826,-178.2 826,-151.4 614,-151.4"/>
<text text-anchor="start" x="619" y="-160.9" font-family="Helvetica,sans-Serif" font-size="14.00" fill="#868686">tran_date &#160;</text>
<text text-anchor="start" x="684" y="-160.9" font-family="Helvetica,sans-Serif" font-size="14.00" fill="#868686"> [DATE]</text>
<polygon fill="#fcece8" stroke="none" points="614,-124.6 614,-151.4 826,-151.4 826,-124.6 614,-124.6"/>
<polygon fill="none" stroke="#ffffff" points="614,-124.6 614,-151.4 826,-151.4 826,-124.6 614,-124.6"/>
<text text-anchor="start" x="619" y="-134.1" font-family="Helvetica,sans-Serif" font-size="14.00" fill="#868686">tran_time &#160;</text>
<text text-anchor="start" x="684" y="-134.1" font-family="Helvetica,sans-Serif" font-size="14.00" fill="#868686"> [INTEGER]</text>
<polygon fill="#fcece8" stroke="none" points="614,-97.8 614,-124.6 826,-124.6 826,-97.8 614,-97.8"/>
<polygon fill="none" stroke="#ffffff" points="614,-97.8 614,-124.6 826,-124.6 826,-97.8 614,-97.8"/>
<text text-anchor="start" x="619" y="-107.3" font-family="Helvetica,sans-Serif" font-size="14.00" fill="#868686">channel &#160;</text>
<text text-anchor="start" x="675" y="-107.3" font-family="Helvetica,sans-Serif" font-size="14.00" fill="#868686"> [VARCHAR(1)]</text>
<polygon fill="#fcece8" stroke="none" points="614,-71 614,-97.8 826,-97.8 826,-71 614,-71"/>
<polygon fill="none" stroke="#ffffff" points="614,-71 614,-97.8 826,-97.8 826,-71 614,-71"/>
<text text-anchor="start" x="619" y="-80.5" font-family="Helvetica,sans-Serif" font-size="14.00" fill="#868686">tran_code &#160;</text>
<text text-anchor="start" x="688" y="-80.5" font-family="Helvetica,sans-Serif" font-size="14.00" fill="#868686"> [VARCHAR(2)]</text>
</g>
<!-- raw_accounts&#45;&#45;raw_transactions -->
<g id="edge2" class="edge">
<title>raw_accounts&#45;&#45;raw_transactions</title>
<path fill="none" stroke="#7f7f7f" stroke-dasharray="5,2" d="M532.59,-219.6C556.79,-219.6 582.13,-219.6 606.04,-219.6"/>
<text text-anchor="start" x="582.04" y="-206.3" font-family="Times,serif" font-size="14.00">0..N</text>
<text text-anchor="start" x="532.59" y="-206.3" font-family="Times,serif" font-size="14.00">1</text>
</g>
</g>
</svg>
