<?xml version="1.0" encoding="UTF-8" standalone="no"?>
<!DOCTYPE svg PUBLIC "-//W3C//DTD SVG 1.1//EN"
 "http://www.w3.org/Graphics/SVG/1.1/DTD/svg11.dtd">
<!-- Generated by graphviz version 8.0.4 (20230422.2207)
 -->
<!-- Pages: 1 -->
<svg width="255pt" height="983pt"
 viewBox="0.00 0.00 255.00 983.20" xmlns="http://www.w3.org/2000/svg" xmlns:xlink="http://www.w3.org/1999/xlink">
<g id="graph0" class="graph" transform="scale(1 1) rotate(0) translate(4 979.2)">
<polygon fill="white" stroke="none" points="-4,4 -4,-979.2 251,-979.2 251,4 -4,4"/>
<!-- fact: Analytic_Dataset -->
<g id="node1" class="node">
<title>fact: Analytic_Dataset</title>
<polygon fill="#f37843" stroke="none" points="8,-4 8,-971.2 239,-971.2 239,-4 8,-4"/>
<polygon fill="none" stroke="#ffffff" points="8,-942 8,-971.2 239,-971.2 239,-942 8,-942"/>
<text text-anchor="start" x="46.5" y="-952" font-family="Helvetica,sans-Serif" font-weight="bold" font-size="16.00" fill="#ffffff">fact: Analytic_Dataset</text>
<polygon fill="#f9d6cd" stroke="none" points="8,-915.2 8,-942 239,-942 239,-915.2 8,-915.2"/>
<polygon fill="none" stroke="#ffffff" points="8,-915.2 8,-942 239,-942 239,-915.2 8,-915.2"/>
<text text-anchor="start" x="13" y="-924.7" font-family="Helvetica,sans-Serif" text-decoration="underline" font-size="14.00" fill="#000000">cust_id &#160;</text>
<text text-anchor="start" x="64" y="-924.7" font-family="Helvetica,sans-Serif" font-size="14.00" fill="#000000"> [INTEGER]</text>
<polygon fill="#fcece8" stroke="none" points="8,-888.4 8,-915.2 239,-915.2 239,-888.4 8,-888.4"/>
<polygon fill="none" stroke="#ffffff" points="8,-888.4 8,-915.2 239,-915.2 239,-888.4 8,-888.4"/>
<text text-anchor="start" x="13" y="-897.9" font-family="Helvetica,sans-Serif" font-size="14.00" fill="#868686">income &#160;</text>
<text text-anchor="start" x="65" y="-897.9" font-family="Helvetica,sans-Serif" font-size="14.00" fill="#868686"> [DECIMAL(15, 1)]</text>
<polygon fill="#fcece8" stroke="none" points="8,-861.6 8,-888.4 239,-888.4 239,-861.6 8,-861.6"/>
<polygon fill="none" stroke="#ffffff" points="8,-861.6 8,-888.4 239,-888.4 239,-861.6 8,-861.6"/>
<text text-anchor="start" x="13" y="-871.1" font-family="Helvetica,sans-Serif" font-size="14.00" fill="#868686">age &#160;</text>
<text text-anchor="start" x="43" y="-871.1" font-family="Helvetica,sans-Serif" font-size="14.00" fill="#868686"> [INTEGER]</text>
<polygon fill="#fcece8" stroke="none" points="8,-834.8 8,-861.6 239,-861.6 239,-834.8 8,-834.8"/>
<polygon fill="none" stroke="#ffffff" points="8,-834.8 8,-861.6 239,-861.6 239,-834.8 8,-834.8"/>
<text text-anchor="start" x="13" y="-844.3" font-family="Helvetica,sans-Serif" font-size="14.00" fill="#868686">years_with_bank &#160;</text>
<text text-anchor="start" x="124" y="-844.3" font-family="Helvetica,sans-Serif" font-size="14.00" fill="#868686"> [INTEGER]</text>
<polygon fill="#fcece8" stroke="none" points="8,-808 8,-834.8 239,-834.8 239,-808 8,-808"/>
<polygon fill="none" stroke="#ffffff" points="8,-808 8,-834.8 239,-834.8 239,-808 8,-808"/>
<text text-anchor="start" x="13" y="-817.5" font-family="Helvetica,sans-Serif" font-size="14.00" fill="#868686">nbr_children &#160;</text>
<text text-anchor="start" x="96" y="-817.5" font-family="Helvetica,sans-Serif" font-size="14.00" fill="#868686"> [INTEGER]</text>
<polygon fill="#fcece8" stroke="none" points="8,-781.2 8,-808 239,-808 239,-781.2 8,-781.2"/>
<polygon fill="none" stroke="#ffffff" points="8,-781.2 8,-808 239,-808 239,-781.2 8,-781.2"/>
<text text-anchor="start" x="13" y="-790.7" font-family="Helvetica,sans-Serif" font-size="14.00" fill="#868686">marital_status_0 &#160;</text>
<text text-anchor="start" x="122" y="-790.7" font-family="Helvetica,sans-Serif" font-size="14.00" fill="#868686"> [INTEGER]</text>
<polygon fill="#fcece8" stroke="none" points="8,-754.4 8,-781.2 239,-781.2 239,-754.4 8,-754.4"/>
<polygon fill="none" stroke="#ffffff" points="8,-754.4 8,-781.2 239,-781.2 239,-754.4 8,-754.4"/>
<text text-anchor="start" x="13" y="-763.9" font-family="Helvetica,sans-Serif" font-size="14.00" fill="#868686">marital_status_1 &#160;</text>
<text text-anchor="start" x="122" y="-763.9" font-family="Helvetica,sans-Serif" font-size="14.00" fill="#868686"> [INTEGER]</text>
<polygon fill="#fcece8" stroke="none" points="8,-727.6 8,-754.4 239,-754.4 239,-727.6 8,-727.6"/>
<polygon fill="none" stroke="#ffffff" points="8,-727.6 8,-754.4 239,-754.4 239,-727.6 8,-727.6"/>
<text text-anchor="start" x="13" y="-737.1" font-family="Helvetica,sans-Serif" font-size="14.00" fill="#868686">marital_status_2 &#160;</text>
<text text-anchor="start" x="122" y="-737.1" font-family="Helvetica,sans-Serif" font-size="14.00" fill="#868686"> [INTEGER]</text>
<polygon fill="#fcece8" stroke="none" points="8,-700.8 8,-727.6 239,-727.6 239,-700.8 8,-700.8"/>
<polygon fill="none" stroke="#ffffff" points="8,-700.8 8,-727.6 239,-727.6 239,-700.8 8,-700.8"/>
<text text-anchor="start" x="13" y="-710.3" font-family="Helvetica,sans-Serif" font-size="14.00" fill="#868686">marital_status_other &#160;</text>
<text text-anchor="start" x="145" y="-710.3" font-family="Helvetica,sans-Serif" font-size="14.00" fill="#868686"> [INTEGER]</text>
<polygon fill="#fcece8" stroke="none" points="8,-674 8,-700.8 239,-700.8 239,-674 8,-674"/>
<polygon fill="none" stroke="#ffffff" points="8,-674 8,-700.8 239,-700.8 239,-674 8,-674"/>
<text text-anchor="start" x="13" y="-683.5" font-family="Helvetica,sans-Serif" font-size="14.00" fill="#868686">gender_0 &#160;</text>
<text text-anchor="start" x="79" y="-683.5" font-family="Helvetica,sans-Serif" font-size="14.00" fill="#868686"> [INTEGER]</text>
<polygon fill="#fcece8" stroke="none" points="8,-647.2 8,-674 239,-674 239,-647.2 8,-647.2"/>
<polygon fill="none" stroke="#ffffff" points="8,-647.2 8,-674 239,-674 239,-647.2 8,-647.2"/>
<text text-anchor="start" x="13" y="-656.7" font-family="Helvetica,sans-Serif" font-size="14.00" fill="#868686">gender_1 &#160;</text>
<text text-anchor="start" x="79" y="-656.7" font-family="Helvetica,sans-Serif" font-size="14.00" fill="#868686"> [INTEGER]</text>
<polygon fill="#fcece8" stroke="none" points="8,-620.4 8,-647.2 239,-647.2 239,-620.4 8,-620.4"/>
<polygon fill="none" stroke="#ffffff" points="8,-620.4 8,-647.2 239,-647.2 239,-620.4 8,-620.4"/>
<text text-anchor="start" x="13" y="-629.9" font-family="Helvetica,sans-Serif" font-size="14.00" fill="#868686">gender_other &#160;</text>
<text text-anchor="start" x="102" y="-629.9" font-family="Helvetica,sans-Serif" font-size="14.00" fill="#868686"> [INTEGER]</text>
<polygon fill="#fcece8" stroke="none" points="8,-593.6 8,-620.4 239,-620.4 239,-593.6 8,-593.6"/>
<polygon fill="none" stroke="#ffffff" points="8,-593.6 8,-620.4 239,-620.4 239,-593.6 8,-593.6"/>
<text text-anchor="start" x="13" y="-603.1" font-family="Helvetica,sans-Serif" font-size="14.00" fill="#868686">state_code_0 &#160;</text>
<text text-anchor="start" x="103" y="-603.1" font-family="Helvetica,sans-Serif" font-size="14.00" fill="#868686"> [INTEGER]</text>
<polygon fill="#fcece8" stroke="none" points="8,-566.8 8,-593.6 239,-593.6 239,-566.8 8,-566.8"/>
<polygon fill="none" stroke="#ffffff" points="8,-566.8 8,-593.6 239,-593.6 239,-566.8 8,-566.8"/>
<text text-anchor="start" x="13" y="-576.3" font-family="Helvetica,sans-Serif" font-size="14.00" fill="#868686">state_code_1 &#160;</text>
<text text-anchor="start" x="103" y="-576.3" font-family="Helvetica,sans-Serif" font-size="14.00" fill="#868686"> [INTEGER]</text>
<polygon fill="#fcece8" stroke="none" points="8,-540 8,-566.8 239,-566.8 239,-540 8,-540"/>
<polygon fill="none" stroke="#ffffff" points="8,-540 8,-566.8 239,-566.8 239,-540 8,-540"/>
<text text-anchor="start" x="13" y="-549.5" font-family="Helvetica,sans-Serif" font-size="14.00" fill="#868686">state_code_2 &#160;</text>
<text text-anchor="start" x="103" y="-549.5" font-family="Helvetica,sans-Serif" font-size="14.00" fill="#868686"> [INTEGER]</text>
<polygon fill="#fcece8" stroke="none" points="8,-513.2 8,-540 239,-540 239,-513.2 8,-513.2"/>
<polygon fill="none" stroke="#ffffff" points="8,-513.2 8,-540 239,-540 239,-513.2 8,-513.2"/>
<text text-anchor="start" x="13" y="-522.7" font-family="Helvetica,sans-Serif" font-size="14.00" fill="#868686">state_code_3 &#160;</text>
<text text-anchor="start" x="103" y="-522.7" font-family="Helvetica,sans-Serif" font-size="14.00" fill="#868686"> [INTEGER]</text>
<polygon fill="#fcece8" stroke="none" points="8,-486.4 8,-513.2 239,-513.2 239,-486.4 8,-486.4"/>
<polygon fill="none" stroke="#ffffff" points="8,-486.4 8,-513.2 239,-513.2 239,-486.4 8,-486.4"/>
<text text-anchor="start" x="13" y="-495.9" font-family="Helvetica,sans-Serif" font-size="14.00" fill="#868686">state_code_4 &#160;</text>
<text text-anchor="start" x="103" y="-495.9" font-family="Helvetica,sans-Serif" font-size="14.00" fill="#868686"> [INTEGER]</text>
<polygon fill="#fcece8" stroke="none" points="8,-459.6 8,-486.4 239,-486.4 239,-459.6 8,-459.6"/>
<polygon fill="none" stroke="#ffffff" points="8,-459.6 8,-486.4 239,-486.4 239,-459.6 8,-459.6"/>
<text text-anchor="start" x="13" y="-469.1" font-family="Helvetica,sans-Serif" font-size="14.00" fill="#868686">state_code_5 &#160;</text>
<text text-anchor="start" x="103" y="-469.1" font-family="Helvetica,sans-Serif" font-size="14.00" fill="#868686"> [INTEGER]</text>
<polygon fill="#fcece8" stroke="none" points="8,-432.8 8,-459.6 239,-459.6 239,-432.8 8,-432.8"/>
<polygon fill="none" stroke="#ffffff" points="8,-432.8 8,-459.6 239,-459.6 239,-432.8 8,-432.8"/>
<text text-anchor="start" x="13" y="-442.3" font-family="Helvetica,sans-Serif" font-size="14.00" fill="#868686">state_code_other &#160;</text>
<text text-anchor="start" x="127" y="-442.3" font-family="Helvetica,sans-Serif" font-size="14.00" fill="#868686"> [INTEGER]</text>
<polygon fill="#fcece8" stroke="none" points="8,-406 8,-432.8 239,-432.8 239,-406 8,-406"/>
<polygon fill="none" stroke="#ffffff" points="8,-406 8,-432.8 239,-432.8 239,-406 8,-406"/>
<text text-anchor="start" x="13" y="-415.5" font-family="Helvetica,sans-Serif" font-size="14.00" fill="#868686">acct_type_0 &#160;</text>
<text text-anchor="start" x="95" y="-415.5" font-family="Helvetica,sans-Serif" font-size="14.00" fill="#868686"> [INTEGER]</text>
<polygon fill="#fcece8" stroke="none" points="8,-379.2 8,-406 239,-406 239,-379.2 8,-379.2"/>
<polygon fill="none" stroke="#ffffff" points="8,-379.2 8,-406 239,-406 239,-379.2 8,-379.2"/>
<text text-anchor="start" x="13" y="-388.7" font-family="Helvetica,sans-Serif" font-size="14.00" fill="#868686">acct_type_1 &#160;</text>
<text text-anchor="start" x="95" y="-388.7" font-family="Helvetica,sans-Serif" font-size="14.00" fill="#868686"> [INTEGER]</text>
<polygon fill="#fcece8" stroke="none" points="8,-352.4 8,-379.2 239,-379.2 239,-352.4 8,-352.4"/>
<polygon fill="none" stroke="#ffffff" points="8,-352.4 8,-379.2 239,-379.2 239,-352.4 8,-352.4"/>
<text text-anchor="start" x="13" y="-361.9" font-family="Helvetica,sans-Serif" font-size="14.00" fill="#868686">acct_type_2 &#160;</text>
<text text-anchor="start" x="95" y="-361.9" font-family="Helvetica,sans-Serif" font-size="14.00" fill="#868686"> [INTEGER]</text>
<polygon fill="#fcece8" stroke="none" points="8,-325.6 8,-352.4 239,-352.4 239,-325.6 8,-325.6"/>
<polygon fill="none" stroke="#ffffff" points="8,-325.6 8,-352.4 239,-352.4 239,-325.6 8,-325.6"/>
<text text-anchor="start" x="13" y="-335.1" font-family="Helvetica,sans-Serif" font-size="14.00" fill="#868686">acct_type_other &#160;</text>
<text text-anchor="start" x="118" y="-335.1" font-family="Helvetica,sans-Serif" font-size="14.00" fill="#868686"> [INTEGER]</text>
<polygon fill="#fcece8" stroke="none" points="8,-298.8 8,-325.6 239,-325.6 239,-298.8 8,-298.8"/>
<polygon fill="none" stroke="#ffffff" points="8,-298.8 8,-325.6 239,-325.6 239,-298.8 8,-298.8"/>
<text text-anchor="start" x="13" y="-308.3" font-family="Helvetica,sans-Serif" font-size="14.00" fill="#868686">CK_avg_bal &#160;</text>
<text text-anchor="start" x="95" y="-308.3" font-family="Helvetica,sans-Serif" font-size="14.00" fill="#868686"> [FLOAT]</text>
<polygon fill="#fcece8" stroke="none" points="8,-272 8,-298.8 239,-298.8 239,-272 8,-272"/>
<polygon fill="none" stroke="#ffffff" points="8,-272 8,-298.8 239,-298.8 239,-272 8,-272"/>
<text text-anchor="start" x="13" y="-281.5" font-family="Helvetica,sans-Serif" font-size="14.00" fill="#868686">CK_avg_tran_amt &#160;</text>
<text text-anchor="start" x="131" y="-281.5" font-family="Helvetica,sans-Serif" font-size="14.00" fill="#868686"> [FLOAT]</text>
<polygon fill="#fcece8" stroke="none" points="8,-245.2 8,-272 239,-272 239,-245.2 8,-245.2"/>
<polygon fill="none" stroke="#ffffff" points="8,-245.2 8,-272 239,-272 239,-245.2 8,-245.2"/>
<text text-anchor="start" x="13" y="-254.7" font-family="Helvetica,sans-Serif" font-size="14.00" fill="#868686">CC_avg_bal &#160;</text>
<text text-anchor="start" x="96" y="-254.7" font-family="Helvetica,sans-Serif" font-size="14.00" fill="#868686"> [FLOAT]</text>
<polygon fill="#fcece8" stroke="none" points="8,-218.4 8,-245.2 239,-245.2 239,-218.4 8,-218.4"/>
<polygon fill="none" stroke="#ffffff" points="8,-218.4 8,-245.2 239,-245.2 239,-218.4 8,-218.4"/>
<text text-anchor="start" x="13" y="-227.9" font-family="Helvetica,sans-Serif" font-size="14.00" fill="#868686">CC_avg_tran_amt &#160;</text>
<text text-anchor="start" x="132" y="-227.9" font-family="Helvetica,sans-Serif" font-size="14.00" fill="#868686"> [FLOAT]</text>
<polygon fill="#fcece8" stroke="none" points="8,-191.6 8,-218.4 239,-218.4 239,-191.6 8,-191.6"/>
<polygon fill="none" stroke="#ffffff" points="8,-191.6 8,-218.4 239,-218.4 239,-191.6 8,-191.6"/>
<text text-anchor="start" x="13" y="-201.1" font-family="Helvetica,sans-Serif" font-size="14.00" fill="#868686">SV_avg_bal &#160;</text>
<text text-anchor="start" x="94" y="-201.1" font-family="Helvetica,sans-Serif" font-size="14.00" fill="#868686"> [FLOAT]</text>
<polygon fill="#fcece8" stroke="none" points="8,-164.8 8,-191.6 239,-191.6 239,-164.8 8,-164.8"/>
<polygon fill="none" stroke="#ffffff" points="8,-164.8 8,-191.6 239,-191.6 239,-164.8 8,-164.8"/>
<text text-anchor="start" x="13" y="-174.3" font-family="Helvetica,sans-Serif" font-size="14.00" fill="#868686">SV_avg_tran_amt &#160;</text>
<text text-anchor="start" x="130" y="-174.3" font-family="Helvetica,sans-Serif" font-size="14.00" fill="#868686"> [FLOAT]</text>
<polygon fill="#fcece8" stroke="none" points="8,-138 8,-164.8 239,-164.8 239,-138 8,-138"/>
<polygon fill="none" stroke="#ffffff" points="8,-138 8,-164.8 239,-164.8 239,-138 8,-138"/>
<text text-anchor="start" x="13" y="-147.5" font-family="Helvetica,sans-Serif" font-size="14.00" fill="#868686">q1_trans_cnt &#160;</text>
<text text-anchor="start" x="100" y="-147.5" font-family="Helvetica,sans-Serif" font-size="14.00" fill="#868686"> [DECIMAL(15, 0)]</text>
<polygon fill="#fcece8" stroke="none" points="8,-111.2 8,-138 239,-138 239,-111.2 8,-111.2"/>
<polygon fill="none" stroke="#ffffff" points="8,-111.2 8,-138 239,-138 239,-111.2 8,-111.2"/>
<text text-anchor="start" x="13" y="-120.7" font-family="Helvetica,sans-Serif" font-size="14.00" fill="#868686">q2_trans_cnt &#160;</text>
<text text-anchor="start" x="100" y="-120.7" font-family="Helvetica,sans-Serif" font-size="14.00" fill="#868686"> [DECIMAL(15, 0)]</text>
<polygon fill="#fcece8" stroke="none" points="8,-84.4 8,-111.2 239,-111.2 239,-84.4 8,-84.4"/>
<polygon fill="none" stroke="#ffffff" points="8,-84.4 8,-111.2 239,-111.2 239,-84.4 8,-84.4"/>
<text text-anchor="start" x="13" y="-93.9" font-family="Helvetica,sans-Serif" font-size="14.00" fill="#868686">q3_trans_cnt &#160;</text>
<text text-anchor="start" x="100" y="-93.9" font-family="Helvetica,sans-Serif" font-size="14.00" fill="#868686"> [DECIMAL(15, 0)]</text>
<polygon fill="#fcece8" stroke="none" points="8,-57.6 8,-84.4 239,-84.4 239,-57.6 8,-57.6"/>
<polygon fill="none" stroke="#ffffff" points="8,-57.6 8,-84.4 239,-84.4 239,-57.6 8,-57.6"/>
<text text-anchor="start" x="13" y="-67.1" font-family="Helvetica,sans-Serif" font-size="14.00" fill="#868686">q4_trans_cnt &#160;</text>
<text text-anchor="start" x="100" y="-67.1" font-family="Helvetica,sans-Serif" font-size="14.00" fill="#868686"> [DECIMAL(15, 0)]</text>
<polygon fill="#fcece8" stroke="none" points="8,-30.8 8,-57.6 239,-57.6 239,-30.8 8,-30.8"/>
<polygon fill="none" stroke="#ffffff" points="8,-30.8 8,-57.6 239,-57.6 239,-30.8 8,-30.8"/>
<text text-anchor="start" x="13" y="-40.3" font-family="Helvetica,sans-Serif" font-size="14.00" fill="#868686">event_timestamp &#160;</text>
<text text-anchor="start" x="126" y="-40.3" font-family="Helvetica,sans-Serif" font-size="14.00" fill="#868686"> [TIMESTAMP(0)]</text>
<polygon fill="#fcece8" stroke="none" points="8,-4 8,-30.8 239,-30.8 239,-4 8,-4"/>
<polygon fill="none" stroke="#ffffff" points="8,-4 8,-30.8 239,-30.8 239,-4 8,-4"/>
<text text-anchor="start" x="13" y="-13.5" font-family="Helvetica,sans-Serif" font-size="14.00" fill="#868686">created &#160;</text>
<text text-anchor="start" x="66" y="-13.5" font-family="Helvetica,sans-Serif" font-size="14.00" fill="#868686"> [TIMESTAMP(0)]</text>
</g>
</g>
</svg>
