<svg width="528" height="235" viewBox="0 0 528 235" fill="none" xmlns="http://www.w3.org/2000/svg">
<g clip-path="url(#clip0_5473_56336)">
<path opacity="0.15" fill-rule="evenodd" clip-rule="evenodd" d="M139 199C215.768 199 278 136.768 278 60C278 -16.7676 215.768 -79 139 -79C62.2324 -79 0 -16.7676 0 60C0 136.768 62.2324 199 139 199Z" fill="#00A2A2"/>
<path opacity="0.2" d="M463 170C463 205.899 433.899 235 398 235C362.101 235 333 205.899 333 170C333 134.101 362.101 105 398 105C433.899 105 463 134.101 463 170Z" fill="#00A2A2"/>
<path opacity="0.6" d="M361.874 93.9175L448.057 93.5031" stroke="#00B2B1" stroke-linecap="square"/>
<path opacity="0.6" d="M395.677 141.259L448.057 93.5034" stroke="#00B2B1" stroke-linecap="square"/>
<path opacity="0.8" d="M343.628 158.486H316.278" stroke="#00B2B1" stroke-linecap="square"/>
<path opacity="0.6" d="M247.49 133.862H187.171" stroke="#00B2B1" stroke-linecap="square"/>
<path opacity="0.6" d="M431.659 152.095L448.057 93.5034" stroke="#00B2B1" stroke-linecap="square"/>
<path opacity="0.6" d="M439.082 33.1523L448.056 93.5031" stroke="#00B2B1" stroke-linecap="square"/>
<path opacity="0.6" d="M411.779 69.0664L448.057 93.5034" stroke="#00B2B1" stroke-linecap="square"/>
<path opacity="0.6" d="M329.885 80.2426L298.913 49.9868H246.549" stroke="#00B2B1" stroke-linecap="square"/>
<path opacity="0.6" d="M186.987 50.1546H148.034" stroke="#00B2B1" stroke-linecap="square"/>
<path opacity="0.6" d="M329.885 107.176L298.874 135.52L251.612 135.411" stroke="#00B2B1" stroke-linecap="square"/>
<path opacity="0.6" d="M325.315 93.9178H298.757" stroke="#00B2B1" stroke-linecap="square"/>
<path fill-rule="evenodd" clip-rule="evenodd" d="M298.758 98.8777C296.023 98.8777 293.785 96.6455 293.785 93.9173C293.785 91.1892 296.023 88.957 298.758 88.957C301.493 88.957 303.73 91.1892 303.73 93.9173C303.73 96.6455 301.493 98.8777 298.758 98.8777Z" fill="#00A2A2"/>
<path fill-rule="evenodd" clip-rule="evenodd" d="M298.758 140.318C296.023 140.318 293.785 138.085 293.785 135.357C293.785 132.629 296.023 130.397 298.758 130.397C301.493 130.397 303.73 132.629 303.73 135.357C303.73 138.085 301.493 140.318 298.758 140.318Z" fill="#00A2A2"/>
<path fill-rule="evenodd" clip-rule="evenodd" d="M298.758 54.9768C296.023 54.9768 293.785 52.739 293.785 50.004C293.785 47.269 296.023 45.0312 298.758 45.0312C301.493 45.0312 303.73 47.269 303.73 50.004C303.73 52.739 301.493 54.9768 298.758 54.9768Z" fill="#00A2A2"/>
<path fill-rule="evenodd" clip-rule="evenodd" d="M343.594 107.592C336.054 107.592 329.884 101.439 329.884 93.9172C329.884 86.396 336.054 80.2422 343.594 80.2422C351.134 80.2422 357.303 86.396 357.303 93.9172C357.303 101.439 351.134 107.592 343.594 107.592Z" fill="#00A2A2"/>
<path opacity="0.6" fill-rule="evenodd" clip-rule="evenodd" d="M343.593 112.15C333.54 112.15 325.314 103.945 325.314 93.917C325.314 83.8886 333.54 75.6836 343.593 75.6836C353.647 75.6836 361.872 83.8886 361.872 93.917C361.872 103.945 353.647 112.15 343.593 112.15Z" stroke="#2CC0BF"/>
<path opacity="0.6" fill-rule="evenodd" clip-rule="evenodd" d="M217.486 75.5374C217.391 75.5089 217.291 75.4936 217.187 75.4936C217.08 75.4936 216.976 75.5097 216.879 75.5396C202.861 75.4291 191.532 64.0313 191.532 49.9873C191.532 35.8746 202.972 24.4341 217.085 24.4341C231.197 24.4341 242.638 35.8746 242.638 49.9873C242.638 63.9658 231.414 75.3228 217.486 75.5374ZM229.528 69.1143C229.528 68.5383 229.995 68.0713 230.571 68.0713C231.147 68.0713 231.614 68.5383 231.614 69.1143C231.614 69.6903 231.147 70.1573 230.571 70.1573C229.995 70.1573 229.528 69.6903 229.528 69.1143ZM203.803 68.0713C203.226 68.0713 202.76 68.5383 202.76 69.1143C202.76 69.6903 203.226 70.1573 203.803 70.1573C204.379 70.1573 204.846 69.6903 204.846 69.1143C204.846 68.5383 204.379 68.0713 203.803 68.0713ZM210.495 68.0713C209.918 68.0713 209.452 68.5383 209.452 69.1143C209.452 69.6903 209.918 70.1573 210.495 70.1573C211.071 70.1573 211.538 69.6903 211.538 69.1143C211.538 68.5383 211.071 68.0713 210.495 68.0713ZM222.836 69.1143C222.836 68.5383 223.303 68.0713 223.879 68.0713C224.455 68.0713 224.922 68.5383 224.922 69.1143C224.922 69.6903 224.455 70.1573 223.879 70.1573C223.303 70.1573 222.836 69.6903 222.836 69.1143ZM216.144 69.1143C216.144 68.5383 216.611 68.0713 217.187 68.0713C217.763 68.0713 218.23 68.5383 218.23 69.1143C218.23 69.6903 217.763 70.1573 217.187 70.1573C216.611 70.1573 216.144 69.6903 216.144 69.1143ZM210.495 60.6493C209.918 60.6493 209.452 61.1162 209.452 61.6922C209.452 62.2683 209.918 62.7352 210.495 62.7352C211.071 62.7352 211.538 62.2683 211.538 61.6922C211.538 61.1162 211.071 60.6493 210.495 60.6493ZM202.76 61.6922C202.76 61.1162 203.226 60.6493 203.803 60.6493C204.379 60.6493 204.846 61.1162 204.846 61.6922C204.846 62.2683 204.379 62.7352 203.803 62.7352C203.226 62.7352 202.76 62.2683 202.76 61.6922ZM197.111 60.6493C196.534 60.6493 196.068 61.1162 196.068 61.6922C196.068 62.2683 196.534 62.7352 197.111 62.7352C197.687 62.7352 198.153 62.2683 198.153 61.6922C198.153 61.1162 197.687 60.6493 197.111 60.6493ZM222.836 61.6922C222.836 61.1162 223.303 60.6493 223.879 60.6493C224.455 60.6493 224.922 61.1162 224.922 61.6922C224.922 62.2683 224.455 62.7352 223.879 62.7352C223.303 62.7352 222.836 62.2683 222.836 61.6922ZM217.187 60.6493C216.611 60.6493 216.144 61.1162 216.144 61.6922C216.144 62.2683 216.611 62.7352 217.187 62.7352C217.763 62.7352 218.23 62.2683 218.23 61.6922C218.23 61.1162 217.763 60.6493 217.187 60.6493ZM236.221 61.6922C236.221 61.1162 236.688 60.6493 237.264 60.6493C237.84 60.6493 238.307 61.1162 238.307 61.6922C238.307 62.2683 237.84 62.7352 237.264 62.7352C236.688 62.7352 236.221 62.2683 236.221 61.6922ZM230.571 60.6493C229.995 60.6493 229.528 61.1162 229.528 61.6922C229.528 62.2683 229.995 62.7352 230.571 62.7352C231.147 62.7352 231.614 62.2683 231.614 61.6922C231.614 61.1162 231.147 60.6493 230.571 60.6493ZM209.452 54.0146C209.452 53.4386 209.918 52.9716 210.495 52.9716C211.071 52.9716 211.537 53.4386 211.537 54.0146C211.537 54.5906 211.071 55.0576 210.495 55.0576C209.918 55.0576 209.452 54.5906 209.452 54.0146ZM203.802 52.9716C203.226 52.9716 202.76 53.4386 202.76 54.0146C202.76 54.5906 203.226 55.0576 203.802 55.0576C204.379 55.0576 204.845 54.5906 204.845 54.0146C204.845 53.4386 204.379 52.9716 203.802 52.9716ZM196.067 54.0146C196.067 53.4386 196.534 52.9716 197.11 52.9716C197.687 52.9716 198.153 53.4386 198.153 54.0146C198.153 54.5906 197.687 55.0576 197.11 55.0576C196.534 55.0576 196.067 54.5906 196.067 54.0146ZM223.88 52.9716C223.303 52.9716 222.837 53.4386 222.837 54.0146C222.837 54.5906 223.303 55.0576 223.88 55.0576C224.456 55.0576 224.923 54.5906 224.923 54.0146C224.923 53.4386 224.456 52.9716 223.88 52.9716ZM216.144 54.0146C216.144 53.4386 216.611 52.9716 217.187 52.9716C217.763 52.9716 218.23 53.4386 218.23 54.0146C218.23 54.5906 217.763 55.0576 217.187 55.0576C216.611 55.0576 216.144 54.5906 216.144 54.0146ZM237.264 52.9716C236.688 52.9716 236.221 53.4386 236.221 54.0146C236.221 54.5906 236.688 55.0576 237.264 55.0576C237.84 55.0576 238.307 54.5906 238.307 54.0146C238.307 53.4386 237.84 52.9716 237.264 52.9716ZM229.528 54.0146C229.528 53.4386 229.995 52.9716 230.571 52.9716C231.147 52.9716 231.614 53.4386 231.614 54.0146C231.614 54.5906 231.147 55.0576 230.571 55.0576C229.995 55.0576 229.528 54.5906 229.528 54.0146ZM210.495 45.5492C209.918 45.5492 209.452 46.0162 209.452 46.5922C209.452 47.1683 209.918 47.6352 210.495 47.6352C211.071 47.6352 211.537 47.1683 211.537 46.5922C211.537 46.0162 211.071 45.5492 210.495 45.5492ZM202.76 46.5922C202.76 46.0162 203.226 45.5492 203.802 45.5492C204.379 45.5492 204.845 46.0162 204.845 46.5922C204.845 47.1683 204.379 47.6352 203.802 47.6352C203.226 47.6352 202.76 47.1683 202.76 46.5922ZM197.11 45.5492C196.534 45.5492 196.067 46.0162 196.067 46.5922C196.067 47.1683 196.534 47.6352 197.11 47.6352C197.687 47.6352 198.153 47.1683 198.153 46.5922C198.153 46.0162 197.687 45.5492 197.11 45.5492ZM222.837 46.5922C222.837 46.0162 223.303 45.5492 223.88 45.5492C224.456 45.5492 224.923 46.0162 224.923 46.5922C224.923 47.1683 224.456 47.6352 223.88 47.6352C223.303 47.6352 222.837 47.1683 222.837 46.5922ZM217.187 45.5492C216.611 45.5492 216.144 46.0162 216.144 46.5922C216.144 47.1683 216.611 47.6352 217.187 47.6352C217.763 47.6352 218.23 47.1683 218.23 46.5922C218.23 46.0162 217.763 45.5492 217.187 45.5492ZM236.221 46.5922C236.221 46.0162 236.688 45.5492 237.264 45.5492C237.84 45.5492 238.307 46.0162 238.307 46.5922C238.307 47.1683 237.84 47.6352 237.264 47.6352C236.688 47.6352 236.221 47.1683 236.221 46.5922ZM230.571 45.5492C229.995 45.5492 229.528 46.0162 229.528 46.5922C229.528 47.1683 229.995 47.6352 230.571 47.6352C231.147 47.6352 231.614 47.1683 231.614 46.5922C231.614 46.0162 231.147 45.5492 230.571 45.5492ZM209.452 39.1703C209.452 38.5942 209.918 38.1273 210.495 38.1273C211.071 38.1273 211.538 38.5942 211.538 39.1703C211.538 39.7463 211.071 40.2133 210.495 40.2133C209.918 40.2133 209.452 39.7463 209.452 39.1703ZM203.803 38.1273C203.226 38.1273 202.76 38.5942 202.76 39.1703C202.76 39.7463 203.226 40.2133 203.803 40.2133C204.379 40.2133 204.846 39.7463 204.846 39.1703C204.846 38.5942 204.379 38.1273 203.803 38.1273ZM196.068 39.1703C196.068 38.5942 196.534 38.1273 197.111 38.1273C197.687 38.1273 198.153 38.5942 198.153 39.1703C198.153 39.7463 197.687 40.2133 197.111 40.2133C196.534 40.2133 196.068 39.7463 196.068 39.1703ZM223.879 38.1273C223.303 38.1273 222.836 38.5942 222.836 39.1703C222.836 39.7463 223.303 40.2133 223.879 40.2133C224.455 40.2133 224.922 39.7463 224.922 39.1703C224.922 38.5942 224.455 38.1273 223.879 38.1273ZM216.144 39.1703C216.144 38.5942 216.611 38.1273 217.187 38.1273C217.763 38.1273 218.23 38.5942 218.23 39.1703C218.23 39.7463 217.763 40.2133 217.187 40.2133C216.611 40.2133 216.144 39.7463 216.144 39.1703ZM237.264 38.1273C236.688 38.1273 236.221 38.5942 236.221 39.1703C236.221 39.7463 236.688 40.2133 237.264 40.2133C237.84 40.2133 238.307 39.7463 238.307 39.1703C238.307 38.5942 237.84 38.1273 237.264 38.1273ZM229.528 39.1703C229.528 38.5942 229.995 38.1273 230.571 38.1273C231.147 38.1273 231.614 38.5942 231.614 39.1703C231.614 39.7463 231.147 40.2133 230.571 40.2133C229.995 40.2133 229.528 39.7463 229.528 39.1703ZM210.495 30.705C209.918 30.705 209.452 31.172 209.452 31.748C209.452 32.324 209.918 32.791 210.495 32.791C211.071 32.791 211.538 32.324 211.538 31.748C211.538 31.172 211.071 30.705 210.495 30.705ZM202.76 31.748C202.76 31.172 203.226 30.705 203.803 30.705C204.379 30.705 204.846 31.172 204.846 31.748C204.846 32.324 204.379 32.791 203.803 32.791C203.226 32.791 202.76 32.324 202.76 31.748ZM222.836 31.748C222.836 31.172 223.303 30.705 223.879 30.705C224.455 30.705 224.922 31.172 224.922 31.748C224.922 32.324 224.455 32.791 223.879 32.791C223.303 32.791 222.836 32.324 222.836 31.748ZM217.187 30.705C216.611 30.705 216.144 31.172 216.144 31.748C216.144 32.324 216.611 32.791 217.187 32.791C217.763 32.791 218.23 32.324 218.23 31.748C218.23 31.172 217.763 30.705 217.187 30.705ZM230.571 30.705C229.995 30.705 229.528 31.172 229.528 31.748C229.528 32.324 229.995 32.791 230.571 32.791C231.147 32.791 231.614 32.324 231.614 31.748C231.614 31.172 231.147 30.705 230.571 30.705Z" fill="#00A2A2"/>
<path fill-rule="evenodd" clip-rule="evenodd" d="M217.011 79.6297C200.674 79.6297 187.307 66.2965 187.307 50.0004C187.307 33.7043 200.674 20.3711 217.011 20.3711C233.348 20.3711 246.714 33.7043 246.714 50.0004C246.714 66.2965 233.348 79.6297 217.011 79.6297Z" stroke="#4BBCBC"/>
<path fill-rule="evenodd" clip-rule="evenodd" d="M246.549 52.4737C245.181 52.4737 244.062 51.3549 244.062 49.9874C244.062 48.6198 245.181 47.501 246.549 47.501C247.916 47.501 249.035 48.6198 249.035 49.9874C249.035 51.3549 247.916 52.4737 246.549 52.4737Z" fill="#2CC0BF"/>
<path fill-rule="evenodd" clip-rule="evenodd" d="M187.622 52.4737C186.254 52.4737 185.135 51.3549 185.135 49.9874C185.135 48.6198 186.254 47.501 187.622 47.501C188.989 47.501 190.108 48.6198 190.108 49.9874C190.108 51.3549 188.989 52.4737 187.622 52.4737Z" fill="#2CC0BF"/>
<path fill-rule="evenodd" clip-rule="evenodd" d="M439.082 36.6464C437.152 36.6464 435.588 35.082 435.588 33.1521C435.588 31.2222 437.152 29.6577 439.082 29.6577C441.012 29.6577 442.577 31.2222 442.577 33.1521C442.577 35.082 441.012 36.6464 439.082 36.6464Z" fill="#59CECD"/>
<path d="M492.77 139.723C490.388 139.723 488.458 137.792 488.458 135.411C488.458 133.029 490.388 131.099 492.77 131.099C495.151 131.099 497.082 133.029 497.082 135.411C497.082 137.792 495.151 139.723 492.77 139.723Z" fill="#00A2A2"/>
<path d="M490.666 105.69C487.449 105.69 484.842 103.082 484.842 99.8659C484.842 96.6495 487.449 94.042 490.666 94.042C493.882 94.042 496.49 96.6495 496.49 99.8659C496.49 103.082 493.882 105.69 490.666 105.69Z" fill="#00B2B1"/>
<path fill-rule="evenodd" clip-rule="evenodd" d="M411.778 73.1428C409.526 73.1428 407.701 71.3175 407.701 69.066C407.701 66.8145 409.526 64.9893 411.778 64.9893C414.029 64.9893 415.854 66.8145 415.854 69.066C415.854 71.3175 414.029 73.1428 411.778 73.1428Z" fill="#59CECD"/>
<path opacity="0.8" fill-rule="evenodd" clip-rule="evenodd" d="M372.296 133.801C381.157 133.801 388.927 138.47 393.281 145.483L393.355 145.602L377.532 145.603V146.864L394.078 146.863C394.391 147.45 394.682 148.051 394.949 148.665L375.582 148.665V149.927H395.455C395.673 150.517 395.869 151.117 396.043 151.727L375.582 151.728V152.99L396.365 152.99L396.265 152.566L396.043 151.728C396.35 152.81 396.586 153.923 396.744 155.06L396.705 154.791L375.582 154.791V156.053L396.861 156.052L396.862 156.061C396.919 156.653 396.956 157.25 396.971 157.854L378.153 157.854V159.115L396.971 159.116C396.961 159.518 396.942 159.918 396.912 160.315L396.861 160.916L384.932 160.917V162.178L396.705 162.178C396.452 163.861 396.03 165.489 395.455 167.043L378.908 167.043V168.304L394.949 168.304C391.152 177.051 382.438 183.168 372.296 183.168C358.663 183.168 347.612 172.117 347.612 158.485C347.612 144.852 358.663 133.801 372.296 133.801ZM383.965 170.105H375.583V171.367H383.965V170.105ZM373.358 170.105H363.906V171.367H373.358V170.105ZM359.319 170.105H355.566V171.367H359.319V170.105ZM376.694 167.042H367.243V168.304H376.694V167.042ZM359.319 167.042H355.566V168.304H359.319V167.042ZM396.365 163.98L384.452 163.98V165.241L396.043 165.242C396.122 164.964 396.196 164.685 396.265 164.403L396.365 163.98ZM382.255 163.98H372.803V165.241H382.255V163.98ZM359.319 163.98H355.566V165.241H359.319V163.98ZM382.81 160.917H373.359V162.178H382.81V160.917ZM359.319 160.917H355.566V162.178H359.319V160.917ZM376.694 157.854H367.243V159.115H376.694V157.854ZM359.319 157.854H355.566V159.115H359.319V157.854ZM373.358 154.791H363.906V156.052H373.358V154.791ZM359.319 154.791H355.566V156.052H359.319V154.791ZM373.358 151.728H363.906V152.989H373.358V151.728ZM359.319 151.728H355.566V152.989H359.319V151.728ZM373.358 148.665H363.906V149.926H373.358V148.665ZM359.319 148.665H355.566V149.926H359.319V148.665ZM376.067 145.602H366.615V146.863H376.067V145.602ZM359.319 145.602H355.566V146.863H359.319V145.602Z" fill="#00A2A2"/>
<path opacity="0.8" fill-rule="evenodd" clip-rule="evenodd" d="M372.293 186.871C387.97 186.871 400.679 174.162 400.679 158.485C400.679 142.808 387.97 130.099 372.293 130.099C356.616 130.099 343.907 142.808 343.907 158.485C343.907 174.162 356.616 186.871 372.293 186.871Z" stroke="#21ADAD"/>
<path opacity="0.8" fill-rule="evenodd" clip-rule="evenodd" d="M431.658 157.242C428.764 157.242 426.417 154.896 426.417 152.001C426.417 149.106 428.764 146.759 431.658 146.759C434.553 146.759 436.9 149.106 436.9 152.001C436.9 154.896 434.553 157.242 431.658 157.242Z" fill="#00A2A2"/>
<path d="M455.523 106.673C455.403 106.282 455.318 105.881 455.27 105.475C455.053 104.281 454.501 103.18 453.959 102.092C453.873 101.869 453.724 101.676 453.53 101.536C453.155 101.37 452.715 101.505 452.498 101.852C452.302 102.199 452.223 102.601 452.276 102.997C452.305 103.436 452.372 103.938 452.063 104.248C451.934 104.362 451.78 104.444 451.613 104.487C450.615 104.803 449.508 104.521 448.566 104.052C447.625 103.582 446.786 102.924 445.858 102.428C445.367 102.171 444.862 101.942 444.344 101.743C443.809 101.526 443.067 101.387 442.767 101.879C442.528 102.272 442.767 102.774 443.043 103.15C443.51 103.799 444.053 104.39 444.66 104.91C446.463 106.464 448.742 107.329 450.862 108.41C453.236 109.621 455.449 111.126 457.449 112.888C457.643 112.658 457.759 112.373 457.782 112.073C457.941 111.224 458.643 109.508 457.935 108.772C457.159 107.964 455.952 107.911 455.523 106.673Z" fill="#F8B79D"/>
<path fill-rule="evenodd" clip-rule="evenodd" d="M488.888 220.915C490.664 222.301 492.914 222.932 495.152 222.672C495.618 222.615 496.15 222.449 496.303 222.006C496.359 221.738 496.329 221.458 496.217 221.208C495.865 220.371 495.594 219.502 495.408 218.613C495.292 217.804 495.322 216.843 494.663 216.357C493.712 215.655 491.223 215.692 490.604 216.78C490.458 217.013 489.526 221.451 488.888 220.915Z" fill="#005E7D"/>
<path fill-rule="evenodd" clip-rule="evenodd" d="M502.291 216.99C502.245 217.168 502.278 217.357 502.382 217.509C502.486 217.661 502.651 217.76 502.833 217.781C504.361 218.254 505.946 218.52 507.544 218.57L507.212 215.369C507.225 215.225 507.174 215.081 507.072 214.978C506.97 214.874 506.828 214.82 506.683 214.83C505.764 214.677 503.835 214.055 502.953 214.375C501.962 214.734 502.311 216.035 502.291 216.99Z" fill="#005E7D"/>
<path d="M492.999 89.3328C493.257 90.0045 493.385 90.7192 493.375 91.4387C493.458 94.0171 493.016 96.8017 491.219 98.6514C493.235 98.0493 495.501 98.4119 497.404 97.5136C498.286 97.0978 499.028 96.4357 499.853 95.9201C501.323 95.0018 503.036 94.556 504.567 93.7376C506.097 92.9192 507.514 91.5385 507.601 89.8086C506.936 89.1099 505.868 89.0101 504.996 88.5876C504.058 88.1285 503.363 87.2901 502.7 86.4817C501.919 85.5904 501.235 84.6191 500.658 83.5839C500.078 82.5411 499.845 81.3411 499.992 80.1572C498.292 80.4633 497.058 81.9471 495.451 82.5825C494.826 82.8287 494.15 82.9418 493.542 83.2246C492.673 83.6239 490.913 84.9812 490.88 86.0458C490.883 87.2069 492.547 88.3081 492.999 89.3328Z" fill="#F8B79D"/>
<path opacity="0.173684" d="M492.999 89.3328C493.257 90.0045 493.385 90.7192 493.375 91.4387C493.458 94.0171 493.016 96.8017 491.219 98.6514C493.235 98.0493 495.501 98.4119 497.404 97.5136C498.286 97.0978 499.028 96.4357 499.853 95.9201C501.323 95.0018 503.036 94.556 504.567 93.7376C506.097 92.9192 507.514 91.5385 507.601 89.8086C506.936 89.1099 505.868 89.0101 504.996 88.5876C504.058 88.1285 503.363 87.2901 502.7 86.4817C501.919 85.5904 501.235 84.6191 500.658 83.5839C500.078 82.5411 499.845 81.3411 499.992 80.1572C498.292 80.4633 497.058 81.9471 495.451 82.5825C494.826 82.8287 494.15 82.9418 493.542 83.2246C492.673 83.6239 490.913 84.9812 490.88 86.0458C490.883 87.2069 492.547 88.3081 492.999 89.3328Z" fill="#F3753F"/>
<path d="M514.888 156.523C514.259 161.593 513.823 166.863 512.995 171.91C512.662 174.023 513.075 176.235 512.493 178.298C512.243 179.179 511.827 180.008 511.644 180.903C511.381 182.267 511.727 183.661 511.977 185.025C512.589 188.435 512.589 191.925 512.579 195.391C512.579 197.258 512.579 199.141 512.203 200.974C511.757 203.199 510.799 205.299 510.264 207.488C509.575 210.282 509.641 213.45 509.874 216.317C509.249 216.091 508.544 216.317 507.951 216.6C507.359 216.883 506.76 217.266 506.098 217.309C505.203 217.392 504.362 216.92 503.59 216.46C502.998 216.111 502.482 215.795 501.893 215.436C501.318 210.445 500.742 205.435 500.765 200.408C500.765 197.487 500.995 194.56 500.765 191.645C500.536 188.731 499.867 185.91 500.003 183.028C500.067 181.718 500.29 180.427 500.439 179.126C500.932 174.914 500.865 170.875 500.569 166.647C500.28 166.72 500.163 167.186 500.27 167.462C499.847 167.845 499.507 168.31 499.271 168.829C498.739 169.994 498.626 171.404 498.556 172.708L498.127 180.849C498.116 181.624 498.02 182.395 497.841 183.148C497.691 183.684 497.465 184.19 497.329 184.729C496.84 186.678 497.625 188.688 497.874 190.68C498.077 192.344 497.904 194.007 497.734 195.651L496.667 206.004C496.277 209.77 495.898 213.616 496.667 217.315C496.716 217.545 496.766 217.778 496.826 218.011C496.643 218.064 496.456 218.106 496.267 218.137C495.605 218.23 494.933 218.23 494.271 218.137C493.652 218.074 493.027 217.968 492.415 217.894C490.944 217.728 489.477 217.665 488.502 218.776C487.019 212.049 485.528 205.219 485.924 198.342C486.064 195.92 486.436 193.515 486.692 191.103C487.092 187.37 487.212 183.612 487.052 179.861C486.719 171.724 485.056 163.676 484.78 155.535C484.723 153.798 484.73 152.045 484.384 150.342C484.004 148.495 483.216 146.682 483.279 144.809C483.342 142.936 484.71 140.857 486.606 140.96C491.839 141.249 496.62 138.362 501.84 137.869C504.209 137.643 506.617 137.307 508.963 137.729C511.308 138.152 513.644 139.479 514.565 141.675C515.064 142.87 515.104 144.194 515.141 145.484C515.247 149.171 515.344 152.867 514.888 156.523Z" fill="#BC8F0D"/>
<path fill-rule="evenodd" clip-rule="evenodd" d="M488.599 220.39C487.734 220.922 487.438 222.01 486.935 222.891C485.834 224.811 483.672 225.796 481.895 227.113C481.043 227.749 480.185 228.71 480.454 229.738C483.529 230.593 486.875 231.355 489.84 230.174C491.041 229.695 492.168 228.903 493.456 228.863C494.437 228.833 495.452 229.246 496.374 228.963C496.606 228.909 496.812 228.773 496.953 228.58C497.061 228.376 497.113 228.146 497.106 227.915C497.186 226.344 497.178 224.77 497.082 223.201C496.989 221.667 497.195 220.582 495.445 220.649C493.436 220.736 490.342 219.315 488.599 220.39Z" fill="#007BA3"/>
<path fill-rule="evenodd" clip-rule="evenodd" d="M503.329 217.662C502.966 217.517 502.582 217.43 502.192 217.406C501.519 217.459 500.912 217.829 500.558 218.404C500.214 218.972 499.965 219.592 499.82 220.24C499.65 220.714 499.579 221.218 499.613 221.721C499.743 222.672 500.585 223.384 500.808 224.322C501.21 226.016 499.477 227.842 500.269 229.399C500.771 230.397 502.032 230.677 503.133 230.85C504.817 231.116 506.729 231.325 508.054 230.251C508.774 229.658 509.189 228.772 509.185 227.839C509.165 226.615 508.43 225.527 508.097 224.349C507.634 222.686 508.33 220.483 507.594 218.963C506.966 217.662 504.67 218.091 503.329 217.662Z" fill="#007BA3"/>
<path d="M493.562 88.1624C498.337 88.1624 502.208 84.2911 502.208 79.5157C502.208 74.7404 498.337 70.8691 493.562 70.8691C488.787 70.8691 484.915 74.7404 484.915 79.5157C484.915 84.2911 488.787 88.1624 493.562 88.1624Z" fill="#F8B79D"/>
<path fill-rule="evenodd" clip-rule="evenodd" d="M498.146 93.6848C497.214 93.2883 496.177 93.2099 495.195 93.4619L494.407 92.0879C494.074 91.4824 493.578 90.797 492.883 90.8236C492.366 90.8905 491.935 91.2534 491.782 91.7518C491.637 92.2404 491.579 92.7503 491.609 93.2589C491.655 93.5804 491.542 93.9043 491.306 94.1272C491.177 94.1981 491.034 94.2411 490.887 94.2537C490.349 94.3483 489.805 94.4017 489.26 94.4134C488.355 94.4134 487.387 94.1938 486.598 94.6196C485.81 95.0455 485.444 95.9504 485.061 96.7821C484.503 97.9666 483.775 99.0628 482.899 100.036C481.924 101.117 480.716 102.142 480.44 103.572C480.324 104.181 480.876 104.634 481.315 105.073C483.062 106.806 485.497 107.871 486.791 109.967C487.094 110.456 487.34 111.008 487.806 111.344C487.517 111.973 488.139 112.618 488.269 113.293C488.32 113.735 488.332 114.18 488.305 114.624C488.363 115.274 488.474 115.919 488.638 116.551C488.808 117.582 488.887 118.626 488.874 119.671L488.931 123.171C488.954 124.681 488.977 126.205 488.648 127.679C488.199 129.675 487.101 131.588 487.187 133.641C487.251 134.026 487.212 134.42 487.074 134.785C486.166 136.449 485.451 138.292 484.476 139.935C484.198 140.334 483.974 140.768 483.81 141.226C483.551 142.174 484.083 143.202 484.868 143.794C485.654 144.387 486.645 144.63 487.61 144.813C496.572 146.529 505.878 144.463 514.348 141.07C514.571 141 514.778 140.887 514.957 140.737C515.576 140.135 515.09 139.12 514.737 138.335C513.407 135.411 514.468 132.014 514.278 128.82C514.152 126.668 513.453 124.495 513.979 122.393C514.311 120.989 515.2 119.778 515.815 118.467C516.481 117.046 516.853 115.473 517.725 114.175C518.378 113.283 519.141 112.479 519.997 111.78L525.403 106.962C524.688 105.801 524.658 104.344 524.322 103.023C524.029 101.886 523.447 100.841 523.098 99.7231C522.612 98.1661 522.546 96.3962 521.541 95.122C521.145 94.613 520.629 94.2171 520.187 93.748C519.681 93.209 519.282 92.5802 518.766 92.0513C517.272 90.5209 515.02 90.0352 512.894 89.8289C510.768 89.6226 508.569 89.6126 506.6 88.761C505.635 88.3451 504.604 87.7163 503.606 88.029C502.814 88.2752 502.305 89.0504 501.982 89.8189C501.659 90.5874 501.433 91.4158 500.904 92.0579C500.252 92.8231 499.098 93.3288 498.146 93.6848Z" fill="#0098C9"/>
<path fill-rule="evenodd" clip-rule="evenodd" d="M472.42 110.945C472.107 111.463 471.696 111.915 471.209 112.275C470.211 112.891 468.943 112.565 467.829 112.219C464.738 111.257 461.628 110.293 458.743 108.825C458.6 108.73 458.428 108.688 458.257 108.709C458.124 108.752 458.008 108.836 457.925 108.948C457.471 109.451 457.054 109.986 456.677 110.549C456.279 111.071 456.028 111.69 455.952 112.342C455.957 113.145 456.307 113.908 456.913 114.435C457.515 114.948 458.187 115.372 458.91 115.695C462.589 117.532 466.293 119.321 470.021 121.062C470.26 121.195 470.524 121.276 470.797 121.301C471.555 121.318 472.037 120.529 472.643 120.077C473.248 119.624 474.044 119.498 474.766 119.259C476.07 118.829 477.204 118.011 478.315 117.202L481.868 114.621C484.982 112.359 488.253 109.893 489.613 106.304L485.288 104.88C483.991 104.451 482.627 103.798 481.28 103.549C480.282 103.356 479.08 104.673 478.332 105.236C477.28 106.016 476.268 106.85 475.301 107.734C474.343 108.612 473.026 109.737 472.42 110.945Z" fill="#0098C9"/>
<path d="M513.358 139.346C512.137 139.832 510.753 139.1 509.458 139.316C508.852 139.452 508.273 139.692 507.748 140.025L503.969 142.138C503.736 142.264 503.483 142.573 503.686 142.74C503.745 142.778 503.812 142.801 503.883 142.806C505.143 142.969 506.321 142.201 507.575 141.988C508.127 141.913 508.684 141.892 509.239 141.925C509.33 141.919 509.422 141.933 509.508 141.965C509.696 142.072 509.805 142.278 509.788 142.493C509.788 142.706 509.725 142.913 509.718 143.126C509.756 143.616 509.948 144.082 510.267 144.456C511.47 146.183 512.804 147.813 514.259 149.334C514.628 148.867 514.947 148.363 515.211 147.83L516.455 145.501C517.746 143.099 519.067 140.607 519.273 137.889C518.341 137.593 516.611 136.612 515.65 137.127C514.688 137.643 514.465 138.99 513.358 139.346Z" fill="#F8B79D"/>
<path fill-rule="evenodd" clip-rule="evenodd" d="M492.467 78.1348C494.902 78.3943 497.125 79.5455 499.304 80.6766C498.931 81.2621 499.404 82.1038 500.066 82.3035C500.728 82.5031 501.453 82.2203 502.015 81.8111C502.578 81.4019 503.04 80.8729 503.606 80.4803C504.091 80.1476 504.71 79.795 504.763 79.2028C504.817 78.6106 504.258 78.1548 503.908 77.6624C502.654 75.9025 504.041 73.1478 502.757 71.4079C502.112 70.5362 500.991 70.2069 499.996 69.781C498.619 69.1955 497.364 68.3504 495.984 67.7682C494.603 67.186 493.013 66.8833 491.622 67.4355C489.02 68.4702 488.089 72.0267 485.447 72.9549C485.163 73.0109 484.905 73.158 484.712 73.3741C484.379 73.8797 483.964 76.8706 484.047 77.4861C484.173 78.5141 484.456 78.8934 485.467 79.1995C487.63 79.8449 490.152 77.8853 492.467 78.1348Z" fill="#D45925"/>
<path fill-rule="evenodd" clip-rule="evenodd" d="M523.997 105.721C524.779 106.432 525.388 107.313 525.777 108.296C526.092 109.236 526.343 110.197 526.529 111.171C526.984 113.04 527.736 114.83 528.139 116.707C528.824 119.913 528.475 123.253 527.141 126.248C526.668 127.293 526.076 128.298 525.83 129.419C525.737 129.848 525.694 130.294 525.57 130.716C525.367 131.306 525.085 131.865 524.732 132.38L519.276 141.159C518.852 140.123 518.004 139.318 516.947 138.95C515.897 138.596 514.772 138.528 513.687 138.754C514.093 138.115 514.272 137.4 514.685 136.758C514.911 136.417 515.119 136.064 515.307 135.7C515.493 135.305 515.655 134.9 515.793 134.486L516.508 132.466C517.346 130.107 518.171 127.749 518.907 125.353C519.35 123.958 519.701 122.536 519.958 121.095C520.038 120.728 520.047 120.35 519.985 119.98C519.873 119.615 519.702 119.271 519.479 118.962C518.685 117.616 517.997 116.21 517.42 114.757C516.987 113.742 516.551 112.601 516.94 111.57C517.188 111.024 517.554 110.54 518.012 110.153C519.825 108.445 521.834 106.958 523.997 105.721Z" fill="#0098C9"/>
<path opacity="0.1" d="M496.27 218.131L496.669 217.309C495.904 213.616 496.283 209.77 496.669 205.998L497.737 195.644C497.907 193.981 498.07 192.317 497.877 190.674C497.627 188.678 496.842 186.682 497.331 184.722C497.468 184.183 497.694 183.677 497.843 183.142C498.022 182.388 498.118 181.617 498.13 180.843L498.559 172.702C498.629 171.398 498.742 169.987 499.274 168.823V168.6L497.903 156.803L494.284 218.131H496.27Z" fill="black"/>
<path fill-rule="evenodd" clip-rule="evenodd" d="M448.215 105.363C454.536 105.363 459.66 100.238 459.66 93.9174C459.66 87.5964 454.536 82.4722 448.215 82.4722C441.894 82.4722 436.77 87.5964 436.77 93.9174C436.77 100.238 441.894 105.363 448.215 105.363Z" fill="#00B2B1"/>
<path d="M451.604 104.699C450.606 105.015 449.508 104.52 448.566 104.051C447.625 103.582 446.786 102.924 445.858 102.428C445.367 102.17 444.862 101.942 444.344 101.742C443.809 101.526 443.067 101.386 442.767 101.879C442.528 102.271 442.767 102.774 443.043 103.15C443.51 103.799 444.053 104.39 444.66 104.91C446.463 106.463 448.742 107.328 450.862 108.41C453.236 109.621 452.197 104.628 451.604 104.699Z" fill="#F8B79D"/>
<path fill-rule="evenodd" clip-rule="evenodd" d="M261.353 94.7914C263.418 94.7914 265.092 93.1174 265.092 91.0524C265.092 88.9875 263.418 87.3135 261.353 87.3135C259.288 87.3135 257.614 88.9875 257.614 91.0524C257.614 93.1174 259.288 94.7914 261.353 94.7914Z" fill="#3D1D0D"/>
<path fill-rule="evenodd" clip-rule="evenodd" d="M262.396 87.4164C263.712 87.4165 264.931 88.1088 265.606 89.239C266.281 90.3693 266.312 91.771 265.687 92.9298C266.571 91.8238 266.754 90.3132 266.16 89.0279C265.566 87.7426 264.297 86.9032 262.882 86.8597C261.467 86.8162 260.148 87.576 259.477 88.8224C260.185 87.9335 261.259 87.4159 262.396 87.4164Z" fill="#3D1D0D"/>
<path fill-rule="evenodd" clip-rule="evenodd" d="M254.366 91.0445C260.432 91.0445 265.349 86.1271 265.349 80.0613C265.349 73.9955 260.432 69.0781 254.366 69.0781C248.3 69.0781 243.383 73.9955 243.383 80.0613C243.383 86.1271 248.3 91.0445 254.366 91.0445Z" fill="#3D1D0D"/>
<path fill-rule="evenodd" clip-rule="evenodd" d="M245.747 73.2468C249.68 68.8226 256.413 68.3133 260.968 72.0952C260.878 72.0098 260.789 71.9237 260.696 71.8407C257.763 69.2337 253.663 68.3892 249.938 69.6254C246.214 70.8616 243.433 73.9907 242.641 77.8339C241.85 81.6772 243.169 85.6508 246.101 88.2578C246.195 88.3408 246.291 88.419 246.386 88.4982C242.097 84.4178 241.814 77.6717 245.747 73.2468Z" fill="#3D1D0D"/>
<path d="M218.159 216.234L215.367 223.122C215.367 223.122 202.336 229.637 206.432 232.243C210.527 234.849 219.09 230.568 219.09 230.568L220.766 228.334L223.372 228.52L227.467 227.031L229.143 218.282L218.159 216.234Z" fill="#008AB6"/>
<path d="M276.984 216.234L279.776 223.122C279.776 223.122 292.807 229.637 288.712 232.243C284.616 234.849 276.053 230.568 276.053 230.568L274.378 228.334L271.771 228.52L267.676 227.031L266.001 218.282L276.984 216.234Z" fill="#008AB6"/>
<path d="M249.247 86.1113C249.247 86.1113 250.178 94.6745 248.689 95.6053C247.199 96.536 257.252 97.8391 257.252 97.8391C257.252 97.8391 255.762 88.5313 259.486 86.1113H249.247Z" fill="#98471E"/>
<path d="M254.273 90.9515C258.18 90.9515 261.347 87.7844 261.347 83.8776C261.347 79.9708 258.18 76.8037 254.273 76.8037C250.366 76.8037 247.199 79.9708 247.199 83.8776C247.199 87.7844 250.366 90.9515 254.273 90.9515Z" fill="#9E4D24"/>
<path d="M258.183 94.1159C258.183 94.1159 260.955 92.8215 256.963 93.2825C252.971 93.7436 249.526 91.9751 249.526 91.9751C249.526 91.9751 248.317 90.7651 248.131 92.0682C247.945 93.3713 248.689 95.7913 244.594 96.1636C240.498 96.5359 236.775 95.419 235.286 98.2113C233.797 101.004 234.541 113.104 234.541 113.104C234.541 113.104 237.334 123.156 239.568 124.645C241.801 126.135 261.348 124.087 261.348 124.087L266.932 114.035V102.307C266.932 102.307 266.188 98.2113 260.975 99.3282C260.975 99.3282 257.625 98.5836 257.811 96.9082C257.997 95.2328 258.183 94.1159 258.183 94.1159Z" fill="#ECAF2B"/>
<path fill-rule="evenodd" clip-rule="evenodd" d="M245.896 119.433L244.221 118.316L242.36 119.433C242.36 119.433 241.801 123.715 239.567 124.646L240.498 130.975C240.498 130.975 238.264 139.166 239.94 145.495C239.94 145.495 209.782 213.442 216.298 217.165C222.813 220.888 240.312 223.122 241.615 221.447C242.918 219.771 255.577 153.5 255.577 153.5C255.577 153.5 251.481 219.399 263.023 220.702C274.564 222.005 284.803 220.888 283.872 219.027C282.941 217.165 271.958 146.612 271.958 146.612C271.958 146.612 268.794 130.044 262.464 126.693L263.365 120.455L261.534 120.178L258.741 121.109C258.741 121.109 252.226 124.087 245.896 119.433Z" fill="#E46732"/>
<path fill-rule="evenodd" clip-rule="evenodd" d="M239.195 95.9779C240.467 98.574 240.922 101.495 240.498 104.355C239.754 109.009 242.732 120.55 242.732 120.55L244.966 119.992C244.966 119.992 243.477 110.312 243.849 108.078C244.221 105.844 244.221 97.0948 242.36 95.9779C240.498 94.8609 239.195 95.9779 239.195 95.9779Z" fill="#E46732"/>
<path fill-rule="evenodd" clip-rule="evenodd" d="M260.844 99.8467L261.626 120.457L263.116 121.388C263.116 121.388 265.257 98.77 264.14 98.77H261.867C261.586 98.77 261.318 98.8853 261.124 99.0888C260.931 99.2924 260.83 99.5664 260.844 99.8467Z" fill="#E46732"/>
<path d="M243.757 120.085C244.271 120.085 244.687 119.668 244.687 119.154C244.687 118.64 244.271 118.223 243.757 118.223C243.243 118.223 242.826 118.64 242.826 119.154C242.826 119.668 243.243 120.085 243.757 120.085Z" fill="#6C63FF"/>
<path d="M262.371 121.016C262.885 121.016 263.301 120.599 263.301 120.085C263.301 119.571 262.885 119.154 262.371 119.154C261.857 119.154 261.44 119.571 261.44 120.085C261.44 120.599 261.857 121.016 262.371 121.016Z" fill="#6C63FF"/>
<path fill-rule="evenodd" clip-rule="evenodd" d="M248.224 75.0352V82.1091H249.862L251.947 79.8752L251.668 82.1091H258.909L258.462 79.8752L259.356 82.1091H260.51V75.0352H248.224Z" fill="#3D1D0D"/>
<path d="M247.107 83.412C247.564 83.412 247.935 82.9536 247.935 82.3881C247.935 81.8227 247.564 81.3643 247.107 81.3643C246.649 81.3643 246.278 81.8227 246.278 82.3881C246.278 82.9536 246.649 83.412 247.107 83.412Z" fill="#98471E"/>
<path d="M261.441 83.412C261.899 83.412 262.27 82.9536 262.27 82.3881C262.27 81.8227 261.899 81.3643 261.441 81.3643C260.983 81.3643 260.612 81.8227 260.612 82.3881C260.612 82.9536 260.983 83.412 261.441 83.412Z" fill="#98471E"/>
<path fill-rule="evenodd" clip-rule="evenodd" d="M251.611 158.016C264.209 158.016 274.422 147.803 274.422 135.205C274.422 122.606 264.209 112.393 251.611 112.393C239.012 112.393 228.799 122.606 228.799 135.205C228.799 147.803 239.012 158.016 251.611 158.016Z" fill="#00A2A2"/>
<path d="M265.257 119.992C265.257 119.992 256.787 118.41 256.228 121.202C255.67 123.994 265.629 122.784 265.629 122.784L265.257 119.992Z" fill="#98471E"/>
<path d="M265.071 100.817C265.071 100.817 285.362 117.013 281.639 120.922C277.916 124.831 263.768 123.715 263.768 123.715L264.699 119.061L272.89 118.13L268.794 114.034L265.071 114.407L265.071 100.817Z" fill="#ECAF2B"/>
<path d="M235.1 127.81L237.706 129.858C237.706 129.858 239.568 135.629 242.36 133.953C245.153 132.278 239.754 126.321 239.754 126.321L236.589 125.204L235.1 127.81Z" fill="#98471E"/>
<path d="M237.706 97.8394L235.106 98.6215C235.106 98.6215 217.042 111.987 216.298 115.71C215.553 119.433 219.835 121.481 219.835 121.481L236.03 129.113L237.706 124.646L230.073 120.736C230.073 120.736 230.632 119.62 228.398 119.433C226.164 119.247 225.792 116.827 225.792 116.827C225.792 116.827 230.259 109.939 232.679 111.429C235.099 112.918 235.844 114.035 235.844 114.035L237.706 97.8394Z" fill="#ECAF2B"/>
<path opacity="0.4" fill-rule="evenodd" clip-rule="evenodd" d="M152.364 183C124.82 183 102.492 161.062 102.492 134C102.492 106.938 124.82 85 152.364 85C179.908 85 202.236 106.938 202.236 134C202.236 161.062 179.908 183 152.364 183Z" stroke="#00A2A2"/>
<path opacity="0.45" fill-rule="evenodd" clip-rule="evenodd" d="M179.524 161.669C179.696 161.669 179.836 161.964 179.836 162.328C179.836 162.691 179.696 162.986 179.524 162.986H138.991C138.879 162.987 138.776 162.861 138.72 162.657C138.664 162.453 138.664 162.202 138.72 161.998C138.776 161.794 138.879 161.668 138.991 161.669H179.524ZM132.862 161.669C132.974 161.668 133.077 161.794 133.133 161.998C133.189 162.202 133.189 162.453 133.133 162.657C133.077 162.861 132.974 162.987 132.862 162.986H125.481C125.369 162.987 125.266 162.861 125.21 162.657C125.154 162.453 125.154 162.202 125.21 161.998C125.266 161.794 125.369 161.668 125.481 161.669H132.862ZM151.251 157.444C151.363 157.444 151.467 157.569 151.523 157.773C151.579 157.977 151.579 158.229 151.523 158.433C151.467 158.637 151.363 158.762 151.251 158.762H125.481C125.369 158.762 125.266 158.637 125.209 158.433C125.153 158.229 125.153 157.977 125.209 157.773C125.266 157.569 125.369 157.444 125.481 157.444H151.251ZM162.261 157.444C162.434 157.444 162.574 157.739 162.574 158.103C162.574 158.467 162.434 158.762 162.261 158.762H154.88C154.707 158.762 154.567 158.467 154.567 158.103C154.567 157.739 154.707 157.444 154.88 157.444H162.261ZM162.261 153.371C162.434 153.371 162.574 153.666 162.574 154.029C162.574 154.393 162.434 154.688 162.261 154.688H154.88C154.707 154.688 154.567 154.393 154.567 154.029C154.567 153.666 154.707 153.371 154.88 153.371H162.261ZM174.646 153.371C174.818 153.371 174.958 153.666 174.958 154.029C174.958 154.393 174.818 154.688 174.646 154.688H167.265C167.092 154.688 166.952 154.393 166.952 154.029C166.952 153.666 167.092 153.371 167.265 153.371H174.646ZM151.189 153.295C151.362 153.295 151.502 153.59 151.502 153.954C151.502 154.318 151.362 154.613 151.189 154.613H125.419C125.246 154.613 125.106 154.318 125.106 153.954C125.106 153.59 125.246 153.295 125.419 153.295H151.189ZM179.525 149.146C179.698 149.146 179.838 149.441 179.838 149.804C179.838 150.168 179.698 150.463 179.525 150.463H138.993C138.82 150.463 138.68 150.168 138.68 149.804C138.68 149.441 138.82 149.146 138.993 149.146H179.525ZM132.861 149.146C133.034 149.146 133.174 149.441 133.174 149.804C133.174 150.168 133.034 150.463 132.861 150.463H125.48C125.308 150.463 125.167 150.168 125.167 149.804C125.167 149.441 125.308 149.146 125.48 149.146H132.861ZM151.318 144.997C151.491 144.997 151.631 145.292 151.631 145.655C151.631 146.019 151.491 146.314 151.318 146.314H125.548C125.375 146.314 125.235 146.019 125.235 145.655C125.235 145.292 125.375 144.997 125.548 144.997H151.318Z" fill="#00A2A2"/>
<path opacity="0.45" fill-rule="evenodd" clip-rule="evenodd" d="M136.025 112.875L124.889 123.437L136.025 134L138.626 131.533L130.093 123.437L138.626 115.342L136.025 112.875ZM169.195 112.875L166.706 115.342L174.869 123.437L166.698 131.533L169.187 134L179.838 123.437L169.195 112.875ZM158.669 121.09V124.024H161.921V121.09H158.669ZM145.197 121.09V124.024H148.449V121.09H145.197ZM151.7 121.09V124.024H154.952V121.09H151.7Z" fill="#00A2A2"/>
<path fill-rule="evenodd" clip-rule="evenodd" d="M187.322 138.96C184.739 138.96 182.644 136.866 182.644 134.282C182.644 131.699 184.739 129.604 187.322 129.604C189.906 129.604 192 131.699 192 134.282C192 136.866 189.906 138.96 187.322 138.96Z" fill="#4BBCBC"/>
<path d="M147.801 53.5422C145.85 53.5422 144.253 51.9499 144.253 50.0038C144.253 48.0576 145.85 46.4653 147.801 46.4653C149.752 46.4653 151.348 48.0576 151.348 50.0038C151.348 51.9499 149.752 53.5422 147.801 53.5422Z" fill="#2CC0BF"/>
<path fill-rule="evenodd" clip-rule="evenodd" d="M319.556 166.034C315.453 166.034 312.097 162.678 312.097 158.575C312.097 154.473 315.453 151.116 319.556 151.116C323.658 151.116 327.015 154.473 327.015 158.575C327.015 162.678 323.658 166.034 319.556 166.034Z" fill="#59CECD"/>
</g>
<defs>
<clipPath id="clip0_5473_56336">
<rect width="528" height="235" fill="white"/>
</clipPath>
</defs>
</svg>
