<svg width="16" height="16" viewBox="0 0 16 16" fill="none" xmlns="http://www.w3.org/2000/svg">
<path d="M3.5335 13.6668C3.20016 13.6668 2.91683 13.5502 2.6835 13.3168C2.45016 13.0835 2.3335 12.8002 2.3335 12.4668V3.5335C2.3335 3.20016 2.45016 2.91683 2.6835 2.6835C2.91683 2.45016 3.20016 2.3335 3.5335 2.3335H7.75016V3.3335H3.5335C3.48905 3.3335 3.44461 3.35572 3.40016 3.40016C3.35572 3.44461 3.3335 3.48905 3.3335 3.5335V12.4668C3.3335 12.5113 3.35572 12.5557 3.40016 12.6002C3.44461 12.6446 3.48905 12.6668 3.5335 12.6668H12.4668C12.5113 12.6668 12.5557 12.6446 12.6002 12.6002C12.6446 12.5557 12.6668 12.5113 12.6668 12.4668V8.25016H13.6668V12.4668C13.6668 12.8002 13.5502 13.0835 13.3168 13.3168C13.0835 13.5502 12.8002 13.6668 12.4668 13.6668H3.5335ZM6.4835 10.2168L5.7835 9.51683L11.9668 3.3335H9.3335V2.3335H13.6668V6.66683H12.6668V4.0335L6.4835 10.2168Z" fill="#00233C"/>
</svg>
