<svg width="385" height="215" viewBox="0 0 385 215" fill="none" xmlns="http://www.w3.org/2000/svg">
<path opacity="0.6" d="M217.874 74.9175L304.057 74.5031" stroke="#FF5F02" stroke-linecap="square"/>
<path opacity="0.6" d="M251.677 122.259L304.057 74.5034" stroke="#FF5F02" stroke-linecap="square"/>
<path opacity="0.8" d="M199.628 139.486H172.278" stroke="#FF5F02" stroke-linecap="square"/>
<path opacity="0.6" d="M103.49 114.862H43.1708" stroke="#FF5F02" stroke-linecap="square"/>
<path opacity="0.6" d="M287.659 133.095L304.057 74.5034" stroke="#FF5F02" stroke-linecap="square"/>
<path opacity="0.6" d="M295.082 14.1523L304.056 74.5031" stroke="#FF5F02" stroke-linecap="square"/>
<path opacity="0.6" d="M267.779 50.0664L304.057 74.5034" stroke="#FF5F02" stroke-linecap="square"/>
<path opacity="0.6" d="M185.885 61.2426L154.913 30.9868H102.549" stroke="#FF5F02" stroke-linecap="square"/>
<path opacity="0.6" d="M42.9874 31.1546H4.03422" stroke="#FF5F02" stroke-linecap="square"/>
<path opacity="0.6" d="M185.885 88.1763L154.874 116.52L107.612 116.411" stroke="#FF5F02" stroke-linecap="square"/>
<path opacity="0.6" d="M181.315 74.9178H154.757" stroke="#FF5F02" stroke-linecap="square"/>
<path fill-rule="evenodd" clip-rule="evenodd" d="M154.758 79.8777C152.023 79.8777 149.785 77.6455 149.785 74.9173C149.785 72.1892 152.023 69.957 154.758 69.957C157.493 69.957 159.73 72.1892 159.73 74.9173C159.73 77.6455 157.493 79.8777 154.758 79.8777Z" fill="#3053F4"/>
<path fill-rule="evenodd" clip-rule="evenodd" d="M154.758 121.318C152.023 121.318 149.785 119.085 149.785 116.357C149.785 113.629 152.023 111.397 154.758 111.397C157.493 111.397 159.73 113.629 159.73 116.357C159.73 119.085 157.493 121.318 154.758 121.318Z" fill="#3053F4"/>
<path fill-rule="evenodd" clip-rule="evenodd" d="M154.758 35.9768C152.023 35.9768 149.785 33.739 149.785 31.004C149.785 28.269 152.023 26.0312 154.758 26.0312C157.493 26.0312 159.73 28.269 159.73 31.004C159.73 33.739 157.493 35.9768 154.758 35.9768Z" fill="#3053F4"/>
<path opacity="0.8" fill-rule="evenodd" clip-rule="evenodd" d="M199.594 88.5928C192.054 88.5928 185.884 82.439 185.884 74.9177C185.884 67.3965 192.054 61.2427 199.594 61.2427C207.134 61.2427 213.303 67.3965 213.303 74.9177C213.303 82.439 207.134 88.5928 199.594 88.5928Z" fill="#FF5F02"/>
<path opacity="0.4" fill-rule="evenodd" clip-rule="evenodd" d="M199.593 93.1509C189.54 93.1509 181.314 84.9459 181.314 74.9175C181.314 64.8891 189.54 56.6841 199.593 56.6841C209.647 56.6841 217.872 64.8891 217.872 74.9175C217.872 84.9459 209.647 93.1509 199.593 93.1509Z" fill="#FF5F02" stroke="#FF5F02"/>
<path opacity="0.8" fill-rule="evenodd" clip-rule="evenodd" d="M73.4864 56.5374C73.3914 56.5089 73.2907 56.4936 73.1865 56.4936C73.0795 56.4936 72.9762 56.5097 72.879 56.5396C58.8611 56.4291 47.5316 45.0313 47.5316 30.9873C47.5316 16.8746 58.9721 5.43408 73.0848 5.43408C87.1974 5.43408 98.6379 16.8746 98.6379 30.9873C98.6379 44.9658 87.4138 56.3228 73.4864 56.5374ZM85.5284 50.1143C85.5284 49.5383 85.9954 49.0713 86.5714 49.0713C87.1474 49.0713 87.6144 49.5383 87.6144 50.1143C87.6144 50.6903 87.1474 51.1573 86.5714 51.1573C85.9954 51.1573 85.5284 50.6903 85.5284 50.1143ZM59.8025 49.0713C59.2264 49.0713 58.7595 49.5383 58.7595 50.1143C58.7595 50.6903 59.2264 51.1573 59.8025 51.1573C60.3785 51.1573 60.8454 50.6903 60.8454 50.1143C60.8454 49.5383 60.3785 49.0713 59.8025 49.0713ZM66.4945 49.0713C65.9184 49.0713 65.4515 49.5383 65.4515 50.1143C65.4515 50.6903 65.9184 51.1573 66.4945 51.1573C67.0705 51.1573 67.5374 50.6903 67.5374 50.1143C67.5374 49.5383 67.0705 49.0713 66.4945 49.0713ZM78.8364 50.1143C78.8364 49.5383 79.3034 49.0713 79.8794 49.0713C80.4554 49.0713 80.9224 49.5383 80.9224 50.1143C80.9224 50.6903 80.4554 51.1573 79.8794 51.1573C79.3034 51.1573 78.8364 50.6903 78.8364 50.1143ZM72.1435 50.1143C72.1435 49.5383 72.6104 49.0713 73.1865 49.0713C73.7625 49.0713 74.2295 49.5383 74.2295 50.1143C74.2295 50.6903 73.7625 51.1573 73.1865 51.1573C72.6104 51.1573 72.1435 50.6903 72.1435 50.1143ZM66.4945 41.6493C65.9184 41.6493 65.4515 42.1162 65.4515 42.6922C65.4515 43.2683 65.9184 43.7352 66.4945 43.7352C67.0705 43.7352 67.5374 43.2683 67.5374 42.6922C67.5374 42.1162 67.0705 41.6493 66.4945 41.6493ZM58.7595 42.6922C58.7595 42.1162 59.2264 41.6493 59.8025 41.6493C60.3785 41.6493 60.8454 42.1162 60.8454 42.6922C60.8454 43.2683 60.3785 43.7352 59.8025 43.7352C59.2264 43.7352 58.7595 43.2683 58.7595 42.6922ZM53.1105 41.6493C52.5344 41.6493 52.0675 42.1162 52.0675 42.6922C52.0675 43.2683 52.5344 43.7352 53.1105 43.7352C53.6865 43.7352 54.1534 43.2683 54.1534 42.6922C54.1534 42.1162 53.6865 41.6493 53.1105 41.6493ZM78.8364 42.6922C78.8364 42.1162 79.3034 41.6493 79.8794 41.6493C80.4554 41.6493 80.9224 42.1162 80.9224 42.6922C80.9224 43.2683 80.4554 43.7352 79.8794 43.7352C79.3034 43.7352 78.8364 43.2683 78.8364 42.6922ZM73.1865 41.6493C72.6104 41.6493 72.1435 42.1162 72.1435 42.6922C72.1435 43.2683 72.6104 43.7352 73.1865 43.7352C73.7625 43.7352 74.2295 43.2683 74.2295 42.6922C74.2295 42.1162 73.7625 41.6493 73.1865 41.6493ZM92.2214 42.6922C92.2214 42.1162 92.6883 41.6493 93.2643 41.6493C93.8404 41.6493 94.3073 42.1162 94.3073 42.6922C94.3073 43.2683 93.8404 43.7352 93.2643 43.7352C92.6883 43.7352 92.2214 43.2683 92.2214 42.6922ZM86.5714 41.6493C85.9954 41.6493 85.5284 42.1162 85.5284 42.6922C85.5284 43.2683 85.9954 43.7352 86.5714 43.7352C87.1474 43.7352 87.6144 43.2683 87.6144 42.6922C87.6144 42.1162 87.1474 41.6493 86.5714 41.6493ZM65.4515 35.0147C65.4515 34.4387 65.9184 33.9717 66.4945 33.9717C67.0705 33.9717 67.5374 34.4387 67.5374 35.0147C67.5374 35.5907 67.0705 36.0577 66.4945 36.0577C65.9184 36.0577 65.4515 35.5907 65.4515 35.0147ZM59.8025 33.9717C59.2264 33.9717 58.7595 34.4387 58.7595 35.0147C58.7595 35.5907 59.2264 36.0577 59.8025 36.0577C60.3785 36.0577 60.8454 35.5907 60.8454 35.0147C60.8454 34.4387 60.3785 33.9717 59.8025 33.9717ZM52.0675 35.0147C52.0675 34.4387 52.5344 33.9717 53.1105 33.9717C53.6865 33.9717 54.1534 34.4387 54.1534 35.0147C54.1534 35.5907 53.6865 36.0577 53.1105 36.0577C52.5344 36.0577 52.0675 35.5907 52.0675 35.0147ZM79.8794 33.9717C79.3034 33.9717 78.8364 34.4387 78.8364 35.0147C78.8364 35.5907 79.3034 36.0577 79.8794 36.0577C80.4554 36.0577 80.9224 35.5907 80.9224 35.0147C80.9224 34.4387 80.4554 33.9717 79.8794 33.9717ZM72.1435 35.0147C72.1435 34.4387 72.6104 33.9717 73.1865 33.9717C73.7625 33.9717 74.2295 34.4387 74.2295 35.0147C74.2295 35.5907 73.7625 36.0577 73.1865 36.0577C72.6104 36.0577 72.1435 35.5907 72.1435 35.0147ZM93.2643 33.9717C92.6883 33.9717 92.2214 34.4387 92.2214 35.0147C92.2214 35.5907 92.6883 36.0577 93.2643 36.0577C93.8404 36.0577 94.3073 35.5907 94.3073 35.0147C94.3073 34.4387 93.8404 33.9717 93.2643 33.9717ZM85.5284 35.0147C85.5284 34.4387 85.9954 33.9717 86.5714 33.9717C87.1474 33.9717 87.6144 34.4387 87.6144 35.0147C87.6144 35.5907 87.1474 36.0577 86.5714 36.0577C85.9954 36.0577 85.5284 35.5907 85.5284 35.0147ZM66.4945 26.5494C65.9184 26.5494 65.4515 27.0164 65.4515 27.5924C65.4515 28.1685 65.9184 28.6354 66.4945 28.6354C67.0705 28.6354 67.5374 28.1685 67.5374 27.5924C67.5374 27.0164 67.0705 26.5494 66.4945 26.5494ZM58.7595 27.5924C58.7595 27.0164 59.2264 26.5494 59.8025 26.5494C60.3785 26.5494 60.8454 27.0164 60.8454 27.5924C60.8454 28.1685 60.3785 28.6354 59.8025 28.6354C59.2264 28.6354 58.7595 28.1685 58.7595 27.5924ZM53.1105 26.5494C52.5344 26.5494 52.0675 27.0164 52.0675 27.5924C52.0675 28.1685 52.5344 28.6354 53.1105 28.6354C53.6865 28.6354 54.1534 28.1685 54.1534 27.5924C54.1534 27.0164 53.6865 26.5494 53.1105 26.5494ZM78.8364 27.5924C78.8364 27.0164 79.3034 26.5494 79.8794 26.5494C80.4554 26.5494 80.9224 27.0164 80.9224 27.5924C80.9224 28.1685 80.4554 28.6354 79.8794 28.6354C79.3034 28.6354 78.8364 28.1685 78.8364 27.5924ZM73.1865 26.5494C72.6104 26.5494 72.1435 27.0164 72.1435 27.5924C72.1435 28.1685 72.6104 28.6354 73.1865 28.6354C73.7625 28.6354 74.2295 28.1685 74.2295 27.5924C74.2295 27.0164 73.7625 26.5494 73.1865 26.5494ZM92.2214 27.5924C92.2214 27.0164 92.6883 26.5494 93.2643 26.5494C93.8404 26.5494 94.3073 27.0164 94.3073 27.5924C94.3073 28.1685 93.8404 28.6354 93.2643 28.6354C92.6883 28.6354 92.2214 28.1685 92.2214 27.5924ZM86.5714 26.5494C85.9954 26.5494 85.5284 27.0164 85.5284 27.5924C85.5284 28.1685 85.9954 28.6354 86.5714 28.6354C87.1474 28.6354 87.6144 28.1685 87.6144 27.5924C87.6144 27.0164 87.1474 26.5494 86.5714 26.5494ZM65.4515 20.1703C65.4515 19.5942 65.9184 19.1273 66.4945 19.1273C67.0705 19.1273 67.5374 19.5942 67.5374 20.1703C67.5374 20.7463 67.0705 21.2133 66.4945 21.2133C65.9184 21.2133 65.4515 20.7463 65.4515 20.1703ZM59.8025 19.1273C59.2264 19.1273 58.7595 19.5942 58.7595 20.1703C58.7595 20.7463 59.2264 21.2133 59.8025 21.2133C60.3785 21.2133 60.8454 20.7463 60.8454 20.1703C60.8454 19.5942 60.3785 19.1273 59.8025 19.1273ZM52.0675 20.1703C52.0675 19.5942 52.5344 19.1273 53.1105 19.1273C53.6865 19.1273 54.1534 19.5942 54.1534 20.1703C54.1534 20.7463 53.6865 21.2133 53.1105 21.2133C52.5344 21.2133 52.0675 20.7463 52.0675 20.1703ZM79.8794 19.1273C79.3034 19.1273 78.8364 19.5942 78.8364 20.1703C78.8364 20.7463 79.3034 21.2133 79.8794 21.2133C80.4554 21.2133 80.9224 20.7463 80.9224 20.1703C80.9224 19.5942 80.4554 19.1273 79.8794 19.1273ZM72.1435 20.1703C72.1435 19.5942 72.6104 19.1273 73.1865 19.1273C73.7625 19.1273 74.2295 19.5942 74.2295 20.1703C74.2295 20.7463 73.7625 21.2133 73.1865 21.2133C72.6104 21.2133 72.1435 20.7463 72.1435 20.1703ZM93.2643 19.1273C92.6883 19.1273 92.2214 19.5942 92.2214 20.1703C92.2214 20.7463 92.6883 21.2133 93.2643 21.2133C93.8404 21.2133 94.3073 20.7463 94.3073 20.1703C94.3073 19.5942 93.8404 19.1273 93.2643 19.1273ZM85.5284 20.1703C85.5284 19.5942 85.9954 19.1273 86.5714 19.1273C87.1474 19.1273 87.6144 19.5942 87.6144 20.1703C87.6144 20.7463 87.1474 21.2133 86.5714 21.2133C85.9954 21.2133 85.5284 20.7463 85.5284 20.1703ZM66.4945 11.705C65.9184 11.705 65.4515 12.172 65.4515 12.748C65.4515 13.324 65.9184 13.791 66.4945 13.791C67.0705 13.791 67.5374 13.324 67.5374 12.748C67.5374 12.172 67.0705 11.705 66.4945 11.705ZM58.7595 12.748C58.7595 12.172 59.2264 11.705 59.8025 11.705C60.3785 11.705 60.8454 12.172 60.8454 12.748C60.8454 13.324 60.3785 13.791 59.8025 13.791C59.2264 13.791 58.7595 13.324 58.7595 12.748ZM78.8364 12.748C78.8364 12.172 79.3034 11.705 79.8794 11.705C80.4554 11.705 80.9224 12.172 80.9224 12.748C80.9224 13.324 80.4554 13.791 79.8794 13.791C79.3034 13.791 78.8364 13.324 78.8364 12.748ZM73.1865 11.705C72.6104 11.705 72.1435 12.172 72.1435 12.748C72.1435 13.324 72.6104 13.791 73.1865 13.791C73.7625 13.791 74.2295 13.324 74.2295 12.748C74.2295 12.172 73.7625 11.705 73.1865 11.705ZM86.5714 11.705C85.9954 11.705 85.5284 12.172 85.5284 12.748C85.5284 13.324 85.9954 13.791 86.5714 13.791C87.1474 13.791 87.6144 13.324 87.6144 12.748C87.6144 12.172 87.1474 11.705 86.5714 11.705Z" fill="#FF5F02"/>
<path opacity="0.5" fill-rule="evenodd" clip-rule="evenodd" d="M73.0107 60.6297C56.6737 60.6297 43.3071 47.2965 43.3071 31.0004C43.3071 14.7043 56.6737 1.37109 73.0107 1.37109C89.3476 1.37109 102.714 14.7043 102.714 31.0004C102.714 47.2965 89.3476 60.6297 73.0107 60.6297Z" stroke="#FF5F02"/>
<path fill-rule="evenodd" clip-rule="evenodd" d="M102.548 33.4737C101.181 33.4737 100.062 32.3549 100.062 30.9874C100.062 29.6198 101.181 28.501 102.548 28.501C103.916 28.501 105.035 29.6198 105.035 30.9874C105.035 32.3549 103.916 33.4737 102.548 33.4737Z" fill="#3053F4"/>
<path fill-rule="evenodd" clip-rule="evenodd" d="M43.6215 33.4737C42.254 33.4737 41.1352 32.3549 41.1352 30.9874C41.1352 29.6198 42.254 28.501 43.6215 28.501C44.989 28.501 46.1079 29.6198 46.1079 30.9874C46.1079 32.3549 44.989 33.4737 43.6215 33.4737Z" fill="#3053F4"/>
<path fill-rule="evenodd" clip-rule="evenodd" d="M295.082 17.6469C293.152 17.6469 291.588 16.0825 291.588 14.1526C291.588 12.2227 293.152 10.6582 295.082 10.6582C297.012 10.6582 298.577 12.2227 298.577 14.1526C298.577 16.0825 297.012 17.6469 295.082 17.6469Z" fill="#3053F4"/>
<path d="M348.77 120.723C346.388 120.723 344.458 118.793 344.458 116.411C344.458 114.03 346.388 112.099 348.77 112.099C351.151 112.099 353.082 114.03 353.082 116.411C353.082 118.793 351.151 120.723 348.77 120.723Z" fill="#00A2A2"/>
<path d="M346.666 86.6899C343.449 86.6899 340.842 84.0824 340.842 80.8659C340.842 77.6495 343.449 75.042 346.666 75.042C349.882 75.042 352.49 77.6495 352.49 80.8659C352.49 84.0824 349.882 86.6899 346.666 86.6899Z" fill="#00B2B1"/>
<path fill-rule="evenodd" clip-rule="evenodd" d="M267.778 54.1433C265.526 54.1433 263.701 52.318 263.701 50.0665C263.701 47.815 265.526 45.9897 267.778 45.9897C270.029 45.9897 271.854 47.815 271.854 50.0665C271.854 52.318 270.029 54.1433 267.778 54.1433Z" fill="#3053F4"/>
<path opacity="0.8" fill-rule="evenodd" clip-rule="evenodd" d="M228.296 114.802C237.157 114.802 244.927 119.471 249.281 126.483L249.355 126.602L233.532 126.603V127.864L250.078 127.864C250.392 128.451 250.682 129.051 250.949 129.665L231.582 129.666V130.927H251.455C251.673 131.517 251.87 132.118 252.043 132.728L231.582 132.729V133.99L252.365 133.99L252.265 133.567L252.043 132.728C252.35 133.811 252.586 134.923 252.744 136.06L252.705 135.791L231.582 135.792V137.053L252.861 137.053L252.862 137.061C252.919 137.653 252.956 138.251 252.971 138.854L234.154 138.855V140.116L252.971 140.116C252.961 140.518 252.942 140.918 252.913 141.316L252.861 141.917L240.932 141.918V143.179L252.705 143.179C252.452 144.862 252.03 146.489 251.455 148.043L234.908 148.044V149.305L250.949 149.305C247.152 158.051 238.438 164.169 228.296 164.169C214.663 164.169 203.612 153.118 203.612 139.485C203.612 125.853 214.663 114.802 228.296 114.802ZM239.965 151.106H231.583V152.367H239.965V151.106ZM229.358 151.106H219.906V152.367H229.358V151.106ZM215.319 151.106H211.566V152.367H215.319V151.106ZM232.695 148.043H223.243V149.304H232.695V148.043ZM215.319 148.043H211.566V149.304H215.319V148.043ZM252.365 144.981L240.452 144.981V146.242L252.043 146.242C252.122 145.965 252.196 145.685 252.265 145.404L252.365 144.981ZM238.255 144.981H228.803V146.242H238.255V144.981ZM215.319 144.981H211.566V146.242H215.319V144.981ZM238.81 141.917H229.359V143.179H238.81V141.917ZM215.319 141.917H211.566V143.179H215.319V141.917ZM232.695 138.855H223.243V140.116H232.695V138.855ZM215.319 138.855H211.566V140.116H215.319V138.855ZM229.358 135.791H219.906V137.052H229.358V135.791ZM215.319 135.791H211.566V137.052H215.319V135.791ZM229.358 132.728H219.906V133.99H229.358V132.728ZM215.319 132.728H211.566V133.99H215.319V132.728ZM229.358 129.666H219.906V130.927H229.358V129.666ZM215.319 129.666H211.566V130.927H215.319V129.666ZM232.067 126.602H222.616V127.864H232.067V126.602ZM215.319 126.602H211.566V127.864H215.319V126.602Z" fill="#FF5F02"/>
<path opacity="0.4" fill-rule="evenodd" clip-rule="evenodd" d="M228.293 167.872C243.97 167.872 256.679 155.163 256.679 139.486C256.679 123.809 243.97 111.1 228.293 111.1C212.616 111.1 199.907 123.809 199.907 139.486C199.907 155.163 212.616 167.872 228.293 167.872Z" fill="#FF5F02" stroke="#FF5F02"/>
<path fill-rule="evenodd" clip-rule="evenodd" d="M287.658 138.242C284.764 138.242 282.417 135.896 282.417 133.001C282.417 130.106 284.764 127.759 287.658 127.759C290.553 127.759 292.9 130.106 292.9 133.001C292.9 135.896 290.553 138.242 287.658 138.242Z" fill="#3053F4"/>
<path d="M311.523 87.6736C311.403 87.2826 311.318 86.8818 311.27 86.4759C311.053 85.2816 310.501 84.1804 309.959 83.0925C309.873 82.8696 309.724 82.6766 309.53 82.5369C309.155 82.3703 308.715 82.5051 308.498 82.8529C308.302 83.2 308.223 83.6018 308.276 83.9974C308.305 84.4365 308.372 84.9389 308.063 85.2483C307.934 85.3625 307.78 85.4446 307.613 85.4878C306.615 85.8039 305.508 85.5211 304.566 85.052C303.625 84.5829 302.786 83.9242 301.858 83.4285C301.367 83.1711 300.862 82.9423 300.344 82.7431C299.809 82.5269 299.067 82.3872 298.767 82.8795C298.528 83.2721 298.767 83.7745 299.043 84.1504C299.51 84.7995 300.053 85.3903 300.66 85.9103C302.463 87.464 304.742 88.329 306.862 89.4102C309.236 90.6219 311.449 92.1263 313.449 93.8882C313.643 93.6583 313.759 93.3731 313.782 93.0732C313.941 92.2248 314.643 90.5081 313.935 89.7729C313.159 88.9644 311.952 88.9112 311.523 87.6736Z" fill="#F8B79D"/>
<path fill-rule="evenodd" clip-rule="evenodd" d="M344.888 201.916C346.664 203.302 348.914 203.933 351.152 203.672C351.618 203.616 352.15 203.449 352.303 203.007C352.359 202.738 352.329 202.459 352.217 202.208C351.865 201.371 351.594 200.502 351.408 199.613C351.292 198.805 351.322 197.844 350.663 197.358C349.712 196.656 347.223 196.692 346.604 197.78C346.458 198.013 345.526 202.451 344.888 201.916Z" fill="#CED3DA"/>
<path fill-rule="evenodd" clip-rule="evenodd" d="M358.291 197.99C358.245 198.168 358.278 198.358 358.382 198.51C358.486 198.662 358.651 198.761 358.833 198.782C360.361 199.255 361.946 199.52 363.544 199.57L363.212 196.37C363.225 196.225 363.174 196.082 363.072 195.978C362.97 195.874 362.828 195.821 362.683 195.831C361.764 195.678 359.835 195.056 358.953 195.375C357.962 195.734 358.311 197.035 358.291 197.99Z" fill="#CED3DA"/>
<path d="M348.999 70.3333C349.257 71.005 349.385 71.7197 349.375 72.4392C349.458 75.0176 349.016 77.8022 347.219 79.6519C349.235 79.0498 351.501 79.4124 353.404 78.5141C354.286 78.0983 355.028 77.4362 355.853 76.9206C357.323 76.0023 359.036 75.5565 360.567 74.7381C362.097 73.9197 363.514 72.539 363.601 70.809C362.936 70.1104 361.868 70.0106 360.996 69.5881C360.058 69.129 359.363 68.2906 358.7 67.4821C357.919 66.5909 357.235 65.6196 356.658 64.5844C356.078 63.5416 355.845 62.3416 355.992 61.1577C354.292 61.4638 353.058 62.9476 351.451 63.583C350.826 63.8292 350.15 63.9423 349.542 64.2251C348.673 64.6243 346.913 65.9817 346.88 67.0463C346.883 68.2074 348.547 69.3086 348.999 70.3333Z" fill="#F8B79D"/>
<path opacity="0.173684" d="M348.999 70.3333C349.257 71.005 349.385 71.7197 349.375 72.4392C349.458 75.0176 349.016 77.8022 347.219 79.6519C349.235 79.0498 351.501 79.4124 353.404 78.5141C354.286 78.0983 355.028 77.4362 355.853 76.9206C357.323 76.0023 359.036 75.5565 360.567 74.7381C362.097 73.9197 363.514 72.539 363.601 70.809C362.936 70.1104 361.868 70.0106 360.996 69.5881C360.058 69.129 359.363 68.2906 358.7 67.4821C357.919 66.5909 357.235 65.6196 356.658 64.5844C356.078 63.5416 355.845 62.3416 355.992 61.1577C354.292 61.4638 353.058 62.9476 351.451 63.583C350.826 63.8292 350.15 63.9423 349.542 64.2251C348.673 64.6243 346.913 65.9817 346.88 67.0463C346.883 68.2074 348.547 69.3086 348.999 70.3333Z" fill="#F3753F"/>
<path d="M370.888 137.524C370.259 142.594 369.823 147.864 368.995 152.91C368.662 155.023 369.075 157.235 368.493 159.298C368.243 160.18 367.827 161.008 367.644 161.903C367.381 163.267 367.727 164.661 367.977 166.025C368.589 169.435 368.589 172.925 368.579 176.392C368.579 178.258 368.579 180.141 368.203 181.974C367.757 184.2 366.799 186.299 366.264 188.488C365.575 191.283 365.641 194.45 365.874 197.318C365.249 197.092 364.544 197.318 363.951 197.601C363.359 197.883 362.76 198.266 362.098 198.309C361.203 198.393 360.362 197.92 359.59 197.461C358.998 197.112 358.482 196.796 357.893 196.436C357.318 191.446 356.742 186.436 356.765 181.409C356.765 178.488 356.995 175.56 356.765 172.646C356.536 169.731 355.867 166.91 356.003 164.029C356.067 162.718 356.29 161.427 356.439 160.127C356.932 155.915 356.865 151.876 356.569 147.647C356.28 147.721 356.163 148.186 356.27 148.462C355.847 148.845 355.507 149.311 355.271 149.83C354.739 150.994 354.626 152.405 354.556 153.709L354.127 161.85C354.116 162.624 354.02 163.395 353.841 164.149C353.691 164.684 353.465 165.19 353.329 165.729C352.84 167.679 353.625 169.688 353.874 171.681C354.077 173.344 353.904 175.008 353.734 176.651L352.667 187.005C352.277 190.771 351.898 194.616 352.667 198.316C352.716 198.546 352.766 198.778 352.826 199.011C352.643 199.064 352.456 199.107 352.267 199.138C351.605 199.231 350.933 199.231 350.271 199.138C349.652 199.075 349.027 198.968 348.415 198.895C346.944 198.729 345.477 198.665 344.502 199.776C343.019 193.049 341.528 186.219 341.924 179.343C342.064 176.921 342.436 174.515 342.692 172.103C343.092 168.37 343.212 164.613 343.052 160.862C342.719 152.724 341.056 144.676 340.78 136.536C340.723 134.799 340.73 133.046 340.384 131.342C340.004 129.496 339.216 127.683 339.279 125.81C339.342 123.937 340.71 121.857 342.606 121.96C347.839 122.25 352.62 119.362 357.84 118.87C360.209 118.643 362.617 118.307 364.963 118.73C367.308 119.152 369.644 120.48 370.565 122.676C371.064 123.87 371.104 125.194 371.141 126.485C371.247 130.171 371.344 133.867 370.888 137.524Z" fill="#333A3E"/>
<path fill-rule="evenodd" clip-rule="evenodd" d="M344.599 201.39C343.734 201.922 343.438 203.01 342.935 203.892C341.834 205.811 339.672 206.796 337.895 208.114C337.043 208.749 336.185 209.711 336.454 210.739C339.529 211.594 342.875 212.355 345.84 211.174C347.041 210.695 348.168 209.904 349.456 209.864C350.437 209.834 351.452 210.246 352.374 209.963C352.606 209.909 352.812 209.773 352.953 209.581C353.061 209.376 353.113 209.147 353.106 208.915C353.186 207.345 353.178 205.771 353.082 204.201C352.989 202.668 353.195 201.583 351.445 201.65C349.436 201.736 346.342 200.315 344.599 201.39Z" fill="#00233C"/>
<path fill-rule="evenodd" clip-rule="evenodd" d="M359.329 198.662C358.966 198.517 358.582 198.431 358.192 198.406C357.519 198.459 356.912 198.83 356.558 199.404C356.214 199.973 355.965 200.593 355.82 201.241C355.65 201.715 355.579 202.219 355.613 202.721C355.743 203.673 356.585 204.385 356.808 205.323C357.21 207.016 355.477 208.843 356.269 210.4C356.771 211.398 358.032 211.677 359.133 211.85C360.817 212.116 362.729 212.326 364.054 211.251C364.774 210.658 365.189 209.773 365.185 208.839C365.165 207.615 364.43 206.527 364.097 205.349C363.634 203.686 364.33 201.484 363.594 199.963C362.966 198.662 360.67 199.092 359.329 198.662Z" fill="#00233C"/>
<path d="M349.562 69.1628C354.337 69.1628 358.208 65.2916 358.208 60.5162C358.208 55.7408 354.337 51.8696 349.562 51.8696C344.787 51.8696 340.915 55.7408 340.915 60.5162C340.915 65.2916 344.787 69.1628 349.562 69.1628Z" fill="#F8B79D"/>
<path fill-rule="evenodd" clip-rule="evenodd" d="M354.146 74.6853C353.214 74.2887 352.177 74.2104 351.195 74.4624L350.407 73.0883C350.074 72.4829 349.578 71.7975 348.883 71.8241C348.366 71.891 347.935 72.2539 347.782 72.7523C347.637 73.2409 347.579 73.7508 347.609 74.2594C347.655 74.5809 347.542 74.9048 347.306 75.1277C347.177 75.1986 347.034 75.2416 346.887 75.2542C346.349 75.3488 345.805 75.4022 345.26 75.4138C344.355 75.4138 343.387 75.1943 342.598 75.6201C341.81 76.046 341.444 76.9509 341.061 77.7826C340.503 78.967 339.775 80.0633 338.899 81.0363C337.924 82.1175 336.716 83.1422 336.44 84.5728C336.324 85.1816 336.876 85.6341 337.315 86.0732C339.062 87.8065 341.497 88.8711 342.791 90.9671C343.094 91.4561 343.34 92.0084 343.806 92.3444C343.517 92.9732 344.139 93.6186 344.269 94.294C344.32 94.7356 344.332 95.1809 344.305 95.6247C344.363 96.2749 344.474 96.9192 344.638 97.551C344.808 98.5823 344.887 99.6265 344.874 100.672L344.931 104.172C344.954 105.682 344.977 107.206 344.648 108.679C344.199 110.676 343.101 112.589 343.187 114.641C343.251 115.026 343.212 115.421 343.074 115.786C342.166 117.449 341.451 119.292 340.476 120.936C340.198 121.334 339.974 121.769 339.81 122.227C339.551 123.175 340.083 124.203 340.868 124.795C341.654 125.387 342.645 125.63 343.61 125.813C352.572 127.53 361.878 125.464 370.348 122.07C370.571 122 370.778 121.887 370.957 121.738C371.576 121.135 371.09 120.121 370.737 119.336C369.407 116.411 370.468 113.014 370.278 109.821C370.152 107.668 369.453 105.496 369.979 103.393C370.311 101.989 371.2 100.778 371.815 99.4673C372.481 98.0467 372.853 96.4731 373.725 95.1756C374.378 94.284 375.141 93.479 375.997 92.7802L381.403 87.9629C380.688 86.8018 380.658 85.3446 380.322 84.0239C380.029 82.8861 379.447 81.8414 379.098 80.7236C378.612 79.1666 378.546 77.3967 377.541 76.1225C377.145 75.6135 376.629 75.2176 376.187 74.7485C375.681 74.2095 375.282 73.5807 374.766 73.0517C373.272 71.5214 371.02 71.0357 368.894 70.8294C366.768 70.6231 364.569 70.6131 362.6 69.7614C361.635 69.3456 360.604 68.7168 359.606 69.0295C358.814 69.2757 358.305 70.0509 357.982 70.8194C357.659 71.5879 357.433 72.4163 356.904 73.0584C356.252 73.8236 355.098 74.3293 354.146 74.6853Z" fill="#5E7484"/>
<path fill-rule="evenodd" clip-rule="evenodd" d="M328.42 91.9451C328.107 92.4635 327.696 92.9156 327.209 93.2758C326.211 93.8913 324.943 93.5653 323.829 93.2193C320.738 92.2578 317.628 91.293 314.743 89.8259C314.6 89.7302 314.428 89.6889 314.257 89.7094C314.124 89.7523 314.008 89.8361 313.925 89.949C313.471 90.4518 313.054 90.9866 312.677 91.5492C312.279 92.0711 312.028 92.6904 311.952 93.3424C311.957 94.1457 312.307 94.9081 312.913 95.435C313.515 95.9483 314.187 96.3729 314.91 96.6959C318.589 98.5323 322.293 100.321 326.021 102.062C326.26 102.195 326.524 102.277 326.797 102.302C327.555 102.318 328.037 101.53 328.643 101.077C329.248 100.625 330.044 100.499 330.766 100.259C332.07 99.8298 333.204 99.0114 334.315 98.203L337.868 95.6213C340.982 93.359 344.253 90.8938 345.613 87.3041L341.288 85.8802C339.991 85.451 338.627 84.7989 337.28 84.5494C336.282 84.3564 335.08 85.6739 334.332 86.2361C333.28 87.0165 332.268 87.8504 331.301 88.7346C330.343 89.6129 329.026 90.7374 328.42 91.9451Z" fill="#5E7484"/>
<path d="M369.358 120.347C368.137 120.832 366.753 120.101 365.458 120.317C364.852 120.452 364.273 120.692 363.748 121.025L359.969 123.138C359.736 123.264 359.483 123.574 359.686 123.74C359.745 123.779 359.812 123.802 359.883 123.807C361.143 123.97 362.321 123.201 363.575 122.988C364.127 122.913 364.684 122.892 365.239 122.925C365.33 122.92 365.422 122.933 365.508 122.965C365.696 123.072 365.805 123.278 365.788 123.494C365.788 123.707 365.725 123.913 365.718 124.126C365.756 124.617 365.948 125.082 366.267 125.457C367.47 127.183 368.804 128.814 370.259 130.334C370.628 129.867 370.947 129.363 371.211 128.83L372.455 126.501C373.746 124.099 375.067 121.608 375.273 118.89C374.341 118.593 372.611 117.612 371.65 118.128C370.688 118.643 370.465 119.991 369.358 120.347Z" fill="#F8B79D"/>
<path fill-rule="evenodd" clip-rule="evenodd" d="M348.467 59.1353C350.902 59.3948 353.125 60.5459 355.304 61.6771C354.931 62.2626 355.404 63.1043 356.066 63.3039C356.728 63.5036 357.453 63.2208 358.015 62.8116C358.578 62.4024 359.04 61.8734 359.606 61.4808C360.091 61.1481 360.71 60.7955 360.763 60.2033C360.817 59.6111 360.258 59.1553 359.908 58.6629C358.654 56.903 360.041 54.1483 358.757 52.4084C358.112 51.5367 356.991 51.2073 355.996 50.7815C354.619 50.196 353.364 49.3509 351.984 48.7687C350.603 48.1865 349.013 47.8838 347.622 48.436C345.02 49.4707 344.089 53.0272 341.447 53.9554C341.163 54.0114 340.905 54.1585 340.712 54.3745C340.379 54.8802 339.964 57.8711 340.047 58.4866C340.173 59.5146 340.456 59.8939 341.467 60.1999C343.63 60.8454 346.152 58.8858 348.467 59.1353Z" fill="#D45925"/>
<path fill-rule="evenodd" clip-rule="evenodd" d="M379.997 86.7217C380.779 87.4326 381.388 88.3135 381.777 89.2967C382.092 90.2367 382.343 91.197 382.529 92.1711C382.984 94.0409 383.736 95.8307 384.139 97.7071C384.824 100.913 384.475 104.254 383.141 107.249C382.668 108.293 382.076 109.298 381.83 110.419C381.737 110.848 381.694 111.294 381.57 111.717C381.367 112.306 381.085 112.866 380.732 113.38L375.276 122.16C374.852 121.123 374.004 120.319 372.947 119.951C371.897 119.596 370.772 119.529 369.687 119.754C370.093 119.116 370.272 118.4 370.685 117.758C370.911 117.417 371.119 117.064 371.307 116.7C371.493 116.306 371.655 115.9 371.793 115.486L372.508 113.467C373.346 111.108 374.171 108.749 374.907 106.354C375.35 104.959 375.701 103.536 375.958 102.095C376.038 101.729 376.047 101.351 375.985 100.981C375.873 100.616 375.702 100.272 375.479 99.9627C374.685 98.6161 373.997 97.2102 373.42 95.7575C372.987 94.7428 372.551 93.6017 372.94 92.5704C373.188 92.0243 373.554 91.5402 374.012 91.1531C375.825 89.4456 377.834 87.9582 379.997 86.7217Z" fill="#5E7484"/>
<path opacity="0.1" d="M352.27 199.131L352.669 198.31C351.904 194.617 352.283 190.771 352.669 186.998L353.737 176.645C353.907 174.981 354.07 173.318 353.877 171.674C353.627 169.678 352.842 167.682 353.331 165.723C353.468 165.184 353.694 164.678 353.843 164.142C354.022 163.389 354.118 162.618 354.13 161.843L354.559 153.702C354.629 152.398 354.742 150.988 355.274 149.823V149.6L353.903 137.803L350.284 199.131H352.27Z" fill="black"/>
<path fill-rule="evenodd" clip-rule="evenodd" d="M304.215 86.3631C310.536 86.3631 315.66 81.2389 315.66 74.9179C315.66 68.5968 310.536 63.4727 304.215 63.4727C297.894 63.4727 292.77 68.5968 292.77 74.9179C292.77 81.2389 297.894 86.3631 304.215 86.3631Z" fill="#3053F4"/>
<path d="M307.604 85.6995C306.606 86.0155 305.508 85.5209 304.566 85.0518C303.625 84.5827 302.786 83.924 301.858 83.4283C301.367 83.1709 300.862 82.9421 300.344 82.7429C299.809 82.5267 299.067 82.387 298.767 82.8793C298.528 83.2719 298.767 83.7743 299.043 84.1502C299.51 84.7993 300.053 85.3901 300.66 85.9102C302.463 87.4638 304.742 88.3288 306.862 89.41C309.236 90.6217 308.197 85.6282 307.604 85.6995Z" fill="#F8B79D"/>
<path opacity="0.2" fill-rule="evenodd" clip-rule="evenodd" d="M103.092 173.562C76.0301 173.562 54.092 150.378 54.092 121.779C54.092 93.1802 76.0301 69.9961 103.092 69.9961C130.154 69.9961 152.092 93.1802 152.092 121.779C152.092 150.378 130.154 173.562 103.092 173.562Z" fill="#FF5F02" stroke="#FF5F02"/>
<path opacity="0.45" fill-rule="evenodd" clip-rule="evenodd" d="M129.777 151.019C129.946 151.019 130.084 151.331 130.084 151.716C130.084 152.1 129.946 152.412 129.777 152.412H89.953C89.8431 152.412 89.7414 152.28 89.6864 152.064C89.6313 151.849 89.6313 151.583 89.6864 151.367C89.7414 151.152 89.8431 151.019 89.953 151.019H129.777ZM83.9308 151.019C84.0407 151.019 84.1424 151.152 84.1974 151.367C84.2525 151.583 84.2525 151.849 84.1974 152.064C84.1424 152.28 84.0407 152.412 83.9308 152.412H76.6789C76.569 152.412 76.4673 152.28 76.4123 152.064C76.3572 151.849 76.3572 151.583 76.4123 151.367C76.4673 151.152 76.569 151.019 76.6789 151.019H83.9308ZM101.999 146.555C102.109 146.555 102.21 146.687 102.265 146.903C102.321 147.118 102.321 147.384 102.265 147.6C102.21 147.815 102.109 147.948 101.999 147.947H76.6789C76.569 147.948 76.4673 147.815 76.4123 147.6C76.3572 147.384 76.3572 147.118 76.4123 146.903C76.4673 146.687 76.569 146.555 76.6789 146.555H101.999ZM112.816 146.555C112.985 146.555 113.123 146.867 113.123 147.251C113.123 147.636 112.985 147.947 112.816 147.947H105.564C105.394 147.947 105.257 147.636 105.257 147.251C105.257 146.867 105.394 146.555 105.564 146.555H112.816ZM112.816 142.25C112.985 142.25 113.123 142.562 113.123 142.946C113.123 143.331 112.985 143.642 112.816 143.642H105.564C105.394 143.642 105.257 143.331 105.257 142.946C105.257 142.562 105.394 142.25 105.564 142.25H112.816ZM124.984 142.25C125.154 142.25 125.291 142.562 125.291 142.946C125.291 143.331 125.154 143.642 124.984 143.642H117.732C117.563 143.642 117.425 143.331 117.425 142.946C117.425 142.562 117.563 142.25 117.732 142.25H124.984ZM101.938 142.17C102.107 142.17 102.245 142.482 102.245 142.866C102.245 143.251 102.107 143.563 101.938 143.563H76.6176C76.4479 143.563 76.3104 143.251 76.3104 142.866C76.3104 142.482 76.4479 142.17 76.6176 142.17H101.938ZM129.778 137.785C129.948 137.785 130.085 138.097 130.085 138.481C130.085 138.866 129.948 139.177 129.778 139.177H89.9543C89.7846 139.177 89.6471 138.866 89.6471 138.481C89.6471 138.097 89.7846 137.785 89.9543 137.785H129.778ZM83.9301 137.785C84.0998 137.785 84.2374 138.097 84.2374 138.481C84.2374 138.866 84.0998 139.177 83.9301 139.177H76.6783C76.5086 139.177 76.371 138.866 76.371 138.481C76.371 138.097 76.5086 137.785 76.6783 137.785H83.9301ZM102.064 133.4C102.234 133.4 102.372 133.712 102.372 134.097C102.372 134.481 102.234 134.793 102.064 134.793H76.7443C76.5746 134.793 76.437 134.481 76.437 134.097C76.437 133.712 76.5746 133.4 76.7443 133.4H102.064Z" fill="#FF5F02"/>
<path opacity="0.8" fill-rule="evenodd" clip-rule="evenodd" d="M87.0383 99.4543L76.0977 110.617L87.0383 121.78L89.5946 119.172L81.2101 110.617L89.5946 102.062L87.0383 99.4543ZM119.629 99.4541L117.183 102.062L125.203 110.617L117.175 119.172L119.62 121.78L130.085 110.617L119.629 99.4541ZM109.287 108.136V111.237H112.482V108.136H109.287ZM96.0502 108.136V111.237H99.245V108.136H96.0502ZM102.439 108.136V111.237H105.634V108.136H102.439Z" fill="#FF5F02"/>
<path fill-rule="evenodd" clip-rule="evenodd" d="M43.3221 119.96C40.7385 119.96 38.6441 117.866 38.6441 115.282C38.6441 112.699 40.7385 110.604 43.3221 110.604C45.9056 110.604 48 112.699 48 115.282C48 117.866 45.9056 119.96 43.3221 119.96Z" fill="#3053F4"/>
<path d="M3.80059 34.5427C1.84957 34.5427 0.253275 32.9504 0.253275 31.0043C0.253275 29.0581 1.84957 27.4658 3.80059 27.4658C5.75161 27.4658 7.3479 29.0581 7.3479 31.0043C7.3479 32.9504 5.75161 34.5427 3.80059 34.5427Z" fill="#3053F4"/>
<path fill-rule="evenodd" clip-rule="evenodd" d="M175.556 147.034C171.453 147.034 168.097 143.678 168.097 139.575C168.097 135.473 171.453 132.116 175.556 132.116C179.658 132.116 183.015 135.473 183.015 139.575C183.015 143.678 179.658 147.034 175.556 147.034Z" fill="#3053F4"/>
<path fill-rule="evenodd" clip-rule="evenodd" d="M133.718 75.7914C135.783 75.7914 137.457 74.1174 137.457 72.0524C137.457 69.9875 135.783 68.3135 133.718 68.3135C131.653 68.3135 129.979 69.9875 129.979 72.0524C129.979 74.1174 131.653 75.7914 133.718 75.7914Z" fill="#3D1D0D"/>
<path fill-rule="evenodd" clip-rule="evenodd" d="M134.761 68.4164C136.077 68.4165 137.296 69.1088 137.971 70.239C138.646 71.3693 138.676 72.771 138.052 73.9298C138.936 72.8238 139.119 71.3132 138.525 70.0279C137.931 68.7426 136.662 67.9032 135.247 67.8597C133.832 67.8162 132.513 68.576 131.841 69.8224C132.549 68.9335 133.624 68.4159 134.761 68.4164Z" fill="#3D1D0D"/>
<path fill-rule="evenodd" clip-rule="evenodd" d="M126.731 72.0445C132.797 72.0445 137.714 67.1271 137.714 61.0613C137.714 54.9955 132.797 50.0781 126.731 50.0781C120.665 50.0781 115.748 54.9955 115.748 61.0613C115.748 67.1271 120.665 72.0445 126.731 72.0445Z" fill="#3D1D0D"/>
<path fill-rule="evenodd" clip-rule="evenodd" d="M118.111 54.2468C122.045 49.8226 128.778 49.3133 133.333 53.0952C133.243 53.0098 133.154 52.9237 133.061 52.8407C130.128 50.2337 126.027 49.3892 122.303 50.6254C118.579 51.8616 115.798 54.9907 115.006 58.8339C114.215 62.6772 115.534 66.6508 118.466 69.2578C118.56 69.3408 118.655 69.419 118.751 69.4982C114.461 65.4178 114.179 58.6717 118.111 54.2468Z" fill="#3D1D0D"/>
<path d="M90.5243 197.234L87.732 204.122C87.732 204.122 74.7011 210.637 78.7965 213.243C82.8919 215.849 91.4551 211.568 91.4551 211.568L93.1305 209.334L95.7366 209.52L99.8321 208.031L101.507 199.282L90.5243 197.234Z" fill="#5E7484"/>
<path d="M149.349 197.234L152.141 204.122C152.141 204.122 165.172 210.637 161.077 213.243C156.981 215.849 148.418 211.568 148.418 211.568L146.743 209.334L144.136 209.52L140.041 208.031L138.366 199.282L149.349 197.234Z" fill="#5E7484"/>
<path d="M121.612 67.1113C121.612 67.1113 122.543 75.6745 121.053 76.6053C119.564 77.536 129.617 78.8391 129.617 78.8391C129.617 78.8391 128.127 69.5313 131.85 67.1113H121.612Z" fill="#98471E"/>
<path d="M126.638 71.9515C130.545 71.9515 133.712 68.7844 133.712 64.8776C133.712 60.9708 130.545 57.8037 126.638 57.8037C122.731 57.8037 119.564 60.9708 119.564 64.8776C119.564 68.7844 122.731 71.9515 126.638 71.9515Z" fill="#9E4D24"/>
<path d="M130.972 74.652C130.972 74.652 133.744 73.3576 129.752 73.8187C125.76 74.2797 122.316 72.5112 122.316 72.5112C122.316 72.5112 121.106 71.3012 120.92 72.6043C120.734 73.9074 121.479 76.3274 117.383 76.6997C113.288 77.072 109.565 75.9551 108.075 78.7474C106.586 81.5398 107.331 93.6399 107.331 93.6399C107.331 93.6399 110.123 103.692 112.357 105.182C114.591 106.671 134.137 104.623 134.137 104.623L139.722 94.5707V82.8429C139.722 82.8429 138.977 78.7474 133.765 79.8644C133.765 79.8644 130.414 79.1198 130.6 77.4444C130.786 75.769 130.972 74.652 130.972 74.652Z" fill="#3FCB8A"/>
<path fill-rule="evenodd" clip-rule="evenodd" d="M118.261 100.433L116.586 99.3164L114.724 100.433C114.724 100.433 114.166 104.715 111.932 105.646L112.863 111.975C112.863 111.975 110.629 120.166 112.304 126.495C112.304 126.495 82.1472 194.442 88.6626 198.165C95.1781 201.888 112.677 204.122 113.98 202.447C115.283 200.771 127.941 134.5 127.941 134.5C127.941 134.5 123.846 200.399 135.388 201.702C146.929 203.005 157.168 201.888 156.237 200.027C155.306 198.165 144.323 127.612 144.323 127.612C144.323 127.612 141.158 111.044 134.829 107.693L135.73 101.455L133.898 101.178L131.106 102.109C131.106 102.109 124.591 105.087 118.261 100.433Z" fill="#00233C"/>
<path fill-rule="evenodd" clip-rule="evenodd" d="M111.56 76.9779C112.832 79.574 113.287 82.495 112.863 85.3549C112.119 90.0087 115.097 101.55 115.097 101.55L117.331 100.992C117.331 100.992 115.842 91.3118 116.214 89.078C116.586 86.8441 116.586 78.0948 114.725 76.9779C112.863 75.8609 111.56 76.9779 111.56 76.9779Z" fill="#00233C"/>
<path fill-rule="evenodd" clip-rule="evenodd" d="M133.209 80.8467L133.991 101.457L135.481 102.388C135.481 102.388 137.621 79.77 136.504 79.77H134.232C133.951 79.77 133.683 79.8853 133.489 80.0888C133.296 80.2924 133.194 80.5664 133.209 80.8467Z" fill="#00233C"/>
<path d="M116.121 101.085C116.636 101.085 117.052 100.668 117.052 100.154C117.052 99.6399 116.636 99.2231 116.121 99.2231C115.607 99.2231 115.191 99.6399 115.191 100.154C115.191 100.668 115.607 101.085 116.121 101.085Z" fill="#6C63FF"/>
<path d="M134.736 102.016C135.25 102.016 135.666 101.599 135.666 101.085C135.666 100.571 135.25 100.154 134.736 100.154C134.221 100.154 133.805 100.571 133.805 101.085C133.805 101.599 134.221 102.016 134.736 102.016Z" fill="#6C63FF"/>
<path fill-rule="evenodd" clip-rule="evenodd" d="M120.589 56.0352V63.1091H122.227L124.312 60.8752L124.033 63.1091H131.274L130.827 60.8752L131.721 63.1091H132.875V56.0352H120.589Z" fill="#3D1D0D"/>
<path d="M119.471 64.412C119.929 64.412 120.3 63.9536 120.3 63.3881C120.3 62.8227 119.929 62.3643 119.471 62.3643C119.014 62.3643 118.643 62.8227 118.643 63.3881C118.643 63.9536 119.014 64.412 119.471 64.412Z" fill="#98471E"/>
<path d="M133.806 64.412C134.263 64.412 134.635 63.9536 134.635 63.3881C134.635 62.8227 134.263 62.3643 133.806 62.3643C133.348 62.3643 132.977 62.8227 132.977 63.3881C132.977 63.9536 133.348 64.412 133.806 64.412Z" fill="#98471E"/>
<path fill-rule="evenodd" clip-rule="evenodd" d="M123.976 139.016C136.574 139.016 146.787 128.803 146.787 116.205C146.787 103.606 136.574 93.3931 123.976 93.3931C111.377 93.3931 101.164 103.606 101.164 116.205C101.164 128.803 111.377 139.016 123.976 139.016Z" fill="#3053F4"/>
<path d="M137.622 100.992C137.622 100.992 129.152 99.4097 128.593 102.202C128.035 104.994 137.994 103.784 137.994 103.784L137.622 100.992Z" fill="#98471E"/>
<path d="M137.86 81.3535C137.86 81.3535 158.151 97.549 154.428 101.458C150.705 105.368 136.557 104.251 136.557 104.251L137.488 99.5968L145.679 98.666L141.583 94.5706L137.86 94.9429L137.86 81.3535Z" fill="#3FCB8A"/>
<path d="M107.465 108.81L110.071 110.858C110.071 110.858 111.933 116.629 114.725 114.953C117.517 113.278 112.119 107.321 112.119 107.321L108.954 106.204L107.465 108.81Z" fill="#98471E"/>
<path d="M110.495 78.375L107.896 79.1572C107.896 79.1572 89.8316 92.5228 89.087 96.2459C88.3424 99.969 92.6239 102.017 92.6239 102.017L108.819 109.649L110.495 105.181L102.862 101.272C102.862 101.272 103.421 100.155 101.187 99.969C98.9532 99.7829 98.5809 97.3629 98.5809 97.3629C98.5809 97.3629 103.049 90.4751 105.469 91.9644C107.889 93.4536 108.633 94.5705 108.633 94.5705L110.495 78.375Z" fill="#3FCB8A"/>
</svg>
