<?xml version="1.0" encoding="UTF-8" standalone="no"?>
<!DOCTYPE svg PUBLIC "-//W3C//DTD SVG 1.1//EN"
 "http://www.w3.org/Graphics/SVG/1.1/DTD/svg11.dtd">
<!-- Generated by graphviz version 9.0.0 (20230911.1827)
 -->
<!-- Pages: 1 -->
<svg width="675pt" height="155pt"
 viewBox="0.00 0.00 674.50 154.50" xmlns="http://www.w3.org/2000/svg" xmlns:xlink="http://www.w3.org/1999/xlink">
<g id="graph0" class="graph" transform="scale(1 1) rotate(0) translate(4 150.5)">
<polygon fill="white" stroke="none" points="-4,4 -4,-150.5 670.5,-150.5 670.5,4 -4,4"/>
<!-- customers -->
<g id="node1" class="node">
<title>customers</title>
<polygon fill="#f37843" stroke="none" points="8,-4 8,-142.5 168,-142.5 168,-4 8,-4"/>
<polygon fill="none" stroke="#ffffff" points="8,-113 8,-142.5 168,-142.5 168,-113 8,-113"/>
<text text-anchor="start" x="40.75" y="-123.3" font-family="Helvetica,sans-Serif" font-weight="bold" font-size="16.00" fill="#ffffff">customers</text>
<polygon fill="#f9d6cd" stroke="none" points="8,-85.75 8,-113 168,-113 168,-85.75 8,-85.75"/>
<polygon fill="none" stroke="#ffffff" points="8,-85.75 8,-113 168,-113 168,-85.75 8,-85.75"/>
<text text-anchor="start" x="13" y="-95.7" font-family="Helvetica,sans-Serif" text-decoration="underline" font-size="14.00" fill="#000000">id &#160;</text>
<text text-anchor="start" x="34.75" y="-95.7" font-family="Helvetica,sans-Serif" font-size="14.00" fill="#000000"> [int]</text>
<polygon fill="#fcece8" stroke="none" points="8,-58.5 8,-85.75 168,-85.75 168,-58.5 8,-58.5"/>
<polygon fill="none" stroke="#ffffff" points="8,-58.5 8,-85.75 168,-85.75 168,-58.5 8,-58.5"/>
<text text-anchor="start" x="13" y="-68.45" font-family="Helvetica,sans-Serif" font-size="14.00" fill="#868686">first_name &#160;</text>
<text text-anchor="start" x="95.5" y="-68.45" font-family="Helvetica,sans-Serif" font-size="14.00" fill="#868686"> [varchar]</text>
<polygon fill="#fcece8" stroke="none" points="8,-31.25 8,-58.5 168,-58.5 168,-31.25 8,-31.25"/>
<polygon fill="none" stroke="#ffffff" points="8,-31.25 8,-58.5 168,-58.5 168,-31.25 8,-31.25"/>
<text text-anchor="start" x="13" y="-41.2" font-family="Helvetica,sans-Serif" font-size="14.00" fill="#868686">last_name &#160;</text>
<text text-anchor="start" x="92.5" y="-41.2" font-family="Helvetica,sans-Serif" font-size="14.00" fill="#868686"> [varchar]</text>
<polygon fill="#fcece8" stroke="none" points="8,-4 8,-31.25 168,-31.25 168,-4 8,-4"/>
<polygon fill="none" stroke="#ffffff" points="8,-4 8,-31.25 168,-31.25 168,-4 8,-4"/>
<text text-anchor="start" x="13" y="-13.95" font-family="Helvetica,sans-Serif" font-size="14.00" fill="#868686">email &#160;</text>
<text text-anchor="start" x="59.5" y="-13.95" font-family="Helvetica,sans-Serif" font-size="14.00" fill="#868686"> [varchar]</text>
</g>
<!-- orders -->
<g id="node2" class="node">
<title>orders</title>
<polygon fill="#f37843" stroke="none" points="257,-4 257,-142.5 396,-142.5 396,-4 257,-4"/>
<polygon fill="none" stroke="#ffffff" points="257,-113 257,-142.5 396,-142.5 396,-113 257,-113"/>
<text text-anchor="start" x="296.88" y="-123.3" font-family="Helvetica,sans-Serif" font-weight="bold" font-size="16.00" fill="#ffffff">orders</text>
<polygon fill="#f9d6cd" stroke="none" points="257,-85.75 257,-113 396,-113 396,-85.75 257,-85.75"/>
<polygon fill="none" stroke="#ffffff" points="257,-85.75 257,-113 396,-113 396,-85.75 257,-85.75"/>
<text text-anchor="start" x="262" y="-95.7" font-family="Helvetica,sans-Serif" text-decoration="underline" font-size="14.00" fill="#000000">id &#160;</text>
<text text-anchor="start" x="283.75" y="-95.7" font-family="Helvetica,sans-Serif" font-size="14.00" fill="#000000"> [int]</text>
<polygon fill="#fcece8" stroke="none" points="257,-58.5 257,-85.75 396,-85.75 396,-58.5 257,-58.5"/>
<polygon fill="none" stroke="#ffffff" points="257,-58.5 257,-85.75 396,-85.75 396,-58.5 257,-58.5"/>
<text text-anchor="start" x="262" y="-68.45" font-family="Helvetica,sans-Serif" font-style="italic" font-size="14.00" fill="#868686">user_id &#160;</text>
<text text-anchor="start" x="321.25" y="-68.45" font-family="Helvetica,sans-Serif" font-size="14.00" fill="#868686"> [int]</text>
<polygon fill="#fcece8" stroke="none" points="257,-31.25 257,-58.5 396,-58.5 396,-31.25 257,-31.25"/>
<polygon fill="none" stroke="#ffffff" points="257,-31.25 257,-58.5 396,-58.5 396,-31.25 257,-31.25"/>
<text text-anchor="start" x="262" y="-41.2" font-family="Helvetica,sans-Serif" font-size="14.00" fill="#868686">order_date &#160;</text>
<text text-anchor="start" x="345.25" y="-41.2" font-family="Helvetica,sans-Serif" font-size="14.00" fill="#868686"> [date]</text>
<polygon fill="#fcece8" stroke="none" points="257,-4 257,-31.25 396,-31.25 396,-4 257,-4"/>
<polygon fill="none" stroke="#ffffff" points="257,-4 257,-31.25 396,-31.25 396,-4 257,-4"/>
<text text-anchor="start" x="262" y="-13.95" font-family="Helvetica,sans-Serif" font-size="14.00" fill="#868686">status &#160;</text>
<text text-anchor="start" x="313.75" y="-13.95" font-family="Helvetica,sans-Serif" font-size="14.00" fill="#868686"> [varchar]</text>
</g>
<!-- customers&#45;&#45;orders -->
<g id="edge1" class="edge">
<title>customers&#45;&#45;orders</title>
<path fill="none" stroke="#7f7f7f" stroke-dasharray="5,2" d="M175.72,-73.25C199.85,-73.25 225.86,-73.25 249.33,-73.25"/>
<text text-anchor="start" x="219.33" y="-59.95" font-family="Times,serif" font-size="14.00">0..N</text>
<text text-anchor="start" x="175.72" y="-59.95" font-family="Times,serif" font-size="14.00">1</text>
</g>
<!-- payments -->
<g id="node3" class="node">
<title>payments</title>
<polygon fill="#f37843" stroke="none" points="485,-4 485,-142.5 658.5,-142.5 658.5,-4 485,-4"/>
<polygon fill="none" stroke="#ffffff" points="485,-113 485,-142.5 658.5,-142.5 658.5,-113 485,-113"/>
<text text-anchor="start" x="527.88" y="-123.3" font-family="Helvetica,sans-Serif" font-weight="bold" font-size="16.00" fill="#ffffff">payments</text>
<polygon fill="#f9d6cd" stroke="none" points="485,-85.75 485,-113 658.5,-113 658.5,-85.75 485,-85.75"/>
<polygon fill="none" stroke="#ffffff" points="485,-85.75 485,-113 658.5,-113 658.5,-85.75 485,-85.75"/>
<text text-anchor="start" x="490" y="-95.7" font-family="Helvetica,sans-Serif" text-decoration="underline" font-size="14.00" fill="#000000">id &#160;</text>
<text text-anchor="start" x="511.75" y="-95.7" font-family="Helvetica,sans-Serif" font-size="14.00" fill="#000000"> [int]</text>
<polygon fill="#fcece8" stroke="none" points="485,-58.5 485,-85.75 658.5,-85.75 658.5,-58.5 485,-58.5"/>
<polygon fill="none" stroke="#ffffff" points="485,-58.5 485,-85.75 658.5,-85.75 658.5,-58.5 485,-58.5"/>
<text text-anchor="start" x="490" y="-68.45" font-family="Helvetica,sans-Serif" font-style="italic" font-size="14.00" fill="#868686">order_id &#160;</text>
<text text-anchor="start" x="555.25" y="-68.45" font-family="Helvetica,sans-Serif" font-size="14.00" fill="#868686"> [int]</text>
<polygon fill="#fcece8" stroke="none" points="485,-31.25 485,-58.5 658.5,-58.5 658.5,-31.25 485,-31.25"/>
<polygon fill="none" stroke="#ffffff" points="485,-31.25 485,-58.5 658.5,-58.5 658.5,-31.25 485,-31.25"/>
<text text-anchor="start" x="490" y="-41.2" font-family="Helvetica,sans-Serif" font-size="14.00" fill="#868686">payment_method &#160;</text>
<text text-anchor="start" x="620.5" y="-41.2" font-family="Helvetica,sans-Serif" font-size="14.00" fill="#868686"> [int]</text>
<polygon fill="#fcece8" stroke="none" points="485,-4 485,-31.25 658.5,-31.25 658.5,-4 485,-4"/>
<polygon fill="none" stroke="#ffffff" points="485,-4 485,-31.25 658.5,-31.25 658.5,-4 485,-4"/>
<text text-anchor="start" x="490" y="-13.95" font-family="Helvetica,sans-Serif" font-size="14.00" fill="#868686">amount &#160;</text>
<text text-anchor="start" x="552.25" y="-13.95" font-family="Helvetica,sans-Serif" font-size="14.00" fill="#868686"> [int]</text>
</g>
<!-- orders&#45;&#45;payments -->
<g id="edge2" class="edge">
<title>orders&#45;&#45;payments</title>
<path fill="none" stroke="#7f7f7f" stroke-dasharray="5,2" d="M403.8,-73.25C427.07,-73.25 452.92,-73.25 477.19,-73.25"/>
<text text-anchor="start" x="447.19" y="-59.95" font-family="Times,serif" font-size="14.00">0..N</text>
<text text-anchor="start" x="403.8" y="-59.95" font-family="Times,serif" font-size="14.00">1</text>
</g>
</g>
</svg>
