<?xml version="1.0" encoding="UTF-8" standalone="no"?>
<!DOCTYPE svg PUBLIC "-//W3C//DTD SVG 1.1//EN"
 "http://www.w3.org/Graphics/SVG/1.1/DTD/svg11.dtd">
<!-- Generated by graphviz version 8.0.5 (20230430.1635)
 -->
<!-- Pages: 1 -->
<svg width="278pt" height="999pt"
 viewBox="0.00 0.00 277.75 999.25" xmlns="http://www.w3.org/2000/svg" xmlns:xlink="http://www.w3.org/1999/xlink">
<g id="graph0" class="graph" transform="scale(1 1) rotate(0) translate(4 995.25)">
<polygon fill="white" stroke="none" points="-4,4 -4,-995.25 273.75,-995.25 273.75,4 -4,4"/>
<!-- fact: Analytic_Dataset -->
<g id="node1" class="node">
<title>fact: Analytic_Dataset</title>
<polygon fill="#f37843" stroke="none" points="8,-4 8,-987.25 261.75,-987.25 261.75,-4 8,-4"/>
<polygon fill="none" stroke="#ffffff" points="8,-957.75 8,-987.25 261.75,-987.25 261.75,-957.75 8,-957.75"/>
<text text-anchor="start" x="36.25" y="-968.05" font-family="Helvetica,sans-Serif" font-weight="bold" font-size="16.00" fill="#ffffff">fact: Analytic_Dataset</text>
<polygon fill="#f9d6cd" stroke="none" points="8,-930.5 8,-957.75 261.75,-957.75 261.75,-930.5 8,-930.5"/>
<polygon fill="none" stroke="#ffffff" points="8,-930.5 8,-957.75 261.75,-957.75 261.75,-930.5 8,-930.5"/>
<text text-anchor="start" x="13" y="-940.45" font-family="Helvetica,sans-Serif" text-decoration="underline" font-size="14.00" fill="#000000">cust_id &#160;</text>
<text text-anchor="start" x="70.75" y="-940.45" font-family="Helvetica,sans-Serif" font-size="14.00" fill="#000000"> [INTEGER]</text>
<polygon fill="#fcece8" stroke="none" points="8,-903.25 8,-930.5 261.75,-930.5 261.75,-903.25 8,-903.25"/>
<polygon fill="none" stroke="#ffffff" points="8,-903.25 8,-930.5 261.75,-930.5 261.75,-903.25 8,-903.25"/>
<text text-anchor="start" x="13" y="-913.2" font-family="Helvetica,sans-Serif" font-size="14.00" fill="#868686">income &#160;</text>
<text text-anchor="start" x="72.25" y="-913.2" font-family="Helvetica,sans-Serif" font-size="14.00" fill="#868686"> [DECIMAL(15, 1)]</text>
<polygon fill="#fcece8" stroke="none" points="8,-876 8,-903.25 261.75,-903.25 261.75,-876 8,-876"/>
<polygon fill="none" stroke="#ffffff" points="8,-876 8,-903.25 261.75,-903.25 261.75,-876 8,-876"/>
<text text-anchor="start" x="13" y="-885.95" font-family="Helvetica,sans-Serif" font-size="14.00" fill="#868686">age &#160;</text>
<text text-anchor="start" x="47.5" y="-885.95" font-family="Helvetica,sans-Serif" font-size="14.00" fill="#868686"> [INTEGER]</text>
<polygon fill="#fcece8" stroke="none" points="8,-848.75 8,-876 261.75,-876 261.75,-848.75 8,-848.75"/>
<polygon fill="none" stroke="#ffffff" points="8,-848.75 8,-876 261.75,-876 261.75,-848.75 8,-848.75"/>
<text text-anchor="start" x="13" y="-858.7" font-family="Helvetica,sans-Serif" font-size="14.00" fill="#868686">years_with_bank &#160;</text>
<text text-anchor="start" x="137.5" y="-858.7" font-family="Helvetica,sans-Serif" font-size="14.00" fill="#868686"> [INTEGER]</text>
<polygon fill="#fcece8" stroke="none" points="8,-821.5 8,-848.75 261.75,-848.75 261.75,-821.5 8,-821.5"/>
<polygon fill="none" stroke="#ffffff" points="8,-821.5 8,-848.75 261.75,-848.75 261.75,-821.5 8,-821.5"/>
<text text-anchor="start" x="13" y="-831.45" font-family="Helvetica,sans-Serif" font-size="14.00" fill="#868686">nbr_children &#160;</text>
<text text-anchor="start" x="108.25" y="-831.45" font-family="Helvetica,sans-Serif" font-size="14.00" fill="#868686"> [INTEGER]</text>
<polygon fill="#fcece8" stroke="none" points="8,-794.25 8,-821.5 261.75,-821.5 261.75,-794.25 8,-794.25"/>
<polygon fill="none" stroke="#ffffff" points="8,-794.25 8,-821.5 261.75,-821.5 261.75,-794.25 8,-794.25"/>
<text text-anchor="start" x="13" y="-804.2" font-family="Helvetica,sans-Serif" font-size="14.00" fill="#868686">marital_status_0 &#160;</text>
<text text-anchor="start" x="136" y="-804.2" font-family="Helvetica,sans-Serif" font-size="14.00" fill="#868686"> [INTEGER]</text>
<polygon fill="#fcece8" stroke="none" points="8,-767 8,-794.25 261.75,-794.25 261.75,-767 8,-767"/>
<polygon fill="none" stroke="#ffffff" points="8,-767 8,-794.25 261.75,-794.25 261.75,-767 8,-767"/>
<text text-anchor="start" x="13" y="-776.95" font-family="Helvetica,sans-Serif" font-size="14.00" fill="#868686">marital_status_1 &#160;</text>
<text text-anchor="start" x="136" y="-776.95" font-family="Helvetica,sans-Serif" font-size="14.00" fill="#868686"> [INTEGER]</text>
<polygon fill="#fcece8" stroke="none" points="8,-739.75 8,-767 261.75,-767 261.75,-739.75 8,-739.75"/>
<polygon fill="none" stroke="#ffffff" points="8,-739.75 8,-767 261.75,-767 261.75,-739.75 8,-739.75"/>
<text text-anchor="start" x="13" y="-749.7" font-family="Helvetica,sans-Serif" font-size="14.00" fill="#868686">marital_status_2 &#160;</text>
<text text-anchor="start" x="136" y="-749.7" font-family="Helvetica,sans-Serif" font-size="14.00" fill="#868686"> [INTEGER]</text>
<polygon fill="#fcece8" stroke="none" points="8,-712.5 8,-739.75 261.75,-739.75 261.75,-712.5 8,-712.5"/>
<polygon fill="none" stroke="#ffffff" points="8,-712.5 8,-739.75 261.75,-739.75 261.75,-712.5 8,-712.5"/>
<text text-anchor="start" x="13" y="-722.45" font-family="Helvetica,sans-Serif" font-size="14.00" fill="#868686">marital_status_other &#160;</text>
<text text-anchor="start" x="163.75" y="-722.45" font-family="Helvetica,sans-Serif" font-size="14.00" fill="#868686"> [INTEGER]</text>
<polygon fill="#fcece8" stroke="none" points="8,-685.25 8,-712.5 261.75,-712.5 261.75,-685.25 8,-685.25"/>
<polygon fill="none" stroke="#ffffff" points="8,-685.25 8,-712.5 261.75,-712.5 261.75,-685.25 8,-685.25"/>
<text text-anchor="start" x="13" y="-695.2" font-family="Helvetica,sans-Serif" font-size="14.00" fill="#868686">gender_0 &#160;</text>
<text text-anchor="start" x="87.25" y="-695.2" font-family="Helvetica,sans-Serif" font-size="14.00" fill="#868686"> [INTEGER]</text>
<polygon fill="#fcece8" stroke="none" points="8,-658 8,-685.25 261.75,-685.25 261.75,-658 8,-658"/>
<polygon fill="none" stroke="#ffffff" points="8,-658 8,-685.25 261.75,-685.25 261.75,-658 8,-658"/>
<text text-anchor="start" x="13" y="-667.95" font-family="Helvetica,sans-Serif" font-size="14.00" fill="#868686">gender_1 &#160;</text>
<text text-anchor="start" x="87.25" y="-667.95" font-family="Helvetica,sans-Serif" font-size="14.00" fill="#868686"> [INTEGER]</text>
<polygon fill="#fcece8" stroke="none" points="8,-630.75 8,-658 261.75,-658 261.75,-630.75 8,-630.75"/>
<polygon fill="none" stroke="#ffffff" points="8,-630.75 8,-658 261.75,-658 261.75,-630.75 8,-630.75"/>
<text text-anchor="start" x="13" y="-640.7" font-family="Helvetica,sans-Serif" font-size="14.00" fill="#868686">gender_other &#160;</text>
<text text-anchor="start" x="115" y="-640.7" font-family="Helvetica,sans-Serif" font-size="14.00" fill="#868686"> [INTEGER]</text>
<polygon fill="#fcece8" stroke="none" points="8,-603.5 8,-630.75 261.75,-630.75 261.75,-603.5 8,-603.5"/>
<polygon fill="none" stroke="#ffffff" points="8,-603.5 8,-630.75 261.75,-630.75 261.75,-603.5 8,-603.5"/>
<text text-anchor="start" x="13" y="-613.45" font-family="Helvetica,sans-Serif" font-size="14.00" fill="#868686">state_code_0 &#160;</text>
<text text-anchor="start" x="112" y="-613.45" font-family="Helvetica,sans-Serif" font-size="14.00" fill="#868686"> [INTEGER]</text>
<polygon fill="#fcece8" stroke="none" points="8,-576.25 8,-603.5 261.75,-603.5 261.75,-576.25 8,-576.25"/>
<polygon fill="none" stroke="#ffffff" points="8,-576.25 8,-603.5 261.75,-603.5 261.75,-576.25 8,-576.25"/>
<text text-anchor="start" x="13" y="-586.2" font-family="Helvetica,sans-Serif" font-size="14.00" fill="#868686">state_code_1 &#160;</text>
<text text-anchor="start" x="112" y="-586.2" font-family="Helvetica,sans-Serif" font-size="14.00" fill="#868686"> [INTEGER]</text>
<polygon fill="#fcece8" stroke="none" points="8,-549 8,-576.25 261.75,-576.25 261.75,-549 8,-549"/>
<polygon fill="none" stroke="#ffffff" points="8,-549 8,-576.25 261.75,-576.25 261.75,-549 8,-549"/>
<text text-anchor="start" x="13" y="-558.95" font-family="Helvetica,sans-Serif" font-size="14.00" fill="#868686">state_code_2 &#160;</text>
<text text-anchor="start" x="112" y="-558.95" font-family="Helvetica,sans-Serif" font-size="14.00" fill="#868686"> [INTEGER]</text>
<polygon fill="#fcece8" stroke="none" points="8,-521.75 8,-549 261.75,-549 261.75,-521.75 8,-521.75"/>
<polygon fill="none" stroke="#ffffff" points="8,-521.75 8,-549 261.75,-549 261.75,-521.75 8,-521.75"/>
<text text-anchor="start" x="13" y="-531.7" font-family="Helvetica,sans-Serif" font-size="14.00" fill="#868686">state_code_3 &#160;</text>
<text text-anchor="start" x="112" y="-531.7" font-family="Helvetica,sans-Serif" font-size="14.00" fill="#868686"> [INTEGER]</text>
<polygon fill="#fcece8" stroke="none" points="8,-494.5 8,-521.75 261.75,-521.75 261.75,-494.5 8,-494.5"/>
<polygon fill="none" stroke="#ffffff" points="8,-494.5 8,-521.75 261.75,-521.75 261.75,-494.5 8,-494.5"/>
<text text-anchor="start" x="13" y="-504.45" font-family="Helvetica,sans-Serif" font-size="14.00" fill="#868686">state_code_4 &#160;</text>
<text text-anchor="start" x="112" y="-504.45" font-family="Helvetica,sans-Serif" font-size="14.00" fill="#868686"> [INTEGER]</text>
<polygon fill="#fcece8" stroke="none" points="8,-467.25 8,-494.5 261.75,-494.5 261.75,-467.25 8,-467.25"/>
<polygon fill="none" stroke="#ffffff" points="8,-467.25 8,-494.5 261.75,-494.5 261.75,-467.25 8,-467.25"/>
<text text-anchor="start" x="13" y="-477.2" font-family="Helvetica,sans-Serif" font-size="14.00" fill="#868686">state_code_5 &#160;</text>
<text text-anchor="start" x="112" y="-477.2" font-family="Helvetica,sans-Serif" font-size="14.00" fill="#868686"> [INTEGER]</text>
<polygon fill="#fcece8" stroke="none" points="8,-440 8,-467.25 261.75,-467.25 261.75,-440 8,-440"/>
<polygon fill="none" stroke="#ffffff" points="8,-440 8,-467.25 261.75,-467.25 261.75,-440 8,-440"/>
<text text-anchor="start" x="13" y="-449.95" font-family="Helvetica,sans-Serif" font-size="14.00" fill="#868686">state_code_other &#160;</text>
<text text-anchor="start" x="139.75" y="-449.95" font-family="Helvetica,sans-Serif" font-size="14.00" fill="#868686"> [INTEGER]</text>
<polygon fill="#fcece8" stroke="none" points="8,-412.75 8,-440 261.75,-440 261.75,-412.75 8,-412.75"/>
<polygon fill="none" stroke="#ffffff" points="8,-412.75 8,-440 261.75,-440 261.75,-412.75 8,-412.75"/>
<text text-anchor="start" x="13" y="-422.7" font-family="Helvetica,sans-Serif" font-size="14.00" fill="#868686">acct_type_0 &#160;</text>
<text text-anchor="start" x="103.75" y="-422.7" font-family="Helvetica,sans-Serif" font-size="14.00" fill="#868686"> [INTEGER]</text>
<polygon fill="#fcece8" stroke="none" points="8,-385.5 8,-412.75 261.75,-412.75 261.75,-385.5 8,-385.5"/>
<polygon fill="none" stroke="#ffffff" points="8,-385.5 8,-412.75 261.75,-412.75 261.75,-385.5 8,-385.5"/>
<text text-anchor="start" x="13" y="-395.45" font-family="Helvetica,sans-Serif" font-size="14.00" fill="#868686">acct_type_1 &#160;</text>
<text text-anchor="start" x="103.75" y="-395.45" font-family="Helvetica,sans-Serif" font-size="14.00" fill="#868686"> [INTEGER]</text>
<polygon fill="#fcece8" stroke="none" points="8,-358.25 8,-385.5 261.75,-385.5 261.75,-358.25 8,-358.25"/>
<polygon fill="none" stroke="#ffffff" points="8,-358.25 8,-385.5 261.75,-385.5 261.75,-358.25 8,-358.25"/>
<text text-anchor="start" x="13" y="-368.2" font-family="Helvetica,sans-Serif" font-size="14.00" fill="#868686">acct_type_2 &#160;</text>
<text text-anchor="start" x="103.75" y="-368.2" font-family="Helvetica,sans-Serif" font-size="14.00" fill="#868686"> [INTEGER]</text>
<polygon fill="#fcece8" stroke="none" points="8,-331 8,-358.25 261.75,-358.25 261.75,-331 8,-331"/>
<polygon fill="none" stroke="#ffffff" points="8,-331 8,-358.25 261.75,-358.25 261.75,-331 8,-331"/>
<text text-anchor="start" x="13" y="-340.95" font-family="Helvetica,sans-Serif" font-size="14.00" fill="#868686">acct_type_other &#160;</text>
<text text-anchor="start" x="131.5" y="-340.95" font-family="Helvetica,sans-Serif" font-size="14.00" fill="#868686"> [INTEGER]</text>
<polygon fill="#fcece8" stroke="none" points="8,-303.75 8,-331 261.75,-331 261.75,-303.75 8,-303.75"/>
<polygon fill="none" stroke="#ffffff" points="8,-303.75 8,-331 261.75,-331 261.75,-303.75 8,-303.75"/>
<text text-anchor="start" x="13" y="-313.7" font-family="Helvetica,sans-Serif" font-size="14.00" fill="#868686">CK_avg_bal &#160;</text>
<text text-anchor="start" x="100.75" y="-313.7" font-family="Helvetica,sans-Serif" font-size="14.00" fill="#868686"> [FLOAT]</text>
<polygon fill="#fcece8" stroke="none" points="8,-276.5 8,-303.75 261.75,-303.75 261.75,-276.5 8,-276.5"/>
<polygon fill="none" stroke="#ffffff" points="8,-276.5 8,-303.75 261.75,-303.75 261.75,-276.5 8,-276.5"/>
<text text-anchor="start" x="13" y="-286.45" font-family="Helvetica,sans-Serif" font-size="14.00" fill="#868686">CK_avg_tran_amt &#160;</text>
<text text-anchor="start" x="142" y="-286.45" font-family="Helvetica,sans-Serif" font-size="14.00" fill="#868686"> [FLOAT]</text>
<polygon fill="#fcece8" stroke="none" points="8,-249.25 8,-276.5 261.75,-276.5 261.75,-249.25 8,-249.25"/>
<polygon fill="none" stroke="#ffffff" points="8,-249.25 8,-276.5 261.75,-276.5 261.75,-249.25 8,-249.25"/>
<text text-anchor="start" x="13" y="-259.2" font-family="Helvetica,sans-Serif" font-size="14.00" fill="#868686">CC_avg_bal &#160;</text>
<text text-anchor="start" x="101.5" y="-259.2" font-family="Helvetica,sans-Serif" font-size="14.00" fill="#868686"> [FLOAT]</text>
<polygon fill="#fcece8" stroke="none" points="8,-222 8,-249.25 261.75,-249.25 261.75,-222 8,-222"/>
<polygon fill="none" stroke="#ffffff" points="8,-222 8,-249.25 261.75,-249.25 261.75,-222 8,-222"/>
<text text-anchor="start" x="13" y="-231.95" font-family="Helvetica,sans-Serif" font-size="14.00" fill="#868686">CC_avg_tran_amt &#160;</text>
<text text-anchor="start" x="142.75" y="-231.95" font-family="Helvetica,sans-Serif" font-size="14.00" fill="#868686"> [FLOAT]</text>
<polygon fill="#fcece8" stroke="none" points="8,-194.75 8,-222 261.75,-222 261.75,-194.75 8,-194.75"/>
<polygon fill="none" stroke="#ffffff" points="8,-194.75 8,-222 261.75,-222 261.75,-194.75 8,-194.75"/>
<text text-anchor="start" x="13" y="-204.7" font-family="Helvetica,sans-Serif" font-size="14.00" fill="#868686">SV_avg_bal &#160;</text>
<text text-anchor="start" x="100.75" y="-204.7" font-family="Helvetica,sans-Serif" font-size="14.00" fill="#868686"> [FLOAT]</text>
<polygon fill="#fcece8" stroke="none" points="8,-167.5 8,-194.75 261.75,-194.75 261.75,-167.5 8,-167.5"/>
<polygon fill="none" stroke="#ffffff" points="8,-167.5 8,-194.75 261.75,-194.75 261.75,-167.5 8,-167.5"/>
<text text-anchor="start" x="13" y="-177.45" font-family="Helvetica,sans-Serif" font-size="14.00" fill="#868686">SV_avg_tran_amt &#160;</text>
<text text-anchor="start" x="142" y="-177.45" font-family="Helvetica,sans-Serif" font-size="14.00" fill="#868686"> [FLOAT]</text>
<polygon fill="#fcece8" stroke="none" points="8,-140.25 8,-167.5 261.75,-167.5 261.75,-140.25 8,-140.25"/>
<polygon fill="none" stroke="#ffffff" points="8,-140.25 8,-167.5 261.75,-167.5 261.75,-140.25 8,-140.25"/>
<text text-anchor="start" x="13" y="-150.2" font-family="Helvetica,sans-Serif" font-size="14.00" fill="#868686">q1_trans_cnt &#160;</text>
<text text-anchor="start" x="111.25" y="-150.2" font-family="Helvetica,sans-Serif" font-size="14.00" fill="#868686"> [DECIMAL(15, 0)]</text>
<polygon fill="#fcece8" stroke="none" points="8,-113 8,-140.25 261.75,-140.25 261.75,-113 8,-113"/>
<polygon fill="none" stroke="#ffffff" points="8,-113 8,-140.25 261.75,-140.25 261.75,-113 8,-113"/>
<text text-anchor="start" x="13" y="-122.95" font-family="Helvetica,sans-Serif" font-size="14.00" fill="#868686">q2_trans_cnt &#160;</text>
<text text-anchor="start" x="111.25" y="-122.95" font-family="Helvetica,sans-Serif" font-size="14.00" fill="#868686"> [DECIMAL(15, 0)]</text>
<polygon fill="#fcece8" stroke="none" points="8,-85.75 8,-113 261.75,-113 261.75,-85.75 8,-85.75"/>
<polygon fill="none" stroke="#ffffff" points="8,-85.75 8,-113 261.75,-113 261.75,-85.75 8,-85.75"/>
<text text-anchor="start" x="13" y="-95.7" font-family="Helvetica,sans-Serif" font-size="14.00" fill="#868686">q3_trans_cnt &#160;</text>
<text text-anchor="start" x="111.25" y="-95.7" font-family="Helvetica,sans-Serif" font-size="14.00" fill="#868686"> [DECIMAL(15, 0)]</text>
<polygon fill="#fcece8" stroke="none" points="8,-58.5 8,-85.75 261.75,-85.75 261.75,-58.5 8,-58.5"/>
<polygon fill="none" stroke="#ffffff" points="8,-58.5 8,-85.75 261.75,-85.75 261.75,-58.5 8,-58.5"/>
<text text-anchor="start" x="13" y="-68.45" font-family="Helvetica,sans-Serif" font-size="14.00" fill="#868686">q4_trans_cnt &#160;</text>
<text text-anchor="start" x="111.25" y="-68.45" font-family="Helvetica,sans-Serif" font-size="14.00" fill="#868686"> [DECIMAL(15, 0)]</text>
<polygon fill="#fcece8" stroke="none" points="8,-31.25 8,-58.5 261.75,-58.5 261.75,-31.25 8,-31.25"/>
<polygon fill="none" stroke="#ffffff" points="8,-31.25 8,-58.5 261.75,-58.5 261.75,-31.25 8,-31.25"/>
<text text-anchor="start" x="13" y="-41.2" font-family="Helvetica,sans-Serif" font-size="14.00" fill="#868686">event_timestamp &#160;</text>
<text text-anchor="start" x="142" y="-41.2" font-family="Helvetica,sans-Serif" font-size="14.00" fill="#868686"> [TIMESTAMP(0)]</text>
<polygon fill="#fcece8" stroke="none" points="8,-4 8,-31.25 261.75,-31.25 261.75,-4 8,-4"/>
<polygon fill="none" stroke="#ffffff" points="8,-4 8,-31.25 261.75,-31.25 261.75,-4 8,-4"/>
<text text-anchor="start" x="13" y="-13.95" font-family="Helvetica,sans-Serif" font-size="14.00" fill="#868686">created &#160;</text>
<text text-anchor="start" x="73.75" y="-13.95" font-family="Helvetica,sans-Serif" font-size="14.00" fill="#868686"> [TIMESTAMP(0)]</text>
</g>
</g>
</svg>
