<?xml version="1.0" encoding="UTF-8" standalone="no"?>
<!DOCTYPE svg PUBLIC "-//W3C//DTD SVG 1.1//EN"
 "http://www.w3.org/Graphics/SVG/1.1/DTD/svg11.dtd">
<!-- Generated by graphviz version 2.49.3 (20211027.1534)
 -->
<!-- Pages: 1 -->
<svg width="609pt" height="144pt"
 viewBox="0.00 0.00 609.00 144.00" xmlns="http://www.w3.org/2000/svg" xmlns:xlink="http://www.w3.org/1999/xlink">
<g id="graph0" class="graph" transform="scale(1 1) rotate(0) translate(4 140)">
<polygon fill="white" stroke="transparent" points="-4,4 -4,-140 605,-140 605,4 -4,4"/>
<!-- customers -->
<g id="node1" class="node">
<title>customers</title>
<polygon fill="#f37843" stroke="transparent" points="8,-4 8,-132 146,-132 146,-4 8,-4"/>
<polygon fill="none" stroke="#ffffff" points="8,-104 8,-132 146,-132 146,-104 8,-104"/>
<text text-anchor="start" x="36" y="-115.2" font-family="Helvetica,sans-Serif" font-weight="bold" font-size="16.00" fill="#ffffff">customers</text>
<polygon fill="#f9d6cd" stroke="transparent" points="8,-79 8,-104 146,-104 146,-79 8,-79"/>
<polygon fill="none" stroke="#ffffff" points="8,-79 8,-104 146,-104 146,-79 8,-79"/>
<text text-anchor="start" x="13" y="-88.8" font-family="Helvetica,sans-Serif" text-decoration="underline" font-size="14.00" fill="#000000">id &#160;</text>
<text text-anchor="start" x="32" y="-88.8" font-family="Helvetica,sans-Serif" font-size="14.00" fill="#000000"> [int]</text>
<polygon fill="#fcece8" stroke="transparent" points="8,-54 8,-79 146,-79 146,-54 8,-54"/>
<polygon fill="none" stroke="#ffffff" points="8,-54 8,-79 146,-79 146,-54 8,-54"/>
<text text-anchor="start" x="13" y="-63.8" font-family="Helvetica,sans-Serif" font-size="14.00" fill="#868686">first_name &#160;</text>
<text text-anchor="start" x="84" y="-63.8" font-family="Helvetica,sans-Serif" font-size="14.00" fill="#868686"> [varchar]</text>
<polygon fill="#fcece8" stroke="transparent" points="8,-29 8,-54 146,-54 146,-29 8,-29"/>
<polygon fill="none" stroke="#ffffff" points="8,-29 8,-54 146,-54 146,-29 8,-29"/>
<text text-anchor="start" x="13" y="-38.8" font-family="Helvetica,sans-Serif" font-size="14.00" fill="#868686">last_name &#160;</text>
<text text-anchor="start" x="83" y="-38.8" font-family="Helvetica,sans-Serif" font-size="14.00" fill="#868686"> [varchar]</text>
<polygon fill="#fcece8" stroke="transparent" points="8,-4 8,-29 146,-29 146,-4 8,-4"/>
<polygon fill="none" stroke="#ffffff" points="8,-4 8,-29 146,-29 146,-4 8,-4"/>
<text text-anchor="start" x="13" y="-13.8" font-family="Helvetica,sans-Serif" font-size="14.00" fill="#868686">email &#160;</text>
<text text-anchor="start" x="53" y="-13.8" font-family="Helvetica,sans-Serif" font-size="14.00" fill="#868686"> [varchar]</text>
</g>
<!-- orders -->
<g id="node2" class="node">
<title>orders</title>
<polygon fill="#f37843" stroke="transparent" points="235,-4 235,-132 356,-132 356,-4 235,-4"/>
<polygon fill="none" stroke="#ffffff" points="235.5,-104 235.5,-132 356.5,-132 356.5,-104 235.5,-104"/>
<text text-anchor="start" x="271" y="-115.2" font-family="Helvetica,sans-Serif" font-weight="bold" font-size="16.00" fill="#ffffff">orders</text>
<polygon fill="#f9d6cd" stroke="transparent" points="235.5,-79 235.5,-104 356.5,-104 356.5,-79 235.5,-79"/>
<polygon fill="none" stroke="#ffffff" points="235.5,-79 235.5,-104 356.5,-104 356.5,-79 235.5,-79"/>
<text text-anchor="start" x="240.5" y="-88.8" font-family="Helvetica,sans-Serif" text-decoration="underline" font-size="14.00" fill="#000000">id &#160;</text>
<text text-anchor="start" x="259.5" y="-88.8" font-family="Helvetica,sans-Serif" font-size="14.00" fill="#000000"> [int]</text>
<polygon fill="#fcece8" stroke="transparent" points="235.5,-54 235.5,-79 356.5,-79 356.5,-54 235.5,-54"/>
<polygon fill="none" stroke="#ffffff" points="235.5,-54 235.5,-79 356.5,-79 356.5,-54 235.5,-54"/>
<text text-anchor="start" x="240.5" y="-63.8" font-family="Helvetica,sans-Serif" font-style="italic" font-size="14.00" fill="#868686">user_id &#160;</text>
<text text-anchor="start" x="292.5" y="-63.8" font-family="Helvetica,sans-Serif" font-size="14.00" fill="#868686"> [int]</text>
<polygon fill="#fcece8" stroke="transparent" points="235.5,-29 235.5,-54 356.5,-54 356.5,-29 235.5,-29"/>
<polygon fill="none" stroke="#ffffff" points="235.5,-29 235.5,-54 356.5,-54 356.5,-29 235.5,-29"/>
<text text-anchor="start" x="240.5" y="-38.8" font-family="Helvetica,sans-Serif" font-size="14.00" fill="#868686">order_date &#160;</text>
<text text-anchor="start" x="313.5" y="-38.8" font-family="Helvetica,sans-Serif" font-size="14.00" fill="#868686"> [date]</text>
<polygon fill="#fcece8" stroke="transparent" points="235.5,-4 235.5,-29 356.5,-29 356.5,-4 235.5,-4"/>
<polygon fill="none" stroke="#ffffff" points="235.5,-4 235.5,-29 356.5,-29 356.5,-4 235.5,-4"/>
<text text-anchor="start" x="240.5" y="-13.8" font-family="Helvetica,sans-Serif" font-size="14.00" fill="#868686">status &#160;</text>
<text text-anchor="start" x="284.5" y="-13.8" font-family="Helvetica,sans-Serif" font-size="14.00" fill="#868686"> [varchar]</text>
</g>
<!-- customers&#45;&#45;orders -->
<g id="edge1" class="edge">
<title>customers&#45;&#45;orders</title>
<path fill="none" stroke="#7f7f7f" stroke-dasharray="5,2" d="M154.03,-68C177.78,-68 203.82,-68 226.96,-68"/>
<text text-anchor="start" x="201.96" y="-56.8" font-family="Times,serif" font-size="14.00">0..N</text>
<text text-anchor="start" x="154.03" y="-56.8" font-family="Times,serif" font-size="14.00">1</text>
</g>
<!-- payments -->
<g id="node3" class="node">
<title>payments</title>
<polygon fill="#f37843" stroke="transparent" points="445,-4 445,-132 593,-132 593,-4 445,-4"/>
<polygon fill="none" stroke="#ffffff" points="445,-104 445,-132 593,-132 593,-104 445,-104"/>
<text text-anchor="start" x="481" y="-115.2" font-family="Helvetica,sans-Serif" font-weight="bold" font-size="16.00" fill="#ffffff">payments</text>
<polygon fill="#f9d6cd" stroke="transparent" points="445,-79 445,-104 593,-104 593,-79 445,-79"/>
<polygon fill="none" stroke="#ffffff" points="445,-79 445,-104 593,-104 593,-79 445,-79"/>
<text text-anchor="start" x="450" y="-88.8" font-family="Helvetica,sans-Serif" text-decoration="underline" font-size="14.00" fill="#000000">id &#160;</text>
<text text-anchor="start" x="469" y="-88.8" font-family="Helvetica,sans-Serif" font-size="14.00" fill="#000000"> [int]</text>
<polygon fill="#fcece8" stroke="transparent" points="445,-54 445,-79 593,-79 593,-54 445,-54"/>
<polygon fill="none" stroke="#ffffff" points="445,-54 445,-79 593,-79 593,-54 445,-54"/>
<text text-anchor="start" x="450" y="-63.8" font-family="Helvetica,sans-Serif" font-style="italic" font-size="14.00" fill="#868686">order_id &#160;</text>
<text text-anchor="start" x="508" y="-63.8" font-family="Helvetica,sans-Serif" font-size="14.00" fill="#868686"> [int]</text>
<polygon fill="#fcece8" stroke="transparent" points="445,-29 445,-54 593,-54 593,-29 445,-29"/>
<polygon fill="none" stroke="#ffffff" points="445,-29 445,-54 593,-54 593,-29 445,-29"/>
<text text-anchor="start" x="450" y="-38.8" font-family="Helvetica,sans-Serif" font-size="14.00" fill="#868686">payment_method &#160;</text>
<text text-anchor="start" x="562" y="-38.8" font-family="Helvetica,sans-Serif" font-size="14.00" fill="#868686"> [int]</text>
<polygon fill="#fcece8" stroke="transparent" points="445,-4 445,-29 593,-29 593,-4 445,-4"/>
<polygon fill="none" stroke="#ffffff" points="445,-4 445,-29 593,-29 593,-4 445,-4"/>
<text text-anchor="start" x="450" y="-13.8" font-family="Helvetica,sans-Serif" font-size="14.00" fill="#868686">amount &#160;</text>
<text text-anchor="start" x="503" y="-13.8" font-family="Helvetica,sans-Serif" font-size="14.00" fill="#868686"> [int]</text>
</g>
<!-- orders&#45;&#45;payments -->
<g id="edge2" class="edge">
<title>orders&#45;&#45;payments</title>
<path fill="none" stroke="#7f7f7f" stroke-dasharray="5,2" d="M364.16,-68C387.06,-68 412.87,-68 436.72,-68"/>
<text text-anchor="start" x="411.72" y="-56.8" font-family="Times,serif" font-size="14.00">0..N</text>
<text text-anchor="start" x="364.16" y="-56.8" font-family="Times,serif" font-size="14.00">1</text>
</g>
</g>
</svg>
