<?xml version="1.0" encoding="UTF-8" standalone="no"?>
<!DOCTYPE svg PUBLIC "-//W3C//DTD SVG 1.1//EN"
 "http://www.w3.org/Graphics/SVG/1.1/DTD/svg11.dtd">
<!-- Generated by graphviz version 9.0.0 (20230911.1827)
 -->
<!-- Pages: 1 -->
<svg width="658pt" height="320pt"
 viewBox="0.00 0.00 658.00 319.50" xmlns="http://www.w3.org/2000/svg" xmlns:xlink="http://www.w3.org/1999/xlink">
<g id="graph0" class="graph" transform="scale(1 1) rotate(0) translate(4 315.5)">
<polygon fill="white" stroke="none" points="-4,4 -4,-315.5 654,-315.5 654,4 -4,4"/>
<!-- customers -->
<g id="node1" class="node">
<title>customers</title>
<polygon fill="#f37843" stroke="none" points="8,-169 8,-307.5 155.25,-307.5 155.25,-169 8,-169"/>
<polygon fill="none" stroke="#ffffff" points="8,-278 8,-307.5 155.25,-307.5 155.25,-278 8,-278"/>
<text text-anchor="start" x="34.38" y="-288.3" font-family="Helvetica,sans-Serif" font-weight="bold" font-size="16.00" fill="#ffffff">customers</text>
<polygon fill="#f9d6cd" stroke="none" points="8,-250.75 8,-278 155.25,-278 155.25,-250.75 8,-250.75"/>
<polygon fill="none" stroke="#ffffff" points="8,-250.75 8,-278 155.25,-278 155.25,-250.75 8,-250.75"/>
<text text-anchor="start" x="13" y="-260.7" font-family="Helvetica,sans-Serif" text-decoration="underline" font-size="14.00" fill="#000000">id &#160;</text>
<text text-anchor="start" x="34.75" y="-260.7" font-family="Helvetica,sans-Serif" font-size="14.00" fill="#000000"> [int]</text>
<polygon fill="#fcece8" stroke="none" points="8,-223.5 8,-250.75 155.25,-250.75 155.25,-223.5 8,-223.5"/>
<polygon fill="none" stroke="#ffffff" points="8,-223.5 8,-250.75 155.25,-250.75 155.25,-223.5 8,-223.5"/>
<text text-anchor="start" x="13" y="-233.45" font-family="Helvetica,sans-Serif" font-size="14.00" fill="#868686">name &#160;</text>
<text text-anchor="start" x="61" y="-233.45" font-family="Helvetica,sans-Serif" font-size="14.00" fill="#868686"> [varchar]</text>
<polygon fill="#fcece8" stroke="none" points="8,-196.25 8,-223.5 155.25,-223.5 155.25,-196.25 8,-196.25"/>
<polygon fill="none" stroke="#ffffff" points="8,-196.25 8,-223.5 155.25,-223.5 155.25,-196.25 8,-196.25"/>
<text text-anchor="start" x="13" y="-206.2" font-family="Helvetica,sans-Serif" font-size="14.00" fill="#868686">surname &#160;</text>
<text text-anchor="start" x="82.75" y="-206.2" font-family="Helvetica,sans-Serif" font-size="14.00" fill="#868686"> [varchar]</text>
<polygon fill="#fcece8" stroke="none" points="8,-169 8,-196.25 155.25,-196.25 155.25,-169 8,-169"/>
<polygon fill="none" stroke="#ffffff" points="8,-169 8,-196.25 155.25,-196.25 155.25,-169 8,-169"/>
<text text-anchor="start" x="13" y="-178.95" font-family="Helvetica,sans-Serif" font-size="14.00" fill="#868686">email &#160;</text>
<text text-anchor="start" x="59.5" y="-178.95" font-family="Helvetica,sans-Serif" font-size="14.00" fill="#868686"> [varchar]</text>
</g>
<!-- orders -->
<g id="node2" class="node">
<title>orders</title>
<polygon fill="#f37843" stroke="none" points="244.25,-169 244.25,-307.5 405,-307.5 405,-169 244.25,-169"/>
<polygon fill="none" stroke="#ffffff" points="244.25,-278 244.25,-307.5 405,-307.5 405,-278 244.25,-278"/>
<text text-anchor="start" x="295" y="-288.3" font-family="Helvetica,sans-Serif" font-weight="bold" font-size="16.00" fill="#ffffff">orders</text>
<polygon fill="#f9d6cd" stroke="none" points="244.25,-250.75 244.25,-278 405,-278 405,-250.75 244.25,-250.75"/>
<polygon fill="none" stroke="#ffffff" points="244.25,-250.75 244.25,-278 405,-278 405,-250.75 244.25,-250.75"/>
<text text-anchor="start" x="249.25" y="-260.7" font-family="Helvetica,sans-Serif" text-decoration="underline" font-size="14.00" fill="#000000">id &#160;</text>
<text text-anchor="start" x="271" y="-260.7" font-family="Helvetica,sans-Serif" font-size="14.00" fill="#000000"> [int]</text>
<polygon fill="#fcece8" stroke="none" points="244.25,-223.5 244.25,-250.75 405,-250.75 405,-223.5 244.25,-223.5"/>
<polygon fill="none" stroke="#ffffff" points="244.25,-223.5 244.25,-250.75 405,-250.75 405,-223.5 244.25,-223.5"/>
<text text-anchor="start" x="249.25" y="-233.45" font-family="Helvetica,sans-Serif" font-size="14.00" fill="#868686">customer_id &#160;</text>
<text text-anchor="start" x="343" y="-233.45" font-family="Helvetica,sans-Serif" font-size="14.00" fill="#868686"> [int]</text>
<polygon fill="#fcece8" stroke="none" points="244.25,-196.25 244.25,-223.5 405,-223.5 405,-196.25 244.25,-196.25"/>
<polygon fill="none" stroke="#ffffff" points="244.25,-196.25 244.25,-223.5 405,-223.5 405,-196.25 244.25,-196.25"/>
<text text-anchor="start" x="249.25" y="-206.2" font-family="Helvetica,sans-Serif" font-size="14.00" fill="#868686">order_date &#160;</text>
<text text-anchor="start" x="332.5" y="-206.2" font-family="Helvetica,sans-Serif" font-size="14.00" fill="#868686"> [varchar]</text>
<polygon fill="#fcece8" stroke="none" points="244.25,-169 244.25,-196.25 405,-196.25 405,-169 244.25,-169"/>
<polygon fill="none" stroke="#ffffff" points="244.25,-169 244.25,-196.25 405,-196.25 405,-169 244.25,-169"/>
<text text-anchor="start" x="249.25" y="-178.95" font-family="Helvetica,sans-Serif" font-size="14.00" fill="#868686">status &#160;</text>
<text text-anchor="start" x="301" y="-178.95" font-family="Helvetica,sans-Serif" font-size="14.00" fill="#868686"> [varchar]</text>
</g>
<!-- customers&#45;&#45;orders -->
<g id="edge1" class="edge">
<title>customers&#45;&#45;orders</title>
<path fill="none" stroke="#7f7f7f" stroke-dasharray="5,2" d="M163.21,-238.25C186.75,-238.25 212.57,-238.25 236.49,-238.25"/>
<text text-anchor="start" x="206.49" y="-224.95" font-family="Times,serif" font-size="14.00">0..N</text>
<text text-anchor="start" x="163.21" y="-224.95" font-family="Times,serif" font-size="14.00">1</text>
</g>
<!-- order_products -->
<g id="node3" class="node">
<title>order_products</title>
<polygon fill="#f37843" stroke="none" points="494,-36.62 494,-147.88 642,-147.88 642,-36.62 494,-36.62"/>
<polygon fill="none" stroke="#ffffff" points="494,-118.38 494,-147.88 642,-147.88 642,-118.38 494,-118.38"/>
<text text-anchor="start" x="499" y="-128.68" font-family="Helvetica,sans-Serif" font-weight="bold" font-size="16.00" fill="#ffffff">order_products</text>
<polygon fill="#fcece8" stroke="none" points="494,-91.12 494,-118.38 642,-118.38 642,-91.12 494,-91.12"/>
<polygon fill="none" stroke="#ffffff" points="494,-91.12 494,-118.38 642,-118.38 642,-91.12 494,-91.12"/>
<text text-anchor="start" x="499" y="-101.08" font-family="Helvetica,sans-Serif" font-size="14.00" fill="#868686">order_id &#160;&#160;</text>
<text text-anchor="start" x="568.75" y="-101.08" font-family="Helvetica,sans-Serif" font-size="14.00" fill="#868686"> [int]</text>
<polygon fill="#fcece8" stroke="none" points="494,-63.88 494,-91.12 642,-91.12 642,-63.88 494,-63.88"/>
<polygon fill="none" stroke="#ffffff" points="494,-63.88 494,-91.12 642,-91.12 642,-63.88 494,-63.88"/>
<text text-anchor="start" x="499" y="-73.83" font-family="Helvetica,sans-Serif" font-size="14.00" fill="#868686">product_id &#160;</text>
<text text-anchor="start" x="580.75" y="-73.83" font-family="Helvetica,sans-Serif" font-size="14.00" fill="#868686"> [int]</text>
<polygon fill="#fcece8" stroke="none" points="494,-36.62 494,-63.88 642,-63.88 642,-36.62 494,-36.62"/>
<polygon fill="none" stroke="#ffffff" points="494,-36.62 494,-63.88 642,-63.88 642,-36.62 494,-36.62"/>
<text text-anchor="start" x="499" y="-46.58" font-family="Helvetica,sans-Serif" font-size="14.00" fill="#868686">quantity &#160;</text>
<text text-anchor="start" x="565.75" y="-46.58" font-family="Helvetica,sans-Serif" font-size="14.00" fill="#868686"> [int]</text>
</g>
<!-- orders&#45;&#45;order_products -->
<g id="edge2" class="edge">
<title>orders&#45;&#45;order_products</title>
<path fill="none" stroke="#7f7f7f" stroke-dasharray="5,2" d="M412.77,-185.54C436.67,-171.08 462.48,-155.47 486.02,-141.23"/>
<text text-anchor="start" x="456.02" y="-145.18" font-family="Times,serif" font-size="14.00">0..N</text>
<text text-anchor="start" x="412.77" y="-172.24" font-family="Times,serif" font-size="14.00">1</text>
</g>
<!-- products -->
<g id="node4" class="node">
<title>products</title>
<polygon fill="#f37843" stroke="none" points="247.25,-4 247.25,-142.5 402,-142.5 402,-4 247.25,-4"/>
<polygon fill="none" stroke="#ffffff" points="247.25,-113 247.25,-142.5 402,-142.5 402,-113 247.25,-113"/>
<text text-anchor="start" x="284.5" y="-123.3" font-family="Helvetica,sans-Serif" font-weight="bold" font-size="16.00" fill="#ffffff">products</text>
<polygon fill="#f9d6cd" stroke="none" points="247.25,-85.75 247.25,-113 402,-113 402,-85.75 247.25,-85.75"/>
<polygon fill="none" stroke="#ffffff" points="247.25,-85.75 247.25,-113 402,-113 402,-85.75 247.25,-85.75"/>
<text text-anchor="start" x="252.25" y="-95.7" font-family="Helvetica,sans-Serif" text-decoration="underline" font-size="14.00" fill="#000000">id &#160;</text>
<text text-anchor="start" x="274" y="-95.7" font-family="Helvetica,sans-Serif" font-size="14.00" fill="#000000"> [int]</text>
<polygon fill="#fcece8" stroke="none" points="247.25,-58.5 247.25,-85.75 402,-85.75 402,-58.5 247.25,-58.5"/>
<polygon fill="none" stroke="#ffffff" points="247.25,-58.5 247.25,-85.75 402,-85.75 402,-58.5 247.25,-58.5"/>
<text text-anchor="start" x="252.25" y="-68.45" font-family="Helvetica,sans-Serif" font-size="14.00" fill="#868686">name &#160;</text>
<text text-anchor="start" x="300.25" y="-68.45" font-family="Helvetica,sans-Serif" font-size="14.00" fill="#868686"> [varchar]</text>
<polygon fill="#fcece8" stroke="none" points="247.25,-31.25 247.25,-58.5 402,-58.5 402,-31.25 247.25,-31.25"/>
<polygon fill="none" stroke="#ffffff" points="247.25,-31.25 247.25,-58.5 402,-58.5 402,-31.25 247.25,-31.25"/>
<text text-anchor="start" x="252.25" y="-41.2" font-family="Helvetica,sans-Serif" font-size="14.00" fill="#868686">category &#160;</text>
<text text-anchor="start" x="322" y="-41.2" font-family="Helvetica,sans-Serif" font-size="14.00" fill="#868686"> [varchar]</text>
<polygon fill="#fcece8" stroke="none" points="247.25,-4 247.25,-31.25 402,-31.25 402,-4 247.25,-4"/>
<polygon fill="none" stroke="#ffffff" points="247.25,-4 247.25,-31.25 402,-31.25 402,-4 247.25,-4"/>
<text text-anchor="start" x="252.25" y="-13.95" font-family="Helvetica,sans-Serif" font-size="14.00" fill="#868686">unit_price &#160;</text>
<text text-anchor="start" x="329.5" y="-13.95" font-family="Helvetica,sans-Serif" font-size="14.00" fill="#868686"> [varchar]</text>
</g>
<!-- products&#45;&#45;order_products -->
<g id="edge3" class="edge">
<title>products&#45;&#45;order_products</title>
<path fill="none" stroke="#7f7f7f" stroke-dasharray="5,2" d="M409.71,-79.87C434.47,-81.82 461.5,-83.95 486.06,-85.88"/>
<text text-anchor="start" x="456.06" y="-72.58" font-family="Times,serif" font-size="14.00">0..N</text>
<text text-anchor="start" x="409.71" y="-66.57" font-family="Times,serif" font-size="14.00">1</text>
</g>
</g>
</svg>
