<?xml version="1.0" encoding="UTF-8" standalone="no"?>
<!DOCTYPE svg PUBLIC "-//W3C//DTD SVG 1.1//EN"
 "http://www.w3.org/Graphics/SVG/1.1/DTD/svg11.dtd">
<!-- Generated by graphviz version 3.0.0 (20221109.1736)
 -->
<!-- Pages: 1 -->
<svg width="678pt" height="144pt"
 viewBox="0.00 0.00 678.00 144.00" xmlns="http://www.w3.org/2000/svg" xmlns:xlink="http://www.w3.org/1999/xlink">
<g id="graph0" class="graph" transform="scale(1 1) rotate(0) translate(4 140)">
<polygon fill="white" stroke="transparent" points="-4,4 -4,-140 674,-140 674,4 -4,4"/>
<!-- customers -->
<g id="node1" class="node">
<title>customers</title>
<polygon fill="#f37843" stroke="transparent" points="8,-4 8,-132 169,-132 169,-4 8,-4"/>
<polygon fill="none" stroke="#ffffff" points="8.5,-104 8.5,-132 169.5,-132 169.5,-104 8.5,-104"/>
<text text-anchor="start" x="41.5" y="-115.2" font-family="Helvetica,sans-Serif" font-weight="bold" font-size="16.00" fill="#ffffff">customers</text>
<polygon fill="#f9d6cd" stroke="transparent" points="8.5,-79 8.5,-104 169.5,-104 169.5,-79 8.5,-79"/>
<polygon fill="none" stroke="#ffffff" points="8.5,-79 8.5,-104 169.5,-104 169.5,-79 8.5,-79"/>
<text text-anchor="start" x="13.5" y="-88.8" font-family="Helvetica,sans-Serif" text-decoration="underline" font-size="14.00" fill="#000000">id &#160;</text>
<text text-anchor="start" x="35.5" y="-88.8" font-family="Helvetica,sans-Serif" font-size="14.00" fill="#000000"> [int]</text>
<polygon fill="#fcece8" stroke="transparent" points="8.5,-54 8.5,-79 169.5,-79 169.5,-54 8.5,-54"/>
<polygon fill="none" stroke="#ffffff" points="8.5,-54 8.5,-79 169.5,-79 169.5,-54 8.5,-54"/>
<text text-anchor="start" x="13.5" y="-63.8" font-family="Helvetica,sans-Serif" font-size="14.00" fill="#868686">first_name &#160;</text>
<text text-anchor="start" x="96.5" y="-63.8" font-family="Helvetica,sans-Serif" font-size="14.00" fill="#868686"> [varchar]</text>
<polygon fill="#fcece8" stroke="transparent" points="8.5,-29 8.5,-54 169.5,-54 169.5,-29 8.5,-29"/>
<polygon fill="none" stroke="#ffffff" points="8.5,-29 8.5,-54 169.5,-54 169.5,-29 8.5,-29"/>
<text text-anchor="start" x="13.5" y="-38.8" font-family="Helvetica,sans-Serif" font-size="14.00" fill="#868686">last_name &#160;</text>
<text text-anchor="start" x="93.5" y="-38.8" font-family="Helvetica,sans-Serif" font-size="14.00" fill="#868686"> [varchar]</text>
<polygon fill="#fcece8" stroke="transparent" points="8.5,-4 8.5,-29 169.5,-29 169.5,-4 8.5,-4"/>
<polygon fill="none" stroke="#ffffff" points="8.5,-4 8.5,-29 169.5,-29 169.5,-4 8.5,-4"/>
<text text-anchor="start" x="13.5" y="-13.8" font-family="Helvetica,sans-Serif" font-size="14.00" fill="#868686">email &#160;</text>
<text text-anchor="start" x="60.5" y="-13.8" font-family="Helvetica,sans-Serif" font-size="14.00" fill="#868686"> [varchar]</text>
</g>
<!-- orders -->
<g id="node2" class="node">
<title>orders</title>
<polygon fill="#f37843" stroke="transparent" points="258,-4 258,-132 398,-132 398,-4 258,-4"/>
<polygon fill="none" stroke="#ffffff" points="258,-104 258,-132 398,-132 398,-104 258,-104"/>
<text text-anchor="start" x="298" y="-115.2" font-family="Helvetica,sans-Serif" font-weight="bold" font-size="16.00" fill="#ffffff">orders</text>
<polygon fill="#f9d6cd" stroke="transparent" points="258,-79 258,-104 398,-104 398,-79 258,-79"/>
<polygon fill="none" stroke="#ffffff" points="258,-79 258,-104 398,-104 398,-79 258,-79"/>
<text text-anchor="start" x="263" y="-88.8" font-family="Helvetica,sans-Serif" text-decoration="underline" font-size="14.00" fill="#000000">id &#160;</text>
<text text-anchor="start" x="285" y="-88.8" font-family="Helvetica,sans-Serif" font-size="14.00" fill="#000000"> [int]</text>
<polygon fill="#fcece8" stroke="transparent" points="258,-54 258,-79 398,-79 398,-54 258,-54"/>
<polygon fill="none" stroke="#ffffff" points="258,-54 258,-79 398,-79 398,-54 258,-54"/>
<text text-anchor="start" x="263" y="-63.8" font-family="Helvetica,sans-Serif" font-style="italic" font-size="14.00" fill="#868686">user_id &#160;</text>
<text text-anchor="start" x="323" y="-63.8" font-family="Helvetica,sans-Serif" font-size="14.00" fill="#868686"> [int]</text>
<polygon fill="#fcece8" stroke="transparent" points="258,-29 258,-54 398,-54 398,-29 258,-29"/>
<polygon fill="none" stroke="#ffffff" points="258,-29 258,-54 398,-54 398,-29 258,-29"/>
<text text-anchor="start" x="263" y="-38.8" font-family="Helvetica,sans-Serif" font-size="14.00" fill="#868686">order_date &#160;</text>
<text text-anchor="start" x="347" y="-38.8" font-family="Helvetica,sans-Serif" font-size="14.00" fill="#868686"> [date]</text>
<polygon fill="#fcece8" stroke="transparent" points="258,-4 258,-29 398,-29 398,-4 258,-4"/>
<polygon fill="none" stroke="#ffffff" points="258,-4 258,-29 398,-29 398,-4 258,-4"/>
<text text-anchor="start" x="263" y="-13.8" font-family="Helvetica,sans-Serif" font-size="14.00" fill="#868686">status &#160;</text>
<text text-anchor="start" x="315" y="-13.8" font-family="Helvetica,sans-Serif" font-size="14.00" fill="#868686"> [varchar]</text>
</g>
<!-- customers&#45;&#45;orders -->
<g id="edge1" class="edge">
<title>customers&#45;&#45;orders</title>
<path fill="none" stroke="#7f7f7f" stroke-dasharray="5,2" d="M177.26,-68C201.05,-68 226.61,-68 249.77,-68"/>
<text text-anchor="start" x="218.77" y="-56.8" font-family="Times,serif" font-size="14.00">0..N</text>
<text text-anchor="start" x="177.26" y="-56.8" font-family="Times,serif" font-size="14.00">1</text>
</g>
<!-- payments -->
<g id="node3" class="node">
<title>payments</title>
<polygon fill="#f37843" stroke="transparent" points="487,-4 487,-132 662,-132 662,-4 487,-4"/>
<polygon fill="none" stroke="#ffffff" points="487.5,-104 487.5,-132 662.5,-132 662.5,-104 487.5,-104"/>
<text text-anchor="start" x="531" y="-115.2" font-family="Helvetica,sans-Serif" font-weight="bold" font-size="16.00" fill="#ffffff">payments</text>
<polygon fill="#f9d6cd" stroke="transparent" points="487.5,-79 487.5,-104 662.5,-104 662.5,-79 487.5,-79"/>
<polygon fill="none" stroke="#ffffff" points="487.5,-79 487.5,-104 662.5,-104 662.5,-79 487.5,-79"/>
<text text-anchor="start" x="492.5" y="-88.8" font-family="Helvetica,sans-Serif" text-decoration="underline" font-size="14.00" fill="#000000">id &#160;</text>
<text text-anchor="start" x="514.5" y="-88.8" font-family="Helvetica,sans-Serif" font-size="14.00" fill="#000000"> [int]</text>
<polygon fill="#fcece8" stroke="transparent" points="487.5,-54 487.5,-79 662.5,-79 662.5,-54 487.5,-54"/>
<polygon fill="none" stroke="#ffffff" points="487.5,-54 487.5,-79 662.5,-79 662.5,-54 487.5,-54"/>
<text text-anchor="start" x="492.5" y="-63.8" font-family="Helvetica,sans-Serif" font-style="italic" font-size="14.00" fill="#868686">order_id &#160;</text>
<text text-anchor="start" x="559.5" y="-63.8" font-family="Helvetica,sans-Serif" font-size="14.00" fill="#868686"> [int]</text>
<polygon fill="#fcece8" stroke="transparent" points="487.5,-29 487.5,-54 662.5,-54 662.5,-29 487.5,-29"/>
<polygon fill="none" stroke="#ffffff" points="487.5,-29 487.5,-54 662.5,-54 662.5,-29 487.5,-29"/>
<text text-anchor="start" x="492.5" y="-38.8" font-family="Helvetica,sans-Serif" font-size="14.00" fill="#868686">payment_method &#160;</text>
<text text-anchor="start" x="623.5" y="-38.8" font-family="Helvetica,sans-Serif" font-size="14.00" fill="#868686"> [int]</text>
<polygon fill="#fcece8" stroke="transparent" points="487.5,-4 487.5,-29 662.5,-29 662.5,-4 487.5,-4"/>
<polygon fill="none" stroke="#ffffff" points="487.5,-4 487.5,-29 662.5,-29 662.5,-4 487.5,-4"/>
<text text-anchor="start" x="492.5" y="-13.8" font-family="Helvetica,sans-Serif" font-size="14.00" fill="#868686">amount &#160;</text>
<text text-anchor="start" x="555.5" y="-13.8" font-family="Helvetica,sans-Serif" font-size="14.00" fill="#868686"> [int]</text>
</g>
<!-- orders&#45;&#45;payments -->
<g id="edge2" class="edge">
<title>orders&#45;&#45;payments</title>
<path fill="none" stroke="#7f7f7f" stroke-dasharray="5,2" d="M406.03,-68C429.12,-68 454.72,-68 478.82,-68"/>
<text text-anchor="start" x="447.82" y="-56.8" font-family="Times,serif" font-size="14.00">0..N</text>
<text text-anchor="start" x="406.03" y="-56.8" font-family="Times,serif" font-size="14.00">1</text>
</g>
</g>
</svg>
