<?xml version="1.0" encoding="UTF-8" standalone="no"?>
<!DOCTYPE svg PUBLIC "-//W3C//DTD SVG 1.1//EN"
 "http://www.w3.org/Graphics/SVG/1.1/DTD/svg11.dtd">
<!-- Generated by graphviz version 3.0.0 (20221109.1736)
 -->
<!-- Pages: 1 -->
<svg width="532pt" height="269pt"
 viewBox="0.00 0.00 532.00 269.00" xmlns="http://www.w3.org/2000/svg" xmlns:xlink="http://www.w3.org/1999/xlink">
<g id="graph0" class="graph" transform="scale(1 1) rotate(0) translate(4 265)">
<polygon fill="white" stroke="transparent" points="-4,4 -4,-265 528,-265 528,4 -4,4"/>
<!-- dimension: customers -->
<g id="node1" class="node">
<title>dimension: customers</title>
<polygon fill="#f37843" stroke="transparent" points="8,-16.5 8,-244.5 217,-244.5 217,-16.5 8,-16.5"/>
<polygon fill="none" stroke="#ffffff" points="8.5,-216.5 8.5,-244.5 217.5,-244.5 217.5,-216.5 8.5,-216.5"/>
<text text-anchor="start" x="13.5" y="-227.7" font-family="Helvetica,sans-Serif" font-weight="bold" font-size="16.00" fill="#ffffff">dimension: customers</text>
<polygon fill="#f9d6cd" stroke="transparent" points="8.5,-191.5 8.5,-216.5 217.5,-216.5 217.5,-191.5 8.5,-191.5"/>
<polygon fill="none" stroke="#ffffff" points="8.5,-191.5 8.5,-216.5 217.5,-216.5 217.5,-191.5 8.5,-191.5"/>
<text text-anchor="start" x="13.5" y="-201.3" font-family="Helvetica,sans-Serif" text-decoration="underline" font-size="14.00" fill="#000000">customer_id &#160;</text>
<text text-anchor="start" x="107.5" y="-201.3" font-family="Helvetica,sans-Serif" font-size="14.00" fill="#000000"> [int]</text>
<polygon fill="#fcece8" stroke="transparent" points="8.5,-166.5 8.5,-191.5 217.5,-191.5 217.5,-166.5 8.5,-166.5"/>
<polygon fill="none" stroke="#ffffff" points="8.5,-166.5 8.5,-191.5 217.5,-191.5 217.5,-166.5 8.5,-166.5"/>
<text text-anchor="start" x="13.5" y="-176.3" font-family="Helvetica,sans-Serif" font-size="14.00" fill="#868686">first_name &#160;</text>
<text text-anchor="start" x="96.5" y="-176.3" font-family="Helvetica,sans-Serif" font-size="14.00" fill="#868686"> [varchar]</text>
<polygon fill="#fcece8" stroke="transparent" points="8.5,-141.5 8.5,-166.5 217.5,-166.5 217.5,-141.5 8.5,-141.5"/>
<polygon fill="none" stroke="#ffffff" points="8.5,-141.5 8.5,-166.5 217.5,-166.5 217.5,-141.5 8.5,-141.5"/>
<text text-anchor="start" x="13.5" y="-151.3" font-family="Helvetica,sans-Serif" font-size="14.00" fill="#868686">last_name &#160;</text>
<text text-anchor="start" x="93.5" y="-151.3" font-family="Helvetica,sans-Serif" font-size="14.00" fill="#868686"> [varchar]</text>
<polygon fill="#fcece8" stroke="transparent" points="8.5,-116.5 8.5,-141.5 217.5,-141.5 217.5,-116.5 8.5,-116.5"/>
<polygon fill="none" stroke="#ffffff" points="8.5,-116.5 8.5,-141.5 217.5,-141.5 217.5,-116.5 8.5,-116.5"/>
<text text-anchor="start" x="13.5" y="-126.3" font-family="Helvetica,sans-Serif" font-size="14.00" fill="#868686">email &#160;</text>
<text text-anchor="start" x="60.5" y="-126.3" font-family="Helvetica,sans-Serif" font-size="14.00" fill="#868686"> [varchar]</text>
<polygon fill="#fcece8" stroke="transparent" points="8.5,-91.5 8.5,-116.5 217.5,-116.5 217.5,-91.5 8.5,-91.5"/>
<polygon fill="none" stroke="#ffffff" points="8.5,-91.5 8.5,-116.5 217.5,-116.5 217.5,-91.5 8.5,-91.5"/>
<text text-anchor="start" x="13.5" y="-101.3" font-family="Helvetica,sans-Serif" font-size="14.00" fill="#868686">first_order &#160;</text>
<text text-anchor="start" x="94.5" y="-101.3" font-family="Helvetica,sans-Serif" font-size="14.00" fill="#868686"> [date]</text>
<polygon fill="#fcece8" stroke="transparent" points="8.5,-66.5 8.5,-91.5 217.5,-91.5 217.5,-66.5 8.5,-66.5"/>
<polygon fill="none" stroke="#ffffff" points="8.5,-66.5 8.5,-91.5 217.5,-91.5 217.5,-66.5 8.5,-66.5"/>
<text text-anchor="start" x="13.5" y="-76.3" font-family="Helvetica,sans-Serif" font-size="14.00" fill="#868686">most_recent_order &#160;</text>
<text text-anchor="start" x="151.5" y="-76.3" font-family="Helvetica,sans-Serif" font-size="14.00" fill="#868686"> [date]</text>
<polygon fill="#fcece8" stroke="transparent" points="8.5,-41.5 8.5,-66.5 217.5,-66.5 217.5,-41.5 8.5,-41.5"/>
<polygon fill="none" stroke="#ffffff" points="8.5,-41.5 8.5,-66.5 217.5,-66.5 217.5,-41.5 8.5,-41.5"/>
<text text-anchor="start" x="13.5" y="-51.3" font-family="Helvetica,sans-Serif" font-size="14.00" fill="#868686">number_of_orders &#160;</text>
<text text-anchor="start" x="149.5" y="-51.3" font-family="Helvetica,sans-Serif" font-size="14.00" fill="#868686"> [int]</text>
<polygon fill="#fcece8" stroke="transparent" points="8.5,-16.5 8.5,-41.5 217.5,-41.5 217.5,-16.5 8.5,-16.5"/>
<polygon fill="none" stroke="#ffffff" points="8.5,-16.5 8.5,-41.5 217.5,-41.5 217.5,-16.5 8.5,-16.5"/>
<text text-anchor="start" x="13.5" y="-26.3" font-family="Helvetica,sans-Serif" font-size="14.00" fill="#868686">total_order_amount &#160;</text>
<text text-anchor="start" x="157.5" y="-26.3" font-family="Helvetica,sans-Serif" font-size="14.00" fill="#868686"> [int]</text>
</g>
<!-- fact: orders -->
<g id="node2" class="node">
<title>fact: orders</title>
<polygon fill="#f37843" stroke="transparent" points="306,-4 306,-257 516,-257 516,-4 306,-4"/>
<polygon fill="none" stroke="#ffffff" points="306,-228.5 306,-256.5 516,-256.5 516,-228.5 306,-228.5"/>
<text text-anchor="start" x="358" y="-239.7" font-family="Helvetica,sans-Serif" font-weight="bold" font-size="16.00" fill="#ffffff">fact: orders</text>
<polygon fill="#f9d6cd" stroke="transparent" points="306,-203.5 306,-228.5 516,-228.5 516,-203.5 306,-203.5"/>
<polygon fill="none" stroke="#ffffff" points="306,-203.5 306,-228.5 516,-228.5 516,-203.5 306,-203.5"/>
<text text-anchor="start" x="311" y="-213.3" font-family="Helvetica,sans-Serif" text-decoration="underline" font-size="14.00" fill="#000000">order_id &#160;</text>
<text text-anchor="start" x="377" y="-213.3" font-family="Helvetica,sans-Serif" font-size="14.00" fill="#000000"> [int]</text>
<polygon fill="#fcece8" stroke="transparent" points="306,-178.5 306,-203.5 516,-203.5 516,-178.5 306,-178.5"/>
<polygon fill="none" stroke="#ffffff" points="306,-178.5 306,-203.5 516,-203.5 516,-178.5 306,-178.5"/>
<text text-anchor="start" x="311" y="-188.3" font-family="Helvetica,sans-Serif" font-style="italic" font-size="14.00" fill="#868686">customer_id &#160;</text>
<text text-anchor="start" x="405" y="-188.3" font-family="Helvetica,sans-Serif" font-size="14.00" fill="#868686"> [int]</text>
<polygon fill="#fcece8" stroke="transparent" points="306,-153.5 306,-178.5 516,-178.5 516,-153.5 306,-153.5"/>
<polygon fill="none" stroke="#ffffff" points="306,-153.5 306,-178.5 516,-178.5 516,-153.5 306,-153.5"/>
<text text-anchor="start" x="311" y="-163.3" font-family="Helvetica,sans-Serif" font-size="14.00" fill="#868686">order_date &#160;</text>
<text text-anchor="start" x="395" y="-163.3" font-family="Helvetica,sans-Serif" font-size="14.00" fill="#868686"> [date]</text>
<polygon fill="#fcece8" stroke="transparent" points="306,-128.5 306,-153.5 516,-153.5 516,-128.5 306,-128.5"/>
<polygon fill="none" stroke="#ffffff" points="306,-128.5 306,-153.5 516,-153.5 516,-128.5 306,-128.5"/>
<text text-anchor="start" x="311" y="-138.3" font-family="Helvetica,sans-Serif" font-size="14.00" fill="#868686">status &#160;</text>
<text text-anchor="start" x="363" y="-138.3" font-family="Helvetica,sans-Serif" font-size="14.00" fill="#868686"> [varchar]</text>
<polygon fill="#fcece8" stroke="transparent" points="306,-103.5 306,-128.5 516,-128.5 516,-103.5 306,-103.5"/>
<polygon fill="none" stroke="#ffffff" points="306,-103.5 306,-128.5 516,-128.5 516,-103.5 306,-103.5"/>
<text text-anchor="start" x="311" y="-113.3" font-family="Helvetica,sans-Serif" font-size="14.00" fill="#868686">amount &#160;</text>
<text text-anchor="start" x="374" y="-113.3" font-family="Helvetica,sans-Serif" font-size="14.00" fill="#868686"> [int]</text>
<polygon fill="#fcece8" stroke="transparent" points="306,-78.5 306,-103.5 516,-103.5 516,-78.5 306,-78.5"/>
<polygon fill="none" stroke="#ffffff" points="306,-78.5 306,-103.5 516,-103.5 516,-78.5 306,-78.5"/>
<text text-anchor="start" x="311" y="-88.3" font-family="Helvetica,sans-Serif" font-size="14.00" fill="#868686">credit_card_amount &#160;</text>
<text text-anchor="start" x="456" y="-88.3" font-family="Helvetica,sans-Serif" font-size="14.00" fill="#868686"> [int]</text>
<polygon fill="#fcece8" stroke="transparent" points="306,-53.5 306,-78.5 516,-78.5 516,-53.5 306,-53.5"/>
<polygon fill="none" stroke="#ffffff" points="306,-53.5 306,-78.5 516,-78.5 516,-53.5 306,-53.5"/>
<text text-anchor="start" x="311" y="-63.3" font-family="Helvetica,sans-Serif" font-size="14.00" fill="#868686">coupon_amount &#160;</text>
<text text-anchor="start" x="432" y="-63.3" font-family="Helvetica,sans-Serif" font-size="14.00" fill="#868686"> [int]</text>
<polygon fill="#fcece8" stroke="transparent" points="306,-28.5 306,-53.5 516,-53.5 516,-28.5 306,-28.5"/>
<polygon fill="none" stroke="#ffffff" points="306,-28.5 306,-53.5 516,-53.5 516,-28.5 306,-28.5"/>
<text text-anchor="start" x="311" y="-38.3" font-family="Helvetica,sans-Serif" font-size="14.00" fill="#868686">bank_transfer_amount &#160;</text>
<text text-anchor="start" x="477" y="-38.3" font-family="Helvetica,sans-Serif" font-size="14.00" fill="#868686"> [int]</text>
<polygon fill="#fcece8" stroke="transparent" points="306,-3.5 306,-28.5 516,-28.5 516,-3.5 306,-3.5"/>
<polygon fill="none" stroke="#ffffff" points="306,-3.5 306,-28.5 516,-28.5 516,-3.5 306,-3.5"/>
<text text-anchor="start" x="311" y="-13.3" font-family="Helvetica,sans-Serif" font-size="14.00" fill="#868686">gift_card_amount &#160;</text>
<text text-anchor="start" x="440" y="-13.3" font-family="Helvetica,sans-Serif" font-size="14.00" fill="#868686"> [int]</text>
</g>
<!-- dimension: customers&#45;&#45;fact: orders -->
<g id="edge1" class="edge">
<title>dimension: customers&#45;&#45;fact: orders</title>
<path fill="none" stroke="#7f7f7f" stroke-dasharray="5,2" d="M225.17,-130.5C248.97,-130.5 274.12,-130.5 297.94,-130.5"/>
<text text-anchor="start" x="266.94" y="-119.3" font-family="Times,serif" font-size="14.00">0..N</text>
<text text-anchor="start" x="225.17" y="-119.3" font-family="Times,serif" font-size="14.00">1</text>
</g>
</g>
</svg>
