<?xml version="1.0" encoding="UTF-8" standalone="no"?>
<!DOCTYPE svg PUBLIC "-//W3C//DTD SVG 1.1//EN"
 "http://www.w3.org/Graphics/SVG/1.1/DTD/svg11.dtd">
<!-- Generated by graphviz version 9.0.0 (20230911.1827)
 -->
<!-- Pages: 1 -->
<svg width="481pt" height="457pt"
 viewBox="0.00 0.00 481.00 456.50" xmlns="http://www.w3.org/2000/svg" xmlns:xlink="http://www.w3.org/1999/xlink">
<g id="graph0" class="graph" transform="scale(1 1) rotate(0) translate(4 452.5)">
<polygon fill="white" stroke="none" points="-4,4 -4,-452.5 477,-452.5 477,4 -4,4"/>
<!-- dim_customers -->
<g id="node1" class="node">
<title>dim_customers</title>
<polygon fill="#f37843" stroke="none" points="31.62,-306 31.62,-444.5 191.62,-444.5 191.62,-306 31.62,-306"/>
<polygon fill="none" stroke="#ffffff" points="31.62,-415 31.62,-444.5 191.62,-444.5 191.62,-415 31.62,-415"/>
<text text-anchor="start" x="43.75" y="-425.3" font-family="Helvetica,sans-Serif" font-weight="bold" font-size="16.00" fill="#ffffff">dim_customers</text>
<polygon fill="#fcece8" stroke="none" points="31.62,-387.75 31.62,-415 191.62,-415 191.62,-387.75 31.62,-387.75"/>
<polygon fill="none" stroke="#ffffff" points="31.62,-387.75 31.62,-415 191.62,-415 191.62,-387.75 31.62,-387.75"/>
<text text-anchor="start" x="36.62" y="-397.7" font-family="Helvetica,sans-Serif" text-decoration="underline" font-size="14.00" fill="#868686">customer_id &#160;</text>
<text text-anchor="start" x="130.38" y="-397.7" font-family="Helvetica,sans-Serif" font-size="14.00" fill="#868686"> [int]</text>
<polygon fill="#fcece8" stroke="none" points="31.62,-360.5 31.62,-387.75 191.62,-387.75 191.62,-360.5 31.62,-360.5"/>
<polygon fill="none" stroke="#ffffff" points="31.62,-360.5 31.62,-387.75 191.62,-387.75 191.62,-360.5 31.62,-360.5"/>
<text text-anchor="start" x="36.62" y="-370.45" font-family="Helvetica,sans-Serif" font-size="14.00" fill="#868686">first_name &#160;</text>
<text text-anchor="start" x="119.12" y="-370.45" font-family="Helvetica,sans-Serif" font-size="14.00" fill="#868686"> [varchar]</text>
<polygon fill="#fcece8" stroke="none" points="31.62,-333.25 31.62,-360.5 191.62,-360.5 191.62,-333.25 31.62,-333.25"/>
<polygon fill="none" stroke="#ffffff" points="31.62,-333.25 31.62,-360.5 191.62,-360.5 191.62,-333.25 31.62,-333.25"/>
<text text-anchor="start" x="36.62" y="-343.2" font-family="Helvetica,sans-Serif" font-size="14.00" fill="#868686">last_name &#160;</text>
<text text-anchor="start" x="116.12" y="-343.2" font-family="Helvetica,sans-Serif" font-size="14.00" fill="#868686"> [varchar]</text>
<polygon fill="#fcece8" stroke="none" points="31.62,-306 31.62,-333.25 191.62,-333.25 191.62,-306 31.62,-306"/>
<polygon fill="none" stroke="#ffffff" points="31.62,-306 31.62,-333.25 191.62,-333.25 191.62,-306 31.62,-306"/>
<text text-anchor="start" x="36.62" y="-315.95" font-family="Helvetica,sans-Serif" font-size="14.00" fill="#868686">email &#160;</text>
<text text-anchor="start" x="83.12" y="-315.95" font-family="Helvetica,sans-Serif" font-size="14.00" fill="#868686"> [varchar]</text>
</g>
<!-- fct_order_details -->
<g id="node4" class="node">
<title>fct_order_details</title>
<polygon fill="#f37843" stroke="none" points="304.25,-114.12 304.25,-334.38 465,-334.38 465,-114.12 304.25,-114.12"/>
<polygon fill="none" stroke="#ffffff" points="304.25,-304.88 304.25,-334.38 465,-334.38 465,-304.88 304.25,-304.88"/>
<text text-anchor="start" x="309.62" y="-315.18" font-family="Helvetica,sans-Serif" font-weight="bold" font-size="16.00" fill="#ffffff">fct_order_details</text>
<polygon fill="#fcece8" stroke="none" points="304.25,-277.62 304.25,-304.88 465,-304.88 465,-277.62 304.25,-277.62"/>
<polygon fill="none" stroke="#ffffff" points="304.25,-277.62 304.25,-304.88 465,-304.88 465,-277.62 304.25,-277.62"/>
<text text-anchor="start" x="309.25" y="-287.57" font-family="Helvetica,sans-Serif" font-size="14.00" fill="#868686">order_id &#160;</text>
<text text-anchor="start" x="374.5" y="-287.57" font-family="Helvetica,sans-Serif" font-size="14.00" fill="#868686"> [int]</text>
<polygon fill="#fcece8" stroke="none" points="304.25,-250.38 304.25,-277.62 465,-277.62 465,-250.38 304.25,-250.38"/>
<polygon fill="none" stroke="#ffffff" points="304.25,-250.38 304.25,-277.62 465,-277.62 465,-250.38 304.25,-250.38"/>
<text text-anchor="start" x="309.25" y="-260.32" font-family="Helvetica,sans-Serif" font-size="14.00" fill="#868686">product_id &#160;</text>
<text text-anchor="start" x="391" y="-260.32" font-family="Helvetica,sans-Serif" font-size="14.00" fill="#868686"> [int]</text>
<polygon fill="#fcece8" stroke="none" points="304.25,-223.12 304.25,-250.38 465,-250.38 465,-223.12 304.25,-223.12"/>
<polygon fill="none" stroke="#ffffff" points="304.25,-223.12 304.25,-250.38 465,-250.38 465,-223.12 304.25,-223.12"/>
<text text-anchor="start" x="309.25" y="-233.07" font-family="Helvetica,sans-Serif" font-size="14.00" fill="#868686">customer_id &#160;</text>
<text text-anchor="start" x="403" y="-233.07" font-family="Helvetica,sans-Serif" font-size="14.00" fill="#868686"> [int]</text>
<polygon fill="#fcece8" stroke="none" points="304.25,-195.88 304.25,-223.12 465,-223.12 465,-195.88 304.25,-195.88"/>
<polygon fill="none" stroke="#ffffff" points="304.25,-195.88 304.25,-223.12 465,-223.12 465,-195.88 304.25,-195.88"/>
<text text-anchor="start" x="309.25" y="-205.82" font-family="Helvetica,sans-Serif" font-size="14.00" fill="#868686">order_date &#160;</text>
<text text-anchor="start" x="392.5" y="-205.82" font-family="Helvetica,sans-Serif" font-size="14.00" fill="#868686"> [varchar]</text>
<polygon fill="#fcece8" stroke="none" points="304.25,-168.62 304.25,-195.88 465,-195.88 465,-168.62 304.25,-168.62"/>
<polygon fill="none" stroke="#ffffff" points="304.25,-168.62 304.25,-195.88 465,-195.88 465,-168.62 304.25,-168.62"/>
<text text-anchor="start" x="309.25" y="-178.57" font-family="Helvetica,sans-Serif" font-size="14.00" fill="#868686">unit_price &#160;</text>
<text text-anchor="start" x="386.5" y="-178.57" font-family="Helvetica,sans-Serif" font-size="14.00" fill="#868686"> [varchar]</text>
<polygon fill="#fcece8" stroke="none" points="304.25,-141.38 304.25,-168.62 465,-168.62 465,-141.38 304.25,-141.38"/>
<polygon fill="none" stroke="#ffffff" points="304.25,-141.38 304.25,-168.62 465,-168.62 465,-141.38 304.25,-141.38"/>
<text text-anchor="start" x="309.25" y="-151.32" font-family="Helvetica,sans-Serif" font-size="14.00" fill="#868686">quantity &#160;</text>
<text text-anchor="start" x="376" y="-151.32" font-family="Helvetica,sans-Serif" font-size="14.00" fill="#868686"> [int]</text>
<polygon fill="#fcece8" stroke="none" points="304.25,-114.12 304.25,-141.38 465,-141.38 465,-114.12 304.25,-114.12"/>
<polygon fill="none" stroke="#ffffff" points="304.25,-114.12 304.25,-141.38 465,-141.38 465,-114.12 304.25,-114.12"/>
<text text-anchor="start" x="309.25" y="-124.08" font-family="Helvetica,sans-Serif" font-size="14.00" fill="#868686">amount &#160;</text>
<text text-anchor="start" x="371.5" y="-124.08" font-family="Helvetica,sans-Serif" font-size="14.00" fill="#868686"> [varchar]</text>
</g>
<!-- dim_customers&#45;&#45;fct_order_details -->
<g id="edge1" class="edge">
<title>dim_customers&#45;&#45;fct_order_details</title>
<path fill="none" stroke="#7f7f7f" stroke-dasharray="5,2" d="M199.49,-326.85C230.45,-309.6 265.32,-290.17 296.32,-272.89"/>
<text text-anchor="start" x="266.32" y="-259.59" font-family="Times,serif" font-size="14.00">0..N</text>
<text text-anchor="start" x="199.49" y="-313.55" font-family="Times,serif" font-size="14.00">1</text>
</g>
<!-- dim_orders -->
<g id="node2" class="node">
<title>dim_orders</title>
<polygon fill="#f37843" stroke="none" points="25.25,-168.62 25.25,-279.88 198,-279.88 198,-168.62 25.25,-168.62"/>
<polygon fill="none" stroke="#ffffff" points="25.25,-250.38 25.25,-279.88 198,-279.88 198,-250.38 25.25,-250.38"/>
<text text-anchor="start" x="61.38" y="-260.68" font-family="Helvetica,sans-Serif" font-weight="bold" font-size="16.00" fill="#ffffff">dim_orders</text>
<polygon fill="#fcece8" stroke="none" points="25.25,-223.12 25.25,-250.38 198,-250.38 198,-223.12 25.25,-223.12"/>
<polygon fill="none" stroke="#ffffff" points="25.25,-223.12 25.25,-250.38 198,-250.38 198,-223.12 25.25,-223.12"/>
<text text-anchor="start" x="30.25" y="-233.07" font-family="Helvetica,sans-Serif" text-decoration="underline" font-size="14.00" fill="#868686">order_id &#160;</text>
<text text-anchor="start" x="95.5" y="-233.07" font-family="Helvetica,sans-Serif" font-size="14.00" fill="#868686"> [int]</text>
<polygon fill="#fcece8" stroke="none" points="25.25,-195.88 25.25,-223.12 198,-223.12 198,-195.88 25.25,-195.88"/>
<polygon fill="none" stroke="#ffffff" points="25.25,-195.88 25.25,-223.12 198,-223.12 198,-195.88 25.25,-195.88"/>
<text text-anchor="start" x="30.25" y="-205.82" font-family="Helvetica,sans-Serif" font-size="14.00" fill="#868686">order_date &#160;</text>
<text text-anchor="start" x="113.5" y="-205.82" font-family="Helvetica,sans-Serif" font-size="14.00" fill="#868686"> [varchar]</text>
<polygon fill="#fcece8" stroke="none" points="25.25,-168.62 25.25,-195.88 198,-195.88 198,-168.62 25.25,-168.62"/>
<polygon fill="none" stroke="#ffffff" points="25.25,-168.62 25.25,-195.88 198,-195.88 198,-168.62 25.25,-168.62"/>
<text text-anchor="start" x="30.25" y="-178.57" font-family="Helvetica,sans-Serif" font-size="14.00" fill="#868686">order_status &#160;</text>
<text text-anchor="start" x="125.5" y="-178.57" font-family="Helvetica,sans-Serif" font-size="14.00" fill="#868686"> [varchar]</text>
</g>
<!-- dim_orders&#45;&#45;fct_order_details -->
<g id="edge2" class="edge">
<title>dim_orders&#45;&#45;fct_order_details</title>
<path fill="none" stroke="#7f7f7f" stroke-dasharray="5,2" d="M205.89,-224.25C235.28,-224.25 267.63,-224.25 296.57,-224.25"/>
<text text-anchor="start" x="266.57" y="-210.95" font-family="Times,serif" font-size="14.00">0..N</text>
<text text-anchor="start" x="205.89" y="-210.95" font-family="Times,serif" font-size="14.00">1</text>
</g>
<!-- dim_products -->
<g id="node3" class="node">
<title>dim_products</title>
<polygon fill="#f37843" stroke="none" points="8,-4 8,-142.5 215.25,-142.5 215.25,-4 8,-4"/>
<polygon fill="none" stroke="#ffffff" points="8,-113 8,-142.5 215.25,-142.5 215.25,-113 8,-113"/>
<text text-anchor="start" x="50.88" y="-123.3" font-family="Helvetica,sans-Serif" font-weight="bold" font-size="16.00" fill="#ffffff">dim_products</text>
<polygon fill="#fcece8" stroke="none" points="8,-85.75 8,-113 215.25,-113 215.25,-85.75 8,-85.75"/>
<polygon fill="none" stroke="#ffffff" points="8,-85.75 8,-113 215.25,-113 215.25,-85.75 8,-85.75"/>
<text text-anchor="start" x="13" y="-95.7" font-family="Helvetica,sans-Serif" text-decoration="underline" font-size="14.00" fill="#868686">product_id &#160;</text>
<text text-anchor="start" x="94.75" y="-95.7" font-family="Helvetica,sans-Serif" font-size="14.00" fill="#868686"> [int]</text>
<polygon fill="#fcece8" stroke="none" points="8,-58.5 8,-85.75 215.25,-85.75 215.25,-58.5 8,-58.5"/>
<polygon fill="none" stroke="#ffffff" points="8,-58.5 8,-85.75 215.25,-85.75 215.25,-58.5 8,-58.5"/>
<text text-anchor="start" x="13" y="-68.45" font-family="Helvetica,sans-Serif" font-size="14.00" fill="#868686">product_name &#160;</text>
<text text-anchor="start" x="121" y="-68.45" font-family="Helvetica,sans-Serif" font-size="14.00" fill="#868686"> [varchar]</text>
<polygon fill="#fcece8" stroke="none" points="8,-31.25 8,-58.5 215.25,-58.5 215.25,-31.25 8,-31.25"/>
<polygon fill="none" stroke="#ffffff" points="8,-31.25 8,-58.5 215.25,-58.5 215.25,-31.25 8,-31.25"/>
<text text-anchor="start" x="13" y="-41.2" font-family="Helvetica,sans-Serif" font-size="14.00" fill="#868686">product_category &#160;</text>
<text text-anchor="start" x="142.75" y="-41.2" font-family="Helvetica,sans-Serif" font-size="14.00" fill="#868686"> [varchar]</text>
<polygon fill="#fcece8" stroke="none" points="8,-4 8,-31.25 215.25,-31.25 215.25,-4 8,-4"/>
<polygon fill="none" stroke="#ffffff" points="8,-4 8,-31.25 215.25,-31.25 215.25,-4 8,-4"/>
<text text-anchor="start" x="13" y="-13.95" font-family="Helvetica,sans-Serif" font-size="14.00" fill="#868686">price_dollars &#160;</text>
<text text-anchor="start" x="109.75" y="-13.95" font-family="Helvetica,sans-Serif" font-size="14.00" fill="#868686"> [varchar]</text>
</g>
<!-- dim_products&#45;&#45;fct_order_details -->
<g id="edge3" class="edge">
<title>dim_products&#45;&#45;fct_order_details</title>
<path fill="none" stroke="#7f7f7f" stroke-dasharray="5,2" d="M223.24,-134.89C247.68,-148.5 273.24,-162.75 296.59,-175.76"/>
<text text-anchor="start" x="266.59" y="-162.46" font-family="Times,serif" font-size="14.00">0..N</text>
<text text-anchor="start" x="223.24" y="-121.59" font-family="Times,serif" font-size="14.00">1</text>
</g>
</g>
</svg>
