<?xml version="1.0" encoding="UTF-8"?><svg xmlns="http://www.w3.org/2000/svg" width="800" height="210" version="1.0" shape-rendering="geometricPrecision"><defs><filter id="shadowBlur" x="0" y="0" width="200%" height="200%"><feOffset in="SourceGraphic" dx="3.0003002" dy="3.0003002" result="offOut"></feOffset><feGaussianBlur in="offOut" stdDeviation="3"></feGaussianBlur></filter></defs><g stroke-width="1" stroke-linecap="square" stroke-linejoin="round"><rect x="0" y="0" width="800" height="210" style="fill: #ffffff"></rect><path stroke="#969696" fill="#969696" filter="url(#shadowBlur)" d="M495.0 126.0 Q495.0 119.0 500.0 119.0 L630.0 119.0 Q635.0 119.0 635.0 126.0 L635.0 168.0 L635.0 168.0 Q635.0 175.0 630.0 175.0 L500.0 175.0 L500.0 175.0 Q495.0 175.0 495.0 168.0 L495.0 126.0 z"></path><path stroke="#969696" fill="#969696" filter="url(#shadowBlur)" d="M465.0 42.0 Q465.0 35.0 470.0 35.0 L650.0 35.0 Q655.0 35.0 655.0 42.0 L655.0 56.0 L655.0 56.0 Q655.0 63.0 650.0 63.0 L470.0 63.0 L470.0 63.0 Q465.0 63.0 465.0 56.0 L465.0 42.0 z"></path><path stroke="#969696" fill="#969696" filter="url(#shadowBlur)" d="M65.0 42.0 Q65.0 35.0 70.0 35.0 L210.0 35.0 Q215.0 35.0 215.0 42.0 L215.0 56.0 L215.0 56.0 Q215.0 63.0 210.0 63.0 L70.0 63.0 L70.0 63.0 Q65.0 63.0 65.0 56.0 L65.0 42.0 z"></path><path stroke="#000000" stroke-width="1.0" stroke-linecap="round" stroke-linejoin="round" fill="white" d="M495.0 126.0 Q495.0 119.0 500.0 119.0 L630.0 119.0 Q635.0 119.0 635.0 126.0 L635.0 168.0 L635.0 168.0 Q635.0 175.0 630.0 175.0 L500.0 175.0 L500.0 175.0 Q495.0 175.0 495.0 168.0 L495.0 126.0 z"></path><path stroke="#000000" stroke-width="1.0" stroke-linecap="round" stroke-linejoin="round" fill="white" d="M465.0 42.0 Q465.0 35.0 470.0 35.0 L650.0 35.0 Q655.0 35.0 655.0 42.0 L655.0 56.0 L655.0 56.0 Q655.0 63.0 650.0 63.0 L470.0 63.0 L470.0 63.0 Q465.0 63.0 465.0 56.0 L465.0 42.0 z"></path><path stroke="#000000" stroke-width="1.0" stroke-linecap="round" stroke-linejoin="round" fill="white" d="M65.0 42.0 Q65.0 35.0 70.0 35.0 L210.0 35.0 Q215.0 35.0 215.0 42.0 L215.0 56.0 L215.0 56.0 Q215.0 63.0 210.0 63.0 L70.0 63.0 L70.0 63.0 Q65.0 63.0 65.0 56.0 L65.0 42.0 z"></path><path stroke="none" stroke-width="1.0" stroke-linecap="round" stroke-linejoin="round" fill="#000000" d="M450.0 42.0 L460.0 49.0 L450.0 56.0 z"></path><path stroke="none" stroke-width="1.0" stroke-linecap="round" stroke-linejoin="round" fill="#000000" d="M560.0 98.0 L565.0 112.0 L570.0 98.0 z"></path><path stroke="#000000" stroke-width="1.0" stroke-linecap="round" stroke-linejoin="round" fill="none" d="M225.0 49.0 L455.0 49.0 "></path><path stroke="#000000" stroke-width="1.0" stroke-linecap="round" stroke-linejoin="round" fill="none" d="M565.0 77.0 L565.0 105.0 "></path><text x="258" y="40" font-family="sans-serif" font-size="15" stroke="none" fill="#000000"><![CDATA[JSON Transformation]]></text><text x="82" y="54" font-family="sans-serif" font-size="15" stroke="none" fill="#000000"><![CDATA[Raw JSON Data]]></text><text x="487" y="54" font-family="sans-serif" font-size="15" stroke="none" fill="#000000"><![CDATA[Normalized Views]]></text><text x="592" y="96" font-family="sans-serif" font-size="15" stroke="none" fill="#000000"><![CDATA[Dimensional Modeling]]></text><text x="523" y="138" font-family="sans-serif" font-size="15" stroke="none" fill="#000000"><![CDATA[Dimension]]></text><text x="540" y="152" font-family="sans-serif" font-size="15" stroke="none" fill="#000000"><![CDATA[and]]></text><text x="518" y="166" font-family="sans-serif" font-size="15" stroke="none" fill="#000000"><![CDATA[Fact Tables]]></text></g></svg>