<?xml version="1.0" encoding="UTF-8" standalone="no"?>
<!DOCTYPE svg PUBLIC "-//W3C//DTD SVG 1.1//EN"
 "http://www.w3.org/Graphics/SVG/1.1/DTD/svg11.dtd">
<!-- Generated by graphviz version 9.0.0 (20230911.1827)
 -->
<!-- Pages: 1 -->
<svg width="531pt" height="291pt"
 viewBox="0.00 0.00 530.50 290.75" xmlns="http://www.w3.org/2000/svg" xmlns:xlink="http://www.w3.org/1999/xlink">
<g id="graph0" class="graph" transform="scale(1 1) rotate(0) translate(4 286.75)">
<polygon fill="white" stroke="none" points="-4,4 -4,-286.75 526.5,-286.75 526.5,4 -4,4"/>
<!-- dimension: customers -->
<g id="node1" class="node">
<title>dimension: customers</title>
<polygon fill="#f37843" stroke="none" points="8,-17.62 8,-265.12 216.75,-265.12 216.75,-17.62 8,-17.62"/>
<polygon fill="none" stroke="#ffffff" points="8,-235.62 8,-265.12 216.75,-265.12 216.75,-235.62 8,-235.62"/>
<text text-anchor="start" x="13" y="-245.93" font-family="Helvetica,sans-Serif" font-weight="bold" font-size="16.00" fill="#ffffff">dimension: customers</text>
<polygon fill="#f9d6cd" stroke="none" points="8,-208.38 8,-235.62 216.75,-235.62 216.75,-208.38 8,-208.38"/>
<polygon fill="none" stroke="#ffffff" points="8,-208.38 8,-235.62 216.75,-235.62 216.75,-208.38 8,-208.38"/>
<text text-anchor="start" x="13" y="-218.32" font-family="Helvetica,sans-Serif" text-decoration="underline" font-size="14.00" fill="#000000">customer_id &#160;</text>
<text text-anchor="start" x="106.75" y="-218.32" font-family="Helvetica,sans-Serif" font-size="14.00" fill="#000000"> [int]</text>
<polygon fill="#fcece8" stroke="none" points="8,-181.12 8,-208.38 216.75,-208.38 216.75,-181.12 8,-181.12"/>
<polygon fill="none" stroke="#ffffff" points="8,-181.12 8,-208.38 216.75,-208.38 216.75,-181.12 8,-181.12"/>
<text text-anchor="start" x="13" y="-191.07" font-family="Helvetica,sans-Serif" font-size="14.00" fill="#868686">first_name &#160;</text>
<text text-anchor="start" x="95.5" y="-191.07" font-family="Helvetica,sans-Serif" font-size="14.00" fill="#868686"> [varchar]</text>
<polygon fill="#fcece8" stroke="none" points="8,-153.88 8,-181.12 216.75,-181.12 216.75,-153.88 8,-153.88"/>
<polygon fill="none" stroke="#ffffff" points="8,-153.88 8,-181.12 216.75,-181.12 216.75,-153.88 8,-153.88"/>
<text text-anchor="start" x="13" y="-163.82" font-family="Helvetica,sans-Serif" font-size="14.00" fill="#868686">last_name &#160;</text>
<text text-anchor="start" x="92.5" y="-163.82" font-family="Helvetica,sans-Serif" font-size="14.00" fill="#868686"> [varchar]</text>
<polygon fill="#fcece8" stroke="none" points="8,-126.62 8,-153.88 216.75,-153.88 216.75,-126.62 8,-126.62"/>
<polygon fill="none" stroke="#ffffff" points="8,-126.62 8,-153.88 216.75,-153.88 216.75,-126.62 8,-126.62"/>
<text text-anchor="start" x="13" y="-136.57" font-family="Helvetica,sans-Serif" font-size="14.00" fill="#868686">email &#160;</text>
<text text-anchor="start" x="59.5" y="-136.57" font-family="Helvetica,sans-Serif" font-size="14.00" fill="#868686"> [varchar]</text>
<polygon fill="#fcece8" stroke="none" points="8,-99.38 8,-126.62 216.75,-126.62 216.75,-99.38 8,-99.38"/>
<polygon fill="none" stroke="#ffffff" points="8,-99.38 8,-126.62 216.75,-126.62 216.75,-99.38 8,-99.38"/>
<text text-anchor="start" x="13" y="-109.33" font-family="Helvetica,sans-Serif" font-size="14.00" fill="#868686">first_order &#160;</text>
<text text-anchor="start" x="93.25" y="-109.33" font-family="Helvetica,sans-Serif" font-size="14.00" fill="#868686"> [date]</text>
<polygon fill="#fcece8" stroke="none" points="8,-72.12 8,-99.38 216.75,-99.38 216.75,-72.12 8,-72.12"/>
<polygon fill="none" stroke="#ffffff" points="8,-72.12 8,-99.38 216.75,-99.38 216.75,-72.12 8,-72.12"/>
<text text-anchor="start" x="13" y="-82.08" font-family="Helvetica,sans-Serif" font-size="14.00" fill="#868686">most_recent_order &#160;</text>
<text text-anchor="start" x="150.25" y="-82.08" font-family="Helvetica,sans-Serif" font-size="14.00" fill="#868686"> [date]</text>
<polygon fill="#fcece8" stroke="none" points="8,-44.88 8,-72.12 216.75,-72.12 216.75,-44.88 8,-44.88"/>
<polygon fill="none" stroke="#ffffff" points="8,-44.88 8,-72.12 216.75,-72.12 216.75,-44.88 8,-44.88"/>
<text text-anchor="start" x="13" y="-54.83" font-family="Helvetica,sans-Serif" font-size="14.00" fill="#868686">number_of_orders &#160;</text>
<text text-anchor="start" x="148" y="-54.83" font-family="Helvetica,sans-Serif" font-size="14.00" fill="#868686"> [int]</text>
<polygon fill="#fcece8" stroke="none" points="8,-17.62 8,-44.88 216.75,-44.88 216.75,-17.62 8,-17.62"/>
<polygon fill="none" stroke="#ffffff" points="8,-17.62 8,-44.88 216.75,-44.88 216.75,-17.62 8,-17.62"/>
<text text-anchor="start" x="13" y="-27.57" font-family="Helvetica,sans-Serif" font-size="14.00" fill="#868686">total_order_amount &#160;</text>
<text text-anchor="start" x="156.25" y="-27.57" font-family="Helvetica,sans-Serif" font-size="14.00" fill="#868686"> [int]</text>
</g>
<!-- fact: orders -->
<g id="node2" class="node">
<title>fact: orders</title>
<polygon fill="#f37843" stroke="none" points="305.75,-4 305.75,-278.75 514.5,-278.75 514.5,-4 305.75,-4"/>
<polygon fill="none" stroke="#ffffff" points="305.75,-249.25 305.75,-278.75 514.5,-278.75 514.5,-249.25 305.75,-249.25"/>
<text text-anchor="start" x="357.25" y="-259.55" font-family="Helvetica,sans-Serif" font-weight="bold" font-size="16.00" fill="#ffffff">fact: orders</text>
<polygon fill="#f9d6cd" stroke="none" points="305.75,-222 305.75,-249.25 514.5,-249.25 514.5,-222 305.75,-222"/>
<polygon fill="none" stroke="#ffffff" points="305.75,-222 305.75,-249.25 514.5,-249.25 514.5,-222 305.75,-222"/>
<text text-anchor="start" x="310.75" y="-231.95" font-family="Helvetica,sans-Serif" text-decoration="underline" font-size="14.00" fill="#000000">order_id &#160;</text>
<text text-anchor="start" x="376" y="-231.95" font-family="Helvetica,sans-Serif" font-size="14.00" fill="#000000"> [int]</text>
<polygon fill="#fcece8" stroke="none" points="305.75,-194.75 305.75,-222 514.5,-222 514.5,-194.75 305.75,-194.75"/>
<polygon fill="none" stroke="#ffffff" points="305.75,-194.75 305.75,-222 514.5,-222 514.5,-194.75 305.75,-194.75"/>
<text text-anchor="start" x="310.75" y="-204.7" font-family="Helvetica,sans-Serif" font-style="italic" font-size="14.00" fill="#868686">customer_id &#160;</text>
<text text-anchor="start" x="404.5" y="-204.7" font-family="Helvetica,sans-Serif" font-size="14.00" fill="#868686"> [int]</text>
<polygon fill="#fcece8" stroke="none" points="305.75,-167.5 305.75,-194.75 514.5,-194.75 514.5,-167.5 305.75,-167.5"/>
<polygon fill="none" stroke="#ffffff" points="305.75,-167.5 305.75,-194.75 514.5,-194.75 514.5,-167.5 305.75,-167.5"/>
<text text-anchor="start" x="310.75" y="-177.45" font-family="Helvetica,sans-Serif" font-size="14.00" fill="#868686">order_date &#160;</text>
<text text-anchor="start" x="394" y="-177.45" font-family="Helvetica,sans-Serif" font-size="14.00" fill="#868686"> [date]</text>
<polygon fill="#fcece8" stroke="none" points="305.75,-140.25 305.75,-167.5 514.5,-167.5 514.5,-140.25 305.75,-140.25"/>
<polygon fill="none" stroke="#ffffff" points="305.75,-140.25 305.75,-167.5 514.5,-167.5 514.5,-140.25 305.75,-140.25"/>
<text text-anchor="start" x="310.75" y="-150.2" font-family="Helvetica,sans-Serif" font-size="14.00" fill="#868686">status &#160;</text>
<text text-anchor="start" x="362.5" y="-150.2" font-family="Helvetica,sans-Serif" font-size="14.00" fill="#868686"> [varchar]</text>
<polygon fill="#fcece8" stroke="none" points="305.75,-113 305.75,-140.25 514.5,-140.25 514.5,-113 305.75,-113"/>
<polygon fill="none" stroke="#ffffff" points="305.75,-113 305.75,-140.25 514.5,-140.25 514.5,-113 305.75,-113"/>
<text text-anchor="start" x="310.75" y="-122.95" font-family="Helvetica,sans-Serif" font-size="14.00" fill="#868686">amount &#160;</text>
<text text-anchor="start" x="373" y="-122.95" font-family="Helvetica,sans-Serif" font-size="14.00" fill="#868686"> [int]</text>
<polygon fill="#fcece8" stroke="none" points="305.75,-85.75 305.75,-113 514.5,-113 514.5,-85.75 305.75,-85.75"/>
<polygon fill="none" stroke="#ffffff" points="305.75,-85.75 305.75,-113 514.5,-113 514.5,-85.75 305.75,-85.75"/>
<text text-anchor="start" x="310.75" y="-95.7" font-family="Helvetica,sans-Serif" font-size="14.00" fill="#868686">credit_card_amount &#160;</text>
<text text-anchor="start" x="455.5" y="-95.7" font-family="Helvetica,sans-Serif" font-size="14.00" fill="#868686"> [int]</text>
<polygon fill="#fcece8" stroke="none" points="305.75,-58.5 305.75,-85.75 514.5,-85.75 514.5,-58.5 305.75,-58.5"/>
<polygon fill="none" stroke="#ffffff" points="305.75,-58.5 305.75,-85.75 514.5,-85.75 514.5,-58.5 305.75,-58.5"/>
<text text-anchor="start" x="310.75" y="-68.45" font-family="Helvetica,sans-Serif" font-size="14.00" fill="#868686">coupon_amount &#160;</text>
<text text-anchor="start" x="430.75" y="-68.45" font-family="Helvetica,sans-Serif" font-size="14.00" fill="#868686"> [int]</text>
<polygon fill="#fcece8" stroke="none" points="305.75,-31.25 305.75,-58.5 514.5,-58.5 514.5,-31.25 305.75,-31.25"/>
<polygon fill="none" stroke="#ffffff" points="305.75,-31.25 305.75,-58.5 514.5,-58.5 514.5,-31.25 305.75,-31.25"/>
<text text-anchor="start" x="310.75" y="-41.2" font-family="Helvetica,sans-Serif" font-size="14.00" fill="#868686">bank_transfer_amount &#160;</text>
<text text-anchor="start" x="476.5" y="-41.2" font-family="Helvetica,sans-Serif" font-size="14.00" fill="#868686"> [int]</text>
<polygon fill="#fcece8" stroke="none" points="305.75,-4 305.75,-31.25 514.5,-31.25 514.5,-4 305.75,-4"/>
<polygon fill="none" stroke="#ffffff" points="305.75,-4 305.75,-31.25 514.5,-31.25 514.5,-4 305.75,-4"/>
<text text-anchor="start" x="310.75" y="-13.95" font-family="Helvetica,sans-Serif" font-size="14.00" fill="#868686">gift_card_amount &#160;</text>
<text text-anchor="start" x="439" y="-13.95" font-family="Helvetica,sans-Serif" font-size="14.00" fill="#868686"> [int]</text>
</g>
<!-- dimension: customers&#45;&#45;fact: orders -->
<g id="edge1" class="edge">
<title>dimension: customers&#45;&#45;fact: orders</title>
<path fill="none" stroke="#7f7f7f" stroke-dasharray="5,2" d="M224.34,-141.38C248.44,-141.38 273.93,-141.38 298.03,-141.38"/>
<text text-anchor="start" x="268.03" y="-128.07" font-family="Times,serif" font-size="14.00">0..N</text>
<text text-anchor="start" x="224.34" y="-141.01" font-family="Times,serif" font-size="14.00">1</text>
</g>
</g>
</svg>
