<?xml version="1.0" encoding="UTF-8" standalone="no"?>
<!DOCTYPE svg PUBLIC "-//W3C//DTD SVG 1.1//EN"
 "http://www.w3.org/Graphics/SVG/1.1/DTD/svg11.dtd">
<!-- Generated by graphviz version 2.44.0 ()
 -->
<!-- Pages: 1 -->
<svg width="473pt" height="269pt"
 viewBox="0.00 0.00 473.00 269.00" xmlns="http://www.w3.org/2000/svg" xmlns:xlink="http://www.w3.org/1999/xlink">
<g id="graph0" class="graph" transform="scale(1 1) rotate(0) translate(4 265)">
<polygon fill="white" stroke="transparent" points="-4,4 -4,-265 469,-265 469,4 -4,4"/>
<!-- dimension: customers -->
<g id="node1" class="node">
<title>dimension: customers</title>
<polygon fill="#f37843" stroke="transparent" points="8,-16.5 8,-244.5 188,-244.5 188,-16.5 8,-16.5"/>
<polygon fill="none" stroke="#ffffff" points="8,-216.5 8,-244.5 188,-244.5 188,-216.5 8,-216.5"/>
<text text-anchor="start" x="13" y="-227.7" font-family="Helvetica,sans-Serif" font-weight="bold" font-size="16.00" fill="#ffffff">dimension: customers</text>
<polygon fill="#f9d6cd" stroke="transparent" points="8,-191.5 8,-216.5 188,-216.5 188,-191.5 8,-191.5"/>
<polygon fill="none" stroke="#ffffff" points="8,-191.5 8,-216.5 188,-216.5 188,-191.5 8,-191.5"/>
<text text-anchor="start" x="13" y="-201.3" font-family="Helvetica,sans-Serif" text-decoration="underline" font-size="14.00" fill="#000000">customer_id &#160;</text>
<text text-anchor="start" x="95" y="-201.3" font-family="Helvetica,sans-Serif" font-size="14.00" fill="#000000"> [int]</text>
<polygon fill="#fcece8" stroke="transparent" points="8,-166.5 8,-191.5 188,-191.5 188,-166.5 8,-166.5"/>
<polygon fill="none" stroke="#ffffff" points="8,-166.5 8,-191.5 188,-191.5 188,-166.5 8,-166.5"/>
<text text-anchor="start" x="13" y="-176.3" font-family="Helvetica,sans-Serif" font-size="14.00" fill="#868686">first_name &#160;</text>
<text text-anchor="start" x="84" y="-176.3" font-family="Helvetica,sans-Serif" font-size="14.00" fill="#868686"> [varchar]</text>
<polygon fill="#fcece8" stroke="transparent" points="8,-141.5 8,-166.5 188,-166.5 188,-141.5 8,-141.5"/>
<polygon fill="none" stroke="#ffffff" points="8,-141.5 8,-166.5 188,-166.5 188,-141.5 8,-141.5"/>
<text text-anchor="start" x="13" y="-151.3" font-family="Helvetica,sans-Serif" font-size="14.00" fill="#868686">last_name &#160;</text>
<text text-anchor="start" x="83" y="-151.3" font-family="Helvetica,sans-Serif" font-size="14.00" fill="#868686"> [varchar]</text>
<polygon fill="#fcece8" stroke="transparent" points="8,-116.5 8,-141.5 188,-141.5 188,-116.5 8,-116.5"/>
<polygon fill="none" stroke="#ffffff" points="8,-116.5 8,-141.5 188,-141.5 188,-116.5 8,-116.5"/>
<text text-anchor="start" x="13" y="-126.3" font-family="Helvetica,sans-Serif" font-size="14.00" fill="#868686">email &#160;</text>
<text text-anchor="start" x="53" y="-126.3" font-family="Helvetica,sans-Serif" font-size="14.00" fill="#868686"> [varchar]</text>
<polygon fill="#fcece8" stroke="transparent" points="8,-91.5 8,-116.5 188,-116.5 188,-91.5 8,-91.5"/>
<polygon fill="none" stroke="#ffffff" points="8,-91.5 8,-116.5 188,-116.5 188,-91.5 8,-91.5"/>
<text text-anchor="start" x="13" y="-101.3" font-family="Helvetica,sans-Serif" font-size="14.00" fill="#868686">first_order &#160;</text>
<text text-anchor="start" x="82" y="-101.3" font-family="Helvetica,sans-Serif" font-size="14.00" fill="#868686"> [date]</text>
<polygon fill="#fcece8" stroke="transparent" points="8,-66.5 8,-91.5 188,-91.5 188,-66.5 8,-66.5"/>
<polygon fill="none" stroke="#ffffff" points="8,-66.5 8,-91.5 188,-91.5 188,-66.5 8,-66.5"/>
<text text-anchor="start" x="13" y="-76.3" font-family="Helvetica,sans-Serif" font-size="14.00" fill="#868686">most_recent_order &#160;</text>
<text text-anchor="start" x="134" y="-76.3" font-family="Helvetica,sans-Serif" font-size="14.00" fill="#868686"> [date]</text>
<polygon fill="#fcece8" stroke="transparent" points="8,-41.5 8,-66.5 188,-66.5 188,-41.5 8,-41.5"/>
<polygon fill="none" stroke="#ffffff" points="8,-41.5 8,-66.5 188,-66.5 188,-41.5 8,-41.5"/>
<text text-anchor="start" x="13" y="-51.3" font-family="Helvetica,sans-Serif" font-size="14.00" fill="#868686">number_of_orders &#160;</text>
<text text-anchor="start" x="131" y="-51.3" font-family="Helvetica,sans-Serif" font-size="14.00" fill="#868686"> [int]</text>
<polygon fill="#fcece8" stroke="transparent" points="8,-16.5 8,-41.5 188,-41.5 188,-16.5 8,-16.5"/>
<polygon fill="none" stroke="#ffffff" points="8,-16.5 8,-41.5 188,-41.5 188,-16.5 8,-16.5"/>
<text text-anchor="start" x="13" y="-26.3" font-family="Helvetica,sans-Serif" font-size="14.00" fill="#868686">total_order_amount &#160;</text>
<text text-anchor="start" x="138" y="-26.3" font-family="Helvetica,sans-Serif" font-size="14.00" fill="#868686"> [int]</text>
</g>
<!-- fact: orders -->
<g id="node2" class="node">
<title>fact: orders</title>
<polygon fill="#f37843" stroke="transparent" points="277,-4 277,-257 457,-257 457,-4 277,-4"/>
<polygon fill="none" stroke="#ffffff" points="277,-228.5 277,-256.5 457,-256.5 457,-228.5 277,-228.5"/>
<text text-anchor="start" x="323.5" y="-239.7" font-family="Helvetica,sans-Serif" font-weight="bold" font-size="16.00" fill="#ffffff">fact: orders</text>
<polygon fill="#f9d6cd" stroke="transparent" points="277,-203.5 277,-228.5 457,-228.5 457,-203.5 277,-203.5"/>
<polygon fill="none" stroke="#ffffff" points="277,-203.5 277,-228.5 457,-228.5 457,-203.5 277,-203.5"/>
<text text-anchor="start" x="282" y="-213.3" font-family="Helvetica,sans-Serif" text-decoration="underline" font-size="14.00" fill="#000000">order_id &#160;</text>
<text text-anchor="start" x="340" y="-213.3" font-family="Helvetica,sans-Serif" font-size="14.00" fill="#000000"> [int]</text>
<polygon fill="#fcece8" stroke="transparent" points="277,-178.5 277,-203.5 457,-203.5 457,-178.5 277,-178.5"/>
<polygon fill="none" stroke="#ffffff" points="277,-178.5 277,-203.5 457,-203.5 457,-178.5 277,-178.5"/>
<text text-anchor="start" x="282" y="-188.3" font-family="Helvetica,sans-Serif" font-style="italic" font-size="14.00" fill="#868686">customer_id &#160;</text>
<text text-anchor="start" x="364" y="-188.3" font-family="Helvetica,sans-Serif" font-size="14.00" fill="#868686"> [int]</text>
<polygon fill="#fcece8" stroke="transparent" points="277,-153.5 277,-178.5 457,-178.5 457,-153.5 277,-153.5"/>
<polygon fill="none" stroke="#ffffff" points="277,-153.5 277,-178.5 457,-178.5 457,-153.5 277,-153.5"/>
<text text-anchor="start" x="282" y="-163.3" font-family="Helvetica,sans-Serif" font-size="14.00" fill="#868686">order_date &#160;</text>
<text text-anchor="start" x="355" y="-163.3" font-family="Helvetica,sans-Serif" font-size="14.00" fill="#868686"> [date]</text>
<polygon fill="#fcece8" stroke="transparent" points="277,-128.5 277,-153.5 457,-153.5 457,-128.5 277,-128.5"/>
<polygon fill="none" stroke="#ffffff" points="277,-128.5 277,-153.5 457,-153.5 457,-128.5 277,-128.5"/>
<text text-anchor="start" x="282" y="-138.3" font-family="Helvetica,sans-Serif" font-size="14.00" fill="#868686">status &#160;</text>
<text text-anchor="start" x="326" y="-138.3" font-family="Helvetica,sans-Serif" font-size="14.00" fill="#868686"> [varchar]</text>
<polygon fill="#fcece8" stroke="transparent" points="277,-103.5 277,-128.5 457,-128.5 457,-103.5 277,-103.5"/>
<polygon fill="none" stroke="#ffffff" points="277,-103.5 277,-128.5 457,-128.5 457,-103.5 277,-103.5"/>
<text text-anchor="start" x="282" y="-113.3" font-family="Helvetica,sans-Serif" font-size="14.00" fill="#868686">amount &#160;</text>
<text text-anchor="start" x="335" y="-113.3" font-family="Helvetica,sans-Serif" font-size="14.00" fill="#868686"> [int]</text>
<polygon fill="#fcece8" stroke="transparent" points="277,-78.5 277,-103.5 457,-103.5 457,-78.5 277,-78.5"/>
<polygon fill="none" stroke="#ffffff" points="277,-78.5 277,-103.5 457,-103.5 457,-78.5 277,-78.5"/>
<text text-anchor="start" x="282" y="-88.3" font-family="Helvetica,sans-Serif" font-size="14.00" fill="#868686">credit_card_amount &#160;</text>
<text text-anchor="start" x="409" y="-88.3" font-family="Helvetica,sans-Serif" font-size="14.00" fill="#868686"> [int]</text>
<polygon fill="#fcece8" stroke="transparent" points="277,-53.5 277,-78.5 457,-78.5 457,-53.5 277,-53.5"/>
<polygon fill="none" stroke="#ffffff" points="277,-53.5 277,-78.5 457,-78.5 457,-53.5 277,-53.5"/>
<text text-anchor="start" x="282" y="-63.3" font-family="Helvetica,sans-Serif" font-size="14.00" fill="#868686">coupon_amount &#160;</text>
<text text-anchor="start" x="387" y="-63.3" font-family="Helvetica,sans-Serif" font-size="14.00" fill="#868686"> [int]</text>
<polygon fill="#fcece8" stroke="transparent" points="277,-28.5 277,-53.5 457,-53.5 457,-28.5 277,-28.5"/>
<polygon fill="none" stroke="#ffffff" points="277,-28.5 277,-53.5 457,-53.5 457,-28.5 277,-28.5"/>
<text text-anchor="start" x="282" y="-38.3" font-family="Helvetica,sans-Serif" font-size="14.00" fill="#868686">bank_transfer_amount &#160;</text>
<text text-anchor="start" x="426" y="-38.3" font-family="Helvetica,sans-Serif" font-size="14.00" fill="#868686"> [int]</text>
<polygon fill="#fcece8" stroke="transparent" points="277,-3.5 277,-28.5 457,-28.5 457,-3.5 277,-3.5"/>
<polygon fill="none" stroke="#ffffff" points="277,-3.5 277,-28.5 457,-28.5 457,-3.5 277,-3.5"/>
<text text-anchor="start" x="282" y="-13.3" font-family="Helvetica,sans-Serif" font-size="14.00" fill="#868686">gift_card_amount &#160;</text>
<text text-anchor="start" x="394" y="-13.3" font-family="Helvetica,sans-Serif" font-size="14.00" fill="#868686"> [int]</text>
</g>
<!-- dimension: customers&#45;&#45;fact: orders -->
<g id="edge1" class="edge">
<title>dimension: customers&#45;&#45;fact: orders</title>
<path fill="none" stroke="#7f7f7f" stroke-dasharray="5,2" d="M196.15,-130.5C219.86,-130.5 245.22,-130.5 268.92,-130.5"/>
<text text-anchor="start" x="243.92" y="-119.3" font-family="Times,serif" font-size="14.00">0..N</text>
<text text-anchor="start" x="196.15" y="-119.3" font-family="Times,serif" font-size="14.00">1</text>
</g>
</g>
</svg>
