<?xml version="1.0" encoding="UTF-8" standalone="no"?>
<!DOCTYPE svg PUBLIC "-//W3C//DTD SVG 1.1//EN"
 "http://www.w3.org/Graphics/SVG/1.1/DTD/svg11.dtd">
<!-- Generated by graphviz version 9.0.0 (20230911.1827)
 -->
<!-- Pages: 1 -->
<svg width="235pt" height="209pt"
 viewBox="0.00 0.00 235.00 209.00" xmlns="http://www.w3.org/2000/svg" xmlns:xlink="http://www.w3.org/1999/xlink">
<g id="graph0" class="graph" transform="scale(1 1) rotate(0) translate(4 205)">
<polygon fill="white" stroke="none" points="-4,4 -4,-205 231,-205 231,4 -4,4"/>
<!-- fact: Analytic_Dataset -->
<g id="node1" class="node">
<title>fact: Analytic_Dataset</title>
<polygon fill="#f37843" stroke="none" points="8,-4 8,-197 219,-197 219,-4 8,-4"/>
<polygon fill="none" stroke="#ffffff" points="8,-167.5 8,-197 219,-197 219,-167.5 8,-167.5"/>
<text text-anchor="start" x="14.88" y="-177.8" font-family="Helvetica,sans-Serif" font-weight="bold" font-size="16.00" fill="#ffffff">fact: Analytic_Dataset</text>
<polygon fill="#f9d6cd" stroke="none" points="8,-140.25 8,-167.5 219,-167.5 219,-140.25 8,-140.25"/>
<polygon fill="none" stroke="#ffffff" points="8,-140.25 8,-167.5 219,-167.5 219,-140.25 8,-140.25"/>
<text text-anchor="start" x="13" y="-150.2" font-family="Helvetica,sans-Serif" text-decoration="underline" font-size="14.00" fill="#000000">cust_id &#160;</text>
<text text-anchor="start" x="70.75" y="-150.2" font-family="Helvetica,sans-Serif" font-size="14.00" fill="#000000"> [INTEGER]</text>
<polygon fill="#fcece8" stroke="none" points="8,-113 8,-140.25 219,-140.25 219,-113 8,-113"/>
<polygon fill="none" stroke="#ffffff" points="8,-113 8,-140.25 219,-140.25 219,-113 8,-113"/>
<text text-anchor="start" x="13" y="-122.95" font-family="Helvetica,sans-Serif" font-size="14.00" fill="#868686">income &#160;</text>
<text text-anchor="start" x="72.25" y="-122.95" font-family="Helvetica,sans-Serif" font-size="14.00" fill="#868686"> [DECIMAL(15, 1)]</text>
<polygon fill="#fcece8" stroke="none" points="8,-85.75 8,-113 219,-113 219,-85.75 8,-85.75"/>
<polygon fill="none" stroke="#ffffff" points="8,-85.75 8,-113 219,-113 219,-85.75 8,-85.75"/>
<text text-anchor="start" x="13" y="-95.7" font-family="Helvetica,sans-Serif" font-size="14.00" fill="#868686">age &#160;</text>
<text text-anchor="start" x="47.5" y="-95.7" font-family="Helvetica,sans-Serif" font-size="14.00" fill="#868686"> [INTEGER]</text>
<polygon fill="#fcece8" stroke="none" points="8,-58.5 8,-85.75 219,-85.75 219,-58.5 8,-58.5"/>
<polygon fill="none" stroke="#ffffff" points="8,-58.5 8,-85.75 219,-85.75 219,-58.5 8,-58.5"/>
<text text-anchor="start" x="13" y="-68.45" font-family="Helvetica,sans-Serif" font-size="14.00" fill="#868686">years_with_bank &#160;</text>
<text text-anchor="start" x="137.5" y="-68.45" font-family="Helvetica,sans-Serif" font-size="14.00" fill="#868686"> [INTEGER]</text>
<polygon fill="#fcece8" stroke="none" points="8,-31.25 8,-58.5 219,-58.5 219,-31.25 8,-31.25"/>
<polygon fill="none" stroke="#ffffff" points="8,-31.25 8,-58.5 219,-58.5 219,-31.25 8,-31.25"/>
<text text-anchor="start" x="13" y="-41.2" font-family="Helvetica,sans-Serif" font-size="14.00" fill="#868686">nbr_children &#160;</text>
<text text-anchor="start" x="108.25" y="-41.2" font-family="Helvetica,sans-Serif" font-size="14.00" fill="#868686"> [INTEGER]</text>
<polygon fill="#fcece8" stroke="none" points="8,-4 8,-31.25 219,-31.25 219,-4 8,-4"/>
<polygon fill="none" stroke="#ffffff" points="8,-4 8,-31.25 219,-31.25 219,-4 8,-4"/>
<text text-anchor="start" x="13" y="-13.95" font-family="Helvetica,sans-Serif" font-size="14.00" fill="#868686">... &#160;</text>
<text text-anchor="start" x="35.5" y="-13.95" font-family="Helvetica,sans-Serif" font-size="14.00" fill="#868686"> [...]</text>
</g>
</g>
</svg>
