<?xml version="1.0" encoding="UTF-8" standalone="no"?>
<!DOCTYPE svg PUBLIC "-//W3C//DTD SVG 1.1//EN"
 "http://www.w3.org/Graphics/SVG/1.1/DTD/svg11.dtd">
<!-- Generated by graphviz version 8.0.4 (20230422.2207)
 -->
<!-- Pages: 1 -->
<svg width="588pt" height="314pt"
 viewBox="0.00 0.00 588.00 314.40" xmlns="http://www.w3.org/2000/svg" xmlns:xlink="http://www.w3.org/1999/xlink">
<g id="graph0" class="graph" transform="scale(1 1) rotate(0) translate(4 310.4)">
<polygon fill="white" stroke="none" points="-4,4 -4,-310.4 584,-310.4 584,4 -4,4"/>
<!-- customers -->
<g id="node1" class="node">
<title>customers</title>
<polygon fill="#f37843" stroke="none" points="8,-166 8,-302.4 136,-302.4 136,-166 8,-166"/>
<polygon fill="none" stroke="#ffffff" points="8,-273.2 8,-302.4 136,-302.4 136,-273.2 8,-273.2"/>
<text text-anchor="start" x="35.5" y="-283.2" font-family="Helvetica,sans-Serif" font-weight="bold" font-size="16.00" fill="#ffffff">customers</text>
<polygon fill="#f9d6cd" stroke="none" points="8,-246.4 8,-273.2 136,-273.2 136,-246.4 8,-246.4"/>
<polygon fill="none" stroke="#ffffff" points="8,-246.4 8,-273.2 136,-273.2 136,-246.4 8,-246.4"/>
<text text-anchor="start" x="13" y="-255.9" font-family="Helvetica,sans-Serif" text-decoration="underline" font-size="14.00" fill="#000000">id &#160;</text>
<text text-anchor="start" x="31" y="-255.9" font-family="Helvetica,sans-Serif" font-size="14.00" fill="#000000"> [int]</text>
<polygon fill="#fcece8" stroke="none" points="8,-219.6 8,-246.4 136,-246.4 136,-219.6 8,-219.6"/>
<polygon fill="none" stroke="#ffffff" points="8,-219.6 8,-246.4 136,-246.4 136,-219.6 8,-219.6"/>
<text text-anchor="start" x="13" y="-229.1" font-family="Helvetica,sans-Serif" font-size="14.00" fill="#868686">name &#160;</text>
<text text-anchor="start" x="55" y="-229.1" font-family="Helvetica,sans-Serif" font-size="14.00" fill="#868686"> [varchar]</text>
<polygon fill="#fcece8" stroke="none" points="8,-192.8 8,-219.6 136,-219.6 136,-192.8 8,-192.8"/>
<polygon fill="none" stroke="#ffffff" points="8,-192.8 8,-219.6 136,-219.6 136,-192.8 8,-192.8"/>
<text text-anchor="start" x="13" y="-202.3" font-family="Helvetica,sans-Serif" font-size="14.00" fill="#868686">surname &#160;</text>
<text text-anchor="start" x="74" y="-202.3" font-family="Helvetica,sans-Serif" font-size="14.00" fill="#868686"> [varchar]</text>
<polygon fill="#fcece8" stroke="none" points="8,-166 8,-192.8 136,-192.8 136,-166 8,-166"/>
<polygon fill="none" stroke="#ffffff" points="8,-166 8,-192.8 136,-192.8 136,-166 8,-166"/>
<text text-anchor="start" x="13" y="-175.5" font-family="Helvetica,sans-Serif" font-size="14.00" fill="#868686">email &#160;</text>
<text text-anchor="start" x="54" y="-175.5" font-family="Helvetica,sans-Serif" font-size="14.00" fill="#868686"> [varchar]</text>
</g>
<!-- orders -->
<g id="node2" class="node">
<title>orders</title>
<polygon fill="#f37843" stroke="none" points="225,-166 225,-302.4 366,-302.4 366,-166 225,-166"/>
<polygon fill="none" stroke="#ffffff" points="225,-273.2 225,-302.4 366,-302.4 366,-273.2 225,-273.2"/>
<text text-anchor="start" x="273" y="-283.2" font-family="Helvetica,sans-Serif" font-weight="bold" font-size="16.00" fill="#ffffff">orders</text>
<polygon fill="#f9d6cd" stroke="none" points="225,-246.4 225,-273.2 366,-273.2 366,-246.4 225,-246.4"/>
<polygon fill="none" stroke="#ffffff" points="225,-246.4 225,-273.2 366,-273.2 366,-246.4 225,-246.4"/>
<text text-anchor="start" x="230" y="-255.9" font-family="Helvetica,sans-Serif" text-decoration="underline" font-size="14.00" fill="#000000">id &#160;</text>
<text text-anchor="start" x="248" y="-255.9" font-family="Helvetica,sans-Serif" font-size="14.00" fill="#000000"> [int]</text>
<polygon fill="#fcece8" stroke="none" points="225,-219.6 225,-246.4 366,-246.4 366,-219.6 225,-219.6"/>
<polygon fill="none" stroke="#ffffff" points="225,-219.6 225,-246.4 366,-246.4 366,-219.6 225,-219.6"/>
<text text-anchor="start" x="230" y="-229.1" font-family="Helvetica,sans-Serif" font-size="14.00" fill="#868686">customer_id &#160;</text>
<text text-anchor="start" x="313" y="-229.1" font-family="Helvetica,sans-Serif" font-size="14.00" fill="#868686"> [int]</text>
<polygon fill="#fcece8" stroke="none" points="225,-192.8 225,-219.6 366,-219.6 366,-192.8 225,-192.8"/>
<polygon fill="none" stroke="#ffffff" points="225,-192.8 225,-219.6 366,-219.6 366,-192.8 225,-192.8"/>
<text text-anchor="start" x="230" y="-202.3" font-family="Helvetica,sans-Serif" font-size="14.00" fill="#868686">order_date &#160;</text>
<text text-anchor="start" x="304" y="-202.3" font-family="Helvetica,sans-Serif" font-size="14.00" fill="#868686"> [varchar]</text>
<polygon fill="#fcece8" stroke="none" points="225,-166 225,-192.8 366,-192.8 366,-166 225,-166"/>
<polygon fill="none" stroke="#ffffff" points="225,-166 225,-192.8 366,-192.8 366,-166 225,-166"/>
<text text-anchor="start" x="230" y="-175.5" font-family="Helvetica,sans-Serif" font-size="14.00" fill="#868686">status &#160;</text>
<text text-anchor="start" x="274" y="-175.5" font-family="Helvetica,sans-Serif" font-size="14.00" fill="#868686"> [varchar]</text>
</g>
<!-- customers&#45;&#45;orders -->
<g id="edge1" class="edge">
<title>customers&#45;&#45;orders</title>
<path fill="none" stroke="#7f7f7f" stroke-dasharray="5,2" d="M144,-234.2C167.28,-234.2 193.27,-234.2 217.01,-234.2"/>
<text text-anchor="start" x="193.01" y="-220.9" font-family="Times,serif" font-size="14.00">0..N</text>
<text text-anchor="start" x="144" y="-220.9" font-family="Times,serif" font-size="14.00">1</text>
</g>
<!-- order_products -->
<g id="node3" class="node">
<title>order_products</title>
<polygon fill="#f37843" stroke="none" points="455,-36.4 455,-146 572,-146 572,-36.4 455,-36.4"/>
<polygon fill="none" stroke="#ffffff" points="455,-116.8 455,-146 572,-146 572,-116.8 455,-116.8"/>
<text text-anchor="start" x="460" y="-126.8" font-family="Helvetica,sans-Serif" font-weight="bold" font-size="16.00" fill="#ffffff">order_products</text>
<polygon fill="#fcece8" stroke="none" points="455,-90 455,-116.8 572,-116.8 572,-90 455,-90"/>
<polygon fill="none" stroke="#ffffff" points="455,-90 455,-116.8 572,-116.8 572,-90 455,-90"/>
<text text-anchor="start" x="460" y="-99.5" font-family="Helvetica,sans-Serif" font-size="14.00" fill="#868686">order_id &#160;&#160;</text>
<text text-anchor="start" x="522" y="-99.5" font-family="Helvetica,sans-Serif" font-size="14.00" fill="#868686"> [int]</text>
<polygon fill="#fcece8" stroke="none" points="455,-63.2 455,-90 572,-90 572,-63.2 455,-63.2"/>
<polygon fill="none" stroke="#ffffff" points="455,-63.2 455,-90 572,-90 572,-63.2 455,-63.2"/>
<text text-anchor="start" x="460" y="-72.7" font-family="Helvetica,sans-Serif" font-size="14.00" fill="#868686">product_id &#160;</text>
<text text-anchor="start" x="532" y="-72.7" font-family="Helvetica,sans-Serif" font-size="14.00" fill="#868686"> [int]</text>
<polygon fill="#fcece8" stroke="none" points="455,-36.4 455,-63.2 572,-63.2 572,-36.4 455,-36.4"/>
<polygon fill="none" stroke="#ffffff" points="455,-36.4 455,-63.2 572,-63.2 572,-36.4 455,-36.4"/>
<text text-anchor="start" x="460" y="-45.9" font-family="Helvetica,sans-Serif" font-size="14.00" fill="#868686">quantity &#160;</text>
<text text-anchor="start" x="516" y="-45.9" font-family="Helvetica,sans-Serif" font-size="14.00" fill="#868686"> [int]</text>
</g>
<!-- orders&#45;&#45;order_products -->
<g id="edge2" class="edge">
<title>orders&#45;&#45;order_products</title>
<path fill="none" stroke="#7f7f7f" stroke-dasharray="5,2" d="M373.87,-182.98C397.84,-167.11 424,-149.79 447.08,-134.51"/>
<text text-anchor="start" x="423.08" y="-138.01" font-family="Times,serif" font-size="14.00">0..N</text>
<text text-anchor="start" x="373.87" y="-169.68" font-family="Times,serif" font-size="14.00">1</text>
</g>
<!-- products -->
<g id="node4" class="node">
<title>products</title>
<polygon fill="#f37843" stroke="none" points="228.5,-4 228.5,-140.4 362.5,-140.4 362.5,-4 228.5,-4"/>
<polygon fill="none" stroke="#ffffff" points="228.5,-111.2 228.5,-140.4 362.5,-140.4 362.5,-111.2 228.5,-111.2"/>
<text text-anchor="start" x="265" y="-121.2" font-family="Helvetica,sans-Serif" font-weight="bold" font-size="16.00" fill="#ffffff">products</text>
<polygon fill="#f9d6cd" stroke="none" points="228.5,-84.4 228.5,-111.2 362.5,-111.2 362.5,-84.4 228.5,-84.4"/>
<polygon fill="none" stroke="#ffffff" points="228.5,-84.4 228.5,-111.2 362.5,-111.2 362.5,-84.4 228.5,-84.4"/>
<text text-anchor="start" x="233.5" y="-93.9" font-family="Helvetica,sans-Serif" text-decoration="underline" font-size="14.00" fill="#000000">id &#160;</text>
<text text-anchor="start" x="251.5" y="-93.9" font-family="Helvetica,sans-Serif" font-size="14.00" fill="#000000"> [int]</text>
<polygon fill="#fcece8" stroke="none" points="228.5,-57.6 228.5,-84.4 362.5,-84.4 362.5,-57.6 228.5,-57.6"/>
<polygon fill="none" stroke="#ffffff" points="228.5,-57.6 228.5,-84.4 362.5,-84.4 362.5,-57.6 228.5,-57.6"/>
<text text-anchor="start" x="233.5" y="-67.1" font-family="Helvetica,sans-Serif" font-size="14.00" fill="#868686">name &#160;</text>
<text text-anchor="start" x="275.5" y="-67.1" font-family="Helvetica,sans-Serif" font-size="14.00" fill="#868686"> [varchar]</text>
<polygon fill="#fcece8" stroke="none" points="228.5,-30.8 228.5,-57.6 362.5,-57.6 362.5,-30.8 228.5,-30.8"/>
<polygon fill="none" stroke="#ffffff" points="228.5,-30.8 228.5,-57.6 362.5,-57.6 362.5,-30.8 228.5,-30.8"/>
<text text-anchor="start" x="233.5" y="-40.3" font-family="Helvetica,sans-Serif" font-size="14.00" fill="#868686">category &#160;</text>
<text text-anchor="start" x="293.5" y="-40.3" font-family="Helvetica,sans-Serif" font-size="14.00" fill="#868686"> [varchar]</text>
<polygon fill="#fcece8" stroke="none" points="228.5,-4 228.5,-30.8 362.5,-30.8 362.5,-4 228.5,-4"/>
<polygon fill="none" stroke="#ffffff" points="228.5,-4 228.5,-30.8 362.5,-30.8 362.5,-4 228.5,-4"/>
<text text-anchor="start" x="233.5" y="-13.5" font-family="Helvetica,sans-Serif" font-size="14.00" fill="#868686">unit_price &#160;</text>
<text text-anchor="start" x="300.5" y="-13.5" font-family="Helvetica,sans-Serif" font-size="14.00" fill="#868686"> [varchar]</text>
</g>
<!-- products&#45;&#45;order_products -->
<g id="edge3" class="edge">
<title>products&#45;&#45;order_products</title>
<path fill="none" stroke="#7f7f7f" stroke-dasharray="5,2" d="M370.23,-78.69C395.16,-80.88 422.81,-83.31 447.06,-85.44"/>
<text text-anchor="start" x="423.06" y="-72.14" font-family="Times,serif" font-size="14.00">0..N</text>
<text text-anchor="start" x="370.23" y="-65.39" font-family="Times,serif" font-size="14.00">1</text>
</g>
</g>
</svg>
